<?xml version="1.0" encoding="utf-8"?>
<!-- Generator: Adobe Illustrator 26.0.2, SVG Export Plug-In . SVG Version: 6.00 Build 0)  -->
<svg version="1.1" id="Layer_1" xmlns="http://www.w3.org/2000/svg" xmlns:xlink="http://www.w3.org/1999/xlink" x="0px" y="0px"
	 viewBox="0 0 282.2 299.9" style="enable-background:new 0 0 282.2 299.9;" xml:space="preserve">
<style type="text/css">
	.st0{fill:#232B56;}
	.st1{fill:#DA6912;}
</style>
<g>
	<g>
		<path class="st0" d="M212.2,49.5c0,0,45.9,40.3,42.4,104.5c-3.1,57.4-35.4,99-70.9,113.9c0,0,58.8-56.6,42.3-108.2
			c0,0-3.7-10.9-11.5-20.5c0,0-3.4-4.4-5.7,3c0,0,8.8,39.7-17.8,58.8c1.5-1.1-4.3-37-10.7-57.5C172.2,117.2,189.1,69.6,212.2,49.5z"
			/>
	</g>
	<g>
		<path class="st0" d="M75.8,49.5c0,0-45.9,40.3-42.4,104.5c3.1,57.4,35.4,99,70.9,113.9c0,0-58.8-56.6-42.3-108.2
			c0,0,3.7-10.9,11.5-20.5c0,0,3.4-4.4,5.7,3c0,0-8.8,39.7,17.8,58.8c-1.5-1.1,4.3-37,10.7-57.5C115.8,117.2,98.9,69.6,75.8,49.5z"
			/>
	</g>
	<g>
		<path class="st1" d="M172.5,185.8c0,0,18.6,16.3,17.2,42.4c-1.3,23.3-14.4,40.1-28.8,46.2c0,0,23.9-23,17.2-43.9
			c0,0-1.5-4.4-4.7-8.3c0,0-1.4-1.8-2.3,1.2c0,0,3.6,16.1-7.2,23.9c0.6-0.4-1.8-15-4.3-23.3C156.3,213.3,163.2,194,172.5,185.8z"/>
	</g>
	<g>
		<path class="st1" d="M180.2,236c3.8,2.2,0,4.4,0.9,6.7c1,2.3,1.2,5,0.9,7.3c-0.3,2.4-11,15.4-12.5,13.3c-1.5-2.1-5.7-4.6-5.9-17.5
			c0.2-3,0.7-5.5,3.4-8.6C170.7,233.3,175.8,232.6,180.2,236z M168.3,246.7c-0.3,1.1-1.4,9.7,3.6,12.9c1.2,0.5,5-4.4,6.1-5.4
			c1.2-1,2-2.6,2.1-4.4c0.1-1.8-0.5-3.6-1.5-4.6C177.7,244.1,171.5,239.6,168.3,246.7z"/>
	</g>
	<g>
		<path class="st1" d="M126.2,241.5c0.8-5.1,2.4-12.5,3.9-17.5c3.3-10.7-3.5-30-12.9-38.2c0,0-18.6,16.3-17.2,42.4
			c0.7,13,5.1,23.9,11.3,32.2l-4.1,6l4.9-5.1c1.6,2,3.3,3.9,5.1,5.5c0.3,0.3,0.6,0.4,1,0.4c0.5,0,1.1,0,1.7-0.1
			c0.4,0,0.6,0.3,0.4,0.6c0,0,0,0,0,0c-0.4,0.6-0.3,1.5,0.3,2c2.6,2,5.4,3.5,8.1,4.7c0,0-2.2-2.1-5.1-5.7c-0.5-0.6-0.6-1.4-0.4-2.1
			c0.2-0.8,0.6-1.4,0.9-1.8c0.2-0.3,0-0.7-0.4-0.6c-1,0.1-1.8,0.2-2.5,0.1c-0.7,0-1.3-0.4-1.6-0.9c-1.3-1.9-2.5-3.9-3.7-6l4.9-5.1
			C123.7,249.2,125.5,245.5,126.2,241.5z M118.4,250l-3.6,5.2c-3.7-7.5-6-16.2-3.3-24.7c0,0,1.5-4.4,4.7-8.3c0,0,1.4-1.8,2.3,1.2
			c0,0-1.9,8.2,1,15.7C120.9,242.8,120.6,246.8,118.4,250z"/>
	</g>
	<circle class="st1" cx="145.9" cy="67" r="3.9"/>
	<circle class="st1" cx="145.9" cy="50.9" r="3.9"/>
	<path class="st1" d="M163.2,57.7c-6.4-10-11.5-20.8-16.8-31.4c-0.1-0.2-0.2-0.3-0.4-0.6c0,0,0,0.1-0.1,0.1c0,0,0-0.1-0.1-0.1
		c-0.2,0.3-0.3,0.4-0.4,0.6c-5.3,10.6-10.4,21.3-16.8,31.4c-0.2,0.3,0.1,1.2,0.4,1.6c1.5,1.8,3.3,3.5,4.8,5.3
		c2.5,3.2,4.1,6.8,4.1,11.1c-1.4-0.3-1.6,0.4-1.8,1.4c-0.4,2.1-0.8,4.3-1.2,6.4c-0.2,0.9-0.3,1.9,0.8,2c0.4,0,1.2-1,1.3-1.6
		c0.5-2,0.9-4,1.2-5.8c2.6,0,5.1,0,7.6,0c2.5,0,5,0,7.6,0c0.4,1.8,0.7,3.8,1.2,5.8c0.2,0.6,0.9,1.6,1.3,1.6c1.1-0.1,1-1.1,0.8-2
		c-0.4-2.1-0.9-4.2-1.2-6.4c-0.2-1-0.5-1.8-1.8-1.4c0-4.3,1.6-7.9,4.1-11.1c1.5-1.9,3.2-3.5,4.8-5.3
		C163.1,58.9,163.4,58.1,163.2,57.7z M145.9,57.1c0.4,0,0.8,0.2,1.2,0.5c0.9,0.8,0.8,1.7,0.2,2.5c-0.4,0.4-0.9,0.6-1.3,0.6
		c-0.4,0-0.9-0.3-1.3-0.6c-0.6-0.9-0.7-1.8,0.2-2.5C145.2,57.3,145.5,57.2,145.9,57.1z M151.6,75.5c-1.9,0-3.8,0-5.7,0
		c-1.9,0-3.8,0-5.7,0c-0.1-7.2-4.4-12.4-9-17.2c4.5-8.3,8.9-16.5,13.6-25.2c0,2.3-0.1,4.2-0.1,6.1c0,4.8,0,9.6,0,14.5
		c0,0.8,0,1.3-0.9,1.8c-1.7,0.9-2.3,2.9-1.8,4.6c0.5,1.7,2.1,2.9,3.8,3c0,0,0,0,0.1,0c0,0,0,0,0.1,0c1.7,0,3.3-1.3,3.8-3
		c0.5-1.7-0.1-3.7-1.8-4.6c-0.9-0.5-0.9-1-0.9-1.8c0-4.8,0-9.6,0-14.5c0-1.9-0.1-3.7-0.1-6.1c4.7,8.7,9.1,16.8,13.6,25.2
		C155.9,63.1,151.7,68.3,151.6,75.5z"/>
	<g>
		<path class="st0" d="M162.1,273.6l-0.9,0.3c-3.6-7.7-6-16-7.7-24.4c-1.6-8.4-2.6-16.9-2.9-25.4c-0.3-8.5,0-17.1,0.7-25.5
			c0.4-4.2,0.9-8.5,1.3-12.7c0.2-2.1,0.4-4.2,0.5-6.2c0.1-2.2,0.4-4.3,0.6-6.4c2.2-16.8,4.4-33.6,4.9-50.5c0.3-8.4-0.3-16.9-2-25
			c-0.4-2-1-4-1.6-5.9c-0.6-1.9-1.4-3.7-2.3-5.4c-0.9-1.6-2-3-3.2-3.9c-1.1-0.8-2.3-1.2-3.7-1.3c-1.4,0-2.6,0.4-3.7,1.3
			c-1.2,0.9-2.3,2.3-3.2,3.9c-0.9,1.6-1.7,3.5-2.3,5.4c-0.6,1.9-1.2,3.9-1.6,5.9c-1.8,8.1-2.3,16.6-2,25c0.5,16.9,2.7,33.7,4.9,50.5
			c0.2,2.1,0.5,4.2,0.6,6.4c0,2,0.3,4.1,0.5,6.2c0.5,4.2,1,8.4,1.3,12.7c0.8,8.5,1.1,17,0.7,25.5c-0.3,8.5-1.3,17-2.9,25.4
			c-1.6,8.4-4.1,16.6-7.7,24.4l-0.9-0.3l2.9-12.3c0.4-2.1,0.9-4.1,1.3-6.2c0.5-2,0.8-4.1,1.2-6.2c1.6-8.2,2.5-16.6,3-25
			c0.4-8.4,0.4-16.8-0.2-25.2c-0.3-4.2-0.6-8.4-1-12.6c-0.2-2.1-0.4-4.2-0.4-6.4c0-2-0.3-4.1-0.5-6.2c-1.8-16.8-3.9-33.7-4.6-50.6
			c-0.2-4.2-0.3-8.5-0.4-12.8c-0.1-4.3-0.1-8.6,0.2-12.9c0.3-4.3,0.9-8.7,2.8-13.1c1-2.2,2.3-4.4,4.4-6.1c1-0.9,2.3-1.6,3.6-2.1
			c1.2-0.4,2.6-0.6,3.8-0.7c1.2,0,2.6,0.2,3.8,0.7c1.4,0.5,2.6,1.2,3.6,2.1c2.1,1.8,3.4,4,4.4,6.1c1.8,4.4,2.4,8.8,2.8,13.1
			c0.3,4.3,0.3,8.6,0.2,12.9c-0.1,4.3-0.3,8.5-0.4,12.8c-0.7,17-2.9,33.8-4.6,50.6c-0.2,2.1-0.4,4.2-0.5,6.2c0,2.2-0.2,4.3-0.4,6.4
			c-0.4,4.2-0.7,8.4-1,12.6c-0.5,8.4-0.6,16.8-0.2,25.2c0.5,8.4,1.4,16.7,3,25c0.4,2.1,0.8,4.1,1.3,6.2c0.4,2.1,0.9,4.1,1.3,6.2
			L162.1,273.6z"/>
	</g>
</g>
</svg>
