<?xml version="1.0" encoding="utf-8"?>
<!-- Generator: Adobe Illustrator 26.0.2, SVG Export Plug-In . SVG Version: 6.00 Build 0)  -->
<svg version="1.1" id="Layer_1" xmlns="http://www.w3.org/2000/svg" xmlns:xlink="http://www.w3.org/1999/xlink" x="0px" y="0px"
	 viewBox="0 0 486 553.8" style="enable-background:new 0 0 486 553.8;" xml:space="preserve">
<style type="text/css">
	.st0{fill:#791618;}
	.st1{fill:#FAE8A5;}
	.st2{fill:#791619;}
	.st3{fill:#F8CC81;}
	.st4{fill:#7A161C;}
	.st5{fill:#CB151E;}
	.st6{fill:#954415;}
	.st7{fill:#F5AF5F;}
	.st8{fill:#006639;}
	.st9{fill-rule:evenodd;clip-rule:evenodd;fill:#006639;}
</style>
<g>
	<g>
		<g>
			<g>
				<path class="st0" d="M120.7,459.4c-0.8-1-1.4-1.3-2.2-0.8c-0.5,0.3-1.3,0.8-2.9,1.9l-1.4,1c-2.1,1.5-3.9,2.2-5.7,2
					c-1.5-0.2-2.8-1.2-3.7-2.4c-0.8-1.1-1.4-2.3-1.3-3.6c0-1.7,0.9-3.2,3.1-4.7l4.2-3c1.6-1.2,1.6-1.4,0.7-2.9l0.5-0.4l3.6,4.8
					l-0.5,0.4c-1.1-1.4-1.4-1.4-3-0.3l-3.8,2.8c-2.9,2.1-3.6,4.4-2,6.6c1.9,2.6,4.6,2,7.5-0.1l1.4-1c1.6-1.1,2.3-1.7,2.7-2.2
					c0.6-0.6,0.5-1.2-0.3-2.5l0.5-0.4l3.2,4.4L120.7,459.4z"/>
				<path class="st0" d="M115.1,473l0.4-0.4c1,0.9,1.2,0.9,2.3-0.2l2.6-2.3c1.1-1,1.4-2.1,0.5-3.1c-0.6-0.6-1.5-0.9-2.4-1l-3.8,3.3
					c-1.1,1-1.1,1.1-0.3,2.2l-0.4,0.4l-3.3-3.7l0.4-0.4c1.1,1,1.3,1,2.4,0l3.3-2.9c1.1-0.9,1-1.1,0.4-2.1l0.4-0.4
					c0.8,0.7,1.8,1.4,2.8,1.9l-1.3,1.2c0.5,0.1,1.1,0.3,1.8,0.4c0.7,0.2,1.3,0.5,1.7,1c1.2,1.3,1,3-0.6,4.4l-3,2.7
					c-1.1,1-1.1,1.1-0.3,2.2l-0.4,0.4L115.1,473z"/>
				<path class="st0" d="M119.9,478l0.4-0.4c1.1,0.9,1.3,0.9,2.4-0.2l3.1-3.1c1-1,1-1.1,0.2-2.2l0.4-0.4c1,0.7,2,1.3,3,1.7l-5.2,5.2
					c-1.1,1.1-1,1.2-0.1,2.4l-0.4,0.4L119.9,478z M129.7,469.8c0.5-0.5,1.3-0.5,1.7,0s0.5,1.2,0,1.7c-0.4,0.4-1.2,0.5-1.7,0
					C129.3,471,129.3,470.2,129.7,469.8z"/>
				<path class="st0" d="M135.2,478.9c2.2,1.9,2.3,4.9,0.6,6.8c-2.3,2.6-5.5,2.1-7.2,0.6c-2.4-2.1-2.3-5.1-0.7-6.9
					C130.2,476.8,133.6,477.5,135.2,478.9L135.2,478.9z M134.5,479.3c-1-0.8-2.8-0.7-4.4,1.1c-1.8,2-2.2,4.3-0.9,5.5
					c1,0.8,2.4,1,4.5-1.3C135.4,482.7,136,480.6,134.5,479.3L134.5,479.3z"/>
				<path class="st0" d="M139.3,494.6l0.4-0.5c1.1,0.7,1.3,0.6,2.3-0.6l2.1-2.8c0.9-1.2,1-2.3-0.1-3.1c-0.7-0.5-1.7-0.6-2.5-0.6
					l-3,4c-0.9,1.2-0.9,1.3,0.1,2.2l-0.4,0.5l-4-3l0.4-0.5c1.3,0.8,1.5,0.7,2.3-0.4l2.6-3.4c0.9-1.1,0.8-1.3,0-2.1l0.3-0.4
					c1,0.5,2.1,1,3.1,1.3l-1.1,1.4c0.6,0,1.2,0,1.8,0.1c0.7,0.1,1.3,0.2,1.9,0.6c1.4,1.1,1.6,2.7,0.3,4.4l-2.5,3.2
					c-0.9,1.2-0.8,1.3,0.1,2.2l-0.4,0.5L139.3,494.6z"/>
				<path class="st0" d="M161.1,497.4c2.5,1.4,3.2,4.3,1.9,6.6c-1.8,3-5,3-6.9,1.9c-2.8-1.6-3.2-4.6-2-6.6
					C155.9,496.3,159.3,496.4,161.1,497.4L161.1,497.4z M160.5,497.9c-1.1-0.6-2.8-0.2-4.1,1.9c-1.4,2.3-1.4,4.6,0.2,5.5
					c1.1,0.6,2.6,0.5,4.1-2.1C162.1,501.1,162.2,498.9,160.5,497.9L160.5,497.9z"/>
				<path class="st0" d="M168,501.4l0.2-0.4c0.3-0.6,0.7-1.1,1-1.4c0.4-0.4,1.2-1.1,2.8-1.4c1-0.2,1.9-0.2,2.8,0.1
					c0.7,0.4,1.1,0.9,1.3,1.5c0.1,0.3,0,0.6-0.3,0.8c-0.2,0.1-0.4,0.2-0.6,0.3c-0.3,0-0.5,0-0.6-0.3c-0.2-0.6-0.6-1.3-1.3-1.6
					c-0.5-0.3-0.9-0.2-1.3,0.1c-0.4,0.2-1.1,1-1.9,2.6l-0.4,0.8l2.4,1.2c0,0.2-0.3,0.7-0.6,0.7l-2.2-1.1l-2.8,5.4
					c-0.7,1.4-0.6,1.6,0.9,2.5l-0.3,0.5l-4.9-2.5l0.3-0.5c1.3,0.5,1.6,0.5,2.2-0.8l2.9-5.5l-1.4-0.7l0-0.3l0.9-0.3L168,501.4z"/>
				<path class="st0" d="M191.4,517.3c-0.6,0.9-1.8,2.2-2.4,2.8c-0.7-0.1-2.7-0.3-4.3-0.9c-5.5-2-6.6-6.4-5.4-9.6
					c1.6-4.2,6.2-5.7,11.1-4c1.8,0.7,3.2,1.7,3.7,2c-0.3,1.2-0.4,2.1-0.7,3.3l-0.7-0.1c0.3-2.4-0.8-3.8-3.2-4.7
					c-3.6-1.3-6.6,0.8-7.8,3.8c-1.4,3.8,0,7.2,3.4,8.4c2.2,0.8,3.8,0.1,5.8-1.6L191.4,517.3z"/>
				<path class="st0" d="M198.5,523.1l0.2-0.6c1.3,0.2,1.5,0.1,1.9-1.2l0.9-3.4c0.5-1.7,0-2.7-1.4-3.1c-0.8-0.2-1.7,0-2.5,0.4
					l-1.3,4.9c-0.4,1.3-0.3,1.5,0.9,2l-0.2,0.6l-4.7-1.2l0.2-0.6c1.3,0.2,1.6,0.1,1.9-1.2l2.7-9.8c0.4-1.3,0.3-1.4-1-1.9l0.1-0.5
					c1.1,0.1,2.6,0.2,3.5,0.2l-1.9,7c1-0.5,2.4-1,3.5-0.7c1.8,0.5,2.8,1.8,2.1,4.4l-1,3.5c-0.4,1.4-0.3,1.5,1,2l-0.2,0.6
					L198.5,523.1z"/>
				<path class="st0" d="M212.4,526.4c-0.4-0.1-0.9-0.4-1.1-0.6c-0.2-0.3-0.3-0.6-0.4-1c-1,0.4-2.2,0.9-2.8,0.8
					c-1.7-0.3-2.5-1.8-2.2-3.1c0.2-1.1,0.9-1.6,2.2-1.7c1.5-0.2,3.2-0.4,3.7-0.7l0.1-0.4c0.3-1.5-0.3-2.5-1.3-2.7
					c-0.4-0.1-0.7,0-1,0.2c-0.3,0.2-0.6,0.7-1,1.3c-0.2,0.3-0.5,0.4-0.8,0.4c-0.4-0.1-0.9-0.6-0.8-1.1c0.1-0.3,0.4-0.5,0.9-0.7
					c0.7-0.3,2.4-0.8,3.7-0.8c0.7,0.1,1.3,0.4,1.8,0.9c0.7,0.8,0.8,1.7,0.5,2.9l-0.7,3.8c-0.2,0.9,0.1,1.3,0.5,1.4
					c0.3,0,0.6,0,0.8-0.1l0.1,0.6L212.4,526.4z M211.7,520.7c-0.5,0.1-1.5,0.4-2,0.5c-0.9,0.2-1.5,0.5-1.7,1.3
					c-0.2,1.1,0.6,1.8,1.2,1.9c0.5,0.1,1.3-0.1,1.8-0.4L211.7,520.7z"/>
				<path class="st0" d="M220.3,519.9c0.9-1.1,2-2.1,3-2c0.8,0.1,1.3,0.7,1.2,1.3c-0.1,0.5-0.4,0.9-0.9,1c-0.3,0.1-0.5,0-0.6-0.1
					c-0.3-0.3-0.5-0.5-0.9-0.6c-0.6-0.1-1.3,0.5-2,1.5l-0.5,3.8c-0.2,1.4-0.1,1.5,1.6,1.9l-0.1,0.6l-5.3-0.7l0.1-0.6
					c1.4,0,1.6-0.1,1.8-1.5l0.6-4.4c0.2-1.4,0.1-1.5-1.2-1.8l0.1-0.5c1.1,0,2.2-0.1,3.4-0.4L220.3,519.9L220.3,519.9z"/>
				<path class="st0" d="M225.1,527.7l0-0.6c1.4,0,1.6-0.1,1.7-1.6l0.3-4.3c0.1-1.3,0-1.5-1.3-1.8l0-0.5c1.2-0.1,2.4-0.3,3.4-0.6
					l-0.6,7.3c-0.1,1.5,0,1.6,1.4,1.9l0,0.6L225.1,527.7z M227.3,515.3c0.1-0.7,0.7-1.2,1.3-1.1c0.7,0,1.1,0.6,1.1,1.3
					c-0.1,0.6-0.6,1.1-1.3,1.1C227.7,516.5,227.2,515.9,227.3,515.3z"/>
				<path class="st0" d="M236.1,528.3c-0.4,0.2-0.8,0.3-1,0.3c-1.5-0.1-2.3-0.9-2.2-2.6l0.2-6.1l-1.5-0.1l-0.1-0.3l0.6-0.6l1,0
					l0.1-1.6l1.7-1.4l0.3,0.1l-0.1,3l2.5,0.1c0.2,0.2,0.1,0.7-0.2,0.9l-2.4-0.1l-0.2,5.4c-0.1,1.7,0.7,2,1.3,2.1
					c0.5,0,1-0.2,1.4-0.3l0.2,0.6L236.1,528.3z"/>
				<path class="st0" d="M246.5,528.6c-0.4,0-0.9-0.2-1.2-0.4c-0.3-0.3-0.5-0.6-0.6-0.9c-0.9,0.6-2,1.4-2.6,1.4
					c-1.7,0-2.8-1.2-2.8-2.6c0-1.1,0.6-1.7,1.8-2.1c1.4-0.5,3-1,3.5-1.4l0-0.4c0-1.5-0.8-2.3-1.8-2.3c-0.4,0-0.7,0.2-1,0.4
					c-0.3,0.3-0.5,0.8-0.7,1.5c-0.1,0.4-0.4,0.5-0.7,0.5c-0.4,0-1-0.4-1-0.9c0-0.3,0.3-0.6,0.7-0.9c0.6-0.5,2.2-1.3,3.4-1.6
					c0.7,0,1.4,0.1,1.9,0.5c0.8,0.7,1.1,1.6,1.1,2.7l0.1,3.8c0,1,0.4,1.3,0.8,1.3c0.3,0,0.6-0.1,0.8-0.2l0.2,0.6L246.5,528.6z
					 M244.7,523.3c-0.5,0.2-1.4,0.7-1.8,0.9c-0.9,0.4-1.4,0.8-1.3,1.6c0,1.1,0.9,1.6,1.6,1.6c0.5,0,1.3-0.3,1.6-0.7L244.7,523.3z"/>
				<path class="st0" d="M253.8,518.6c0.4-0.2,0.7-0.3,1-0.3c2.5-0.2,4.7,1.6,4.9,4.1c0.3,3.1-2.2,5.6-5.3,5.8c-1,0.1-2.1,0-3.5-0.5
					l-1-11.8c-0.1-1.3-0.2-1.5-1.6-1.5l0-0.5c1-0.2,2.5-0.7,3.4-1l0.6,6.6L253.8,518.6z M252.7,525.5c0,0.3,0.1,0.5,0.2,0.7
					c0.2,0.4,0.9,1.1,2,1c1.8-0.1,2.8-1.7,2.6-4.2c-0.2-2.5-1.9-3.7-3.7-3.6c-0.6,0-1.2,0.3-1.6,0.5L252.7,525.5z"/>
				<path class="st0" d="M262,527.2l-0.1-0.6c1.4-0.4,1.6-0.5,1.3-1.9l-1.4-10c-0.2-1.4-0.4-1.5-1.8-1.4l-0.1-0.5
					c1.2-0.3,2.6-0.9,3.3-1.2l1.9,12.9c0.2,1.4,0.4,1.5,1.9,1.5l0.1,0.6L262,527.2z"/>
				<path class="st0" d="M276.5,522.9c-1.1,2-2.6,2.7-3.3,2.8c-2.7,0.5-4.8-1.3-5.2-3.7c-0.3-1.4,0-2.8,0.7-3.9c0.8-1.2,1.9-2,3-2.2
					l0,0c1.9-0.4,3.7,0.9,4,2.6c0.1,0.4,0,0.6-0.4,0.8c-0.4,0.1-3.1,0.9-5.7,1.4c0.6,2.7,2.5,3.6,4,3.3c0.9-0.2,1.7-0.7,2.4-1.5
					L276.5,522.9z M271.3,516.8c-1,0.2-1.8,1.2-1.7,3c1.2-0.2,2.4-0.4,3.6-0.7c0.4-0.1,0.5-0.2,0.4-0.5
					C273.4,517.5,272.5,516.6,271.3,516.8L271.3,516.8z"/>
				<path class="st0" d="M295.8,519.5l-0.2-0.6c1.3-0.6,1.4-0.9,0.9-1.6c-0.6-0.7-1.3-1.6-2.2-2.6l-4.7,1.5c-0.1,1-0.1,1.9-0.1,2.8
					c-0.1,1.4,0.2,1.6,1.9,1.2l0.2,0.6l-4.8,1.5l-0.2-0.6c1.3-0.7,1.6-0.9,1.8-2.9l1-12.1l0.7-0.4c2.6,3.2,5.2,6.3,7.8,9.5
					c1.3,1.6,1.7,1.7,3.1,1.4l0.2,0.6L295.8,519.5z M290.1,509.5L290.1,509.5c-0.2,1.9-0.3,3.9-0.4,5.7l4-1.3L290.1,509.5z"/>
				<path class="st0" d="M305.7,508.7c-0.9-1-2-1.6-3-1.1c-0.8,0.3-1.1,1.1-0.8,1.8c0.3,0.8,1.3,1,2.4,1c1.8,0,3.2,0.3,3.8,1.7
					c0.8,1.9-0.6,3.5-2.4,4.2c-1.1,0.4-2.2,0.5-2.7,0.3c-0.2-0.2-1-1.5-1.4-2.3l0.5-0.3c0.9,1.2,2.4,2,3.6,1.5
					c0.8-0.3,1.2-1.1,0.9-1.9c-0.3-0.8-1.1-1-2.3-1.1c-1.4,0-3.2-0.2-3.8-1.7c-0.6-1.4,0.2-3.1,2.2-3.9c0.9-0.4,1.5-0.4,2-0.4
					c0.4,0.4,1.1,1.5,1.4,1.9L305.7,508.7z"/>
				<path class="st0" d="M313.6,505.2c-0.9-1-2-1.5-3-1c-0.7,0.3-1,1.1-0.7,1.9c0.4,0.8,1.4,0.9,2.5,0.8c1.8-0.1,3.2,0.1,3.9,1.5
					c0.9,1.8-0.5,3.5-2.1,4.3c-1.1,0.5-2.2,0.6-2.7,0.4c-0.3-0.2-1.1-1.5-1.5-2.2l0.5-0.3c1,1.1,2.5,1.9,3.7,1.3
					c0.7-0.3,1.1-1.2,0.8-2c-0.4-0.8-1.1-1-2.4-1c-1.4,0-3.2,0-3.9-1.6c-0.7-1.4,0-3.1,2-4c0.9-0.4,1.5-0.5,2-0.5
					c0.4,0.3,1.2,1.4,1.5,1.9L313.6,505.2z"/>
				<path class="st0" d="M319.4,499.1c2.5-1.3,5.5-0.4,6.7,1.9c1.7,3.1,0,5.8-2,6.8c-2.9,1.5-5.6,0.3-6.8-1.8
					C315.6,502.9,317.5,500.1,319.4,499.1L319.4,499.1z M319.5,499.9c-1.2,0.6-1.6,2.3-0.4,4.4c1.3,2.4,3.3,3.6,4.9,2.7
					c1.2-0.6,1.8-1.9,0.3-4.5C323,500.2,321.2,499,319.5,499.9L319.5,499.9z"/>
				<path class="st0" d="M337,497.8c-0.2,1.6-1,3.2-2.1,3.9c-2.5,1.5-5.1,0.5-6.3-1.4c-0.9-1.4-1-3-0.3-4.7c0.6-1.4,1.6-2.4,2.3-2.8
					l0,0c0.8-0.5,1.6-0.6,2-0.6c0.4,0,0.5,0.2,0.7,0.4c0.3,0.4,0.1,1.1-0.1,1.2c-0.1,0.1-0.2,0.1-0.5,0c-1-0.2-1.8,0-2.5,0.4
					c-1.2,0.7-1.7,2.3-0.5,4.2c1.6,2.5,4,2.2,5,1.5c0.8-0.5,1.3-1.1,1.7-2.4L337,497.8z"/>
				<path class="st0" d="M333,487.6c-0.4-0.6-0.2-1.3,0.3-1.7c0.6-0.4,1.3-0.2,1.7,0.3c0.4,0.5,0.2,1.2-0.3,1.6
					C334.1,488.2,333.4,488.1,333,487.6z M339.3,498.6l-0.3-0.5c1.1-0.9,1.1-1.1,0.3-2.3l-2.5-3.6c-0.8-1.1-0.9-1.2-2.1-0.6
					l-0.3-0.4c0.9-0.8,1.7-1.7,2.3-2.6l4.2,6c0.9,1.2,1,1.2,2.3,0.6l0.3,0.5L339.3,498.6z"/>
				<path class="st0" d="M351,490.7c-0.3,0.3-0.8,0.4-1.2,0.3c-0.4,0-0.7-0.2-1-0.4c-0.4,1-0.8,2.2-1.3,2.6c-1.3,1-3,0.6-3.9-0.4
					c-0.7-0.9-0.6-1.7,0.2-2.8c0.9-1.2,1.8-2.6,1.9-3.2l-0.2-0.3c-0.9-1.2-2-1.5-2.9-0.8c-0.3,0.2-0.5,0.5-0.5,0.9
					c-0.1,0.4,0.1,0.9,0.3,1.6c0.1,0.4,0,0.6-0.3,0.9c-0.4,0.3-1.1,0.3-1.4-0.1c-0.2-0.3-0.1-0.6,0-1.1c0.2-0.7,1-2.3,1.8-3.3
					c0.6-0.4,1.2-0.7,1.8-0.7c1.1,0,1.8,0.6,2.5,1.5l2.4,3.1c0.6,0.8,1.1,0.8,1.4,0.5c0.2-0.2,0.4-0.4,0.5-0.7l0.5,0.3L351,490.7z
					 M346.2,487.4c-0.2,0.4-0.7,1.3-1,1.8c-0.5,0.8-0.6,1.4-0.1,2.1c0.7,0.9,1.7,0.8,2.2,0.4c0.4-0.3,0.8-1,0.9-1.5L346.2,487.4z"/>
				<path class="st0" d="M356.7,485.6c-0.2,0.4-0.4,0.7-0.5,0.8c-1.2,1-2.3,0.9-3.5-0.5l-4-4.7l-1.2,1l-0.2-0.1l0.1-0.9l0.8-0.6
					l-1-1.2l0.3-2.2l0.3-0.1l2,2.3l1.9-1.6c0.3,0,0.6,0.4,0.5,0.8l-1.8,1.5l3.6,4.2c1.1,1.3,1.9,1.1,2.4,0.7
					c0.4-0.3,0.7-0.8,0.8-1.1l0.5,0.3L356.7,485.6z"/>
				<path class="st0" d="M351.2,473.6c-0.5-0.5-0.4-1.3,0.1-1.7c0.5-0.4,1.2-0.4,1.7,0.1c0.4,0.5,0.4,1.2-0.1,1.7
					C352.4,474.1,351.6,474,351.2,473.6z M359,483.7l-0.4-0.4c1-1,1-1.2,0-2.4l-3-3.2c-0.9-1-1.1-1-2.2-0.3l-0.4-0.4
					c0.8-0.9,1.4-1.9,1.9-2.8l5,5.4c1,1.1,1.2,1.1,2.4,0.2l0.4,0.4L359,483.7z"/>
				<path class="st0" d="M360.9,468.6c2-2,5.1-2.1,7-0.3c2.5,2.4,1.8,5.5,0.2,7.1c-2.3,2.3-5.3,2-7,0.4
					C358.5,473.4,359.4,470.2,360.9,468.6L360.9,468.6z M361.2,469.3c-0.9,0.9-0.8,2.7,1,4.4c2,1.9,4.3,2.4,5.5,1.1
					c0.9-0.9,1.1-2.3-1.1-4.4C364.7,468.6,362.5,468,361.2,469.3L361.2,469.3z"/>
				<path class="st0" d="M377.1,464.9l-0.5-0.4c0.7-1.1,0.7-1.3-0.5-2.2l-2.8-2.2c-1.2-0.9-2.3-1-3.2,0.1c-0.5,0.7-0.6,1.6-0.6,2.5
					l3.9,3.1c1.2,0.9,1.3,0.9,2.2,0l0.5,0.4L373,470l-0.5-0.4c0.8-1.3,0.8-1.4-0.4-2.3l-3.4-2.7c-1.1-0.9-1.3-0.8-2.2,0l-0.4-0.3
					c0.5-0.9,1.1-2,1.4-3.1l1.4,1.1c0-0.6,0.1-1.1,0.1-1.8c0.1-0.7,0.2-1.3,0.7-1.8c1.1-1.4,2.8-1.5,4.5-0.2l3.2,2.5
					c1.2,0.9,1.3,0.8,2.2-0.1l0.5,0.4L377.1,464.9z"/>
				<path class="st0" d="M378.8,450.6c-1.3-0.3-2.5-0.1-3.1,0.8c-0.4,0.7-0.2,1.5,0.5,1.9c0.8,0.5,1.7,0,2.5-0.6
					c1.5-1.1,2.8-1.6,4.1-0.8c1.7,1.1,1.6,3.2,0.6,4.8c-0.6,1-1.5,1.6-2,1.8c-0.3,0-1.7-0.7-2.5-1.1l0.3-0.6
					c1.5,0.4,3.1,0.3,3.8-0.9c0.4-0.7,0.3-1.6-0.4-2.1c-0.8-0.5-1.5-0.2-2.5,0.5c-1.2,0.8-2.7,1.7-4.1,0.8c-1.3-0.8-1.7-2.6-0.5-4.4
					c0.5-0.8,1-1.2,1.4-1.5c0.5,0.1,1.8,0.6,2.3,0.8L378.8,450.6z"/>
			</g>
		</g>
		<g>
			<g>
				<g>
					<path class="st1" d="M123.1,375c-11.3-19.6-17.3-42-17.3-64.6c0-6.9,0.6-13.9,1.6-20.6c-0.5-1.1-1.1-2.3-1.6-3.4
						c-4.3-9.8-12.4-21.2-20.2-32.3c-9-12.7-17.4-24.6-20.7-34.5c-2.5-7.4-0.1-17.5,0.7-20.8c1.8-7.4,22.1-22.7,42.7-37.8
						c4.6-3.3,8.2-6,10.3-7.7c-2.2-11.7-6.2-23.9-10.1-35.8c-2.7-8.2-5.5-16.6-7.6-24.8c-0.6-2.3-1.3-4.6-2.1-6.9
						c-2.5-7.8-5.1-15.9-2.4-24l0.1-0.2l0.1-0.2c4.8-5.3,11.6-8.1,18.1-10.9c1.6-0.7,3.3-1.4,4.9-2.1c33.9-12.8,74.7-20.8,115-22.4
						c46.4,0,98.1,9.4,135,24.5c1.4,0.6,2.8,1.1,4.4,1.6c5.5,2,11.2,4,14.2,8c4.3,5.7,1.4,14.3-1.6,23.3c-1,3-2,6-2.8,9.1
						c-1.9,7.1-4.2,14.6-6.5,21.8c-4.8,15.5-9.4,30.1-9.6,40.3c1.7,1.1,3.6,2.4,5.7,3.7c19.5,12.6,52,33.6,48.4,56.1
						c-5.4,17.4-16.3,32.9-26.8,47.8c-6,8.5-11.7,16.6-16.3,24.8c1.4,7.6,2.1,15.4,2.1,23.2c0,22.2-5.7,44.1-16.6,63.5l-0.7,1.2
						l-1-0.9c-34.1-30.7-67.4-51.1-119.2-51.1c-53.4,0-89.2,27-118.6,52.3l-1,0.9L123.1,375z"/>
					<path class="st2" d="M234.8,27.2c44.6,0,96.1,8.7,134.5,24.4c6.1,2.5,14.5,4.5,18.1,9.3c5.2,7-1.2,18.9-4.6,31.5
						c-6,22.5-16.1,47.8-16.1,62.9c16.6,11.1,58,34.7,54,59c-8.3,26.9-30.5,49.7-43.2,72.6c1.4,7.6,2.1,15.4,2.1,23.4
						c0,22.8-6,44.9-16.4,63.6c-34.6-31.2-68.2-52.1-120-52.1c-51.3,0-85.9,23.8-119.3,52.6c-10.9-19-17.1-40.8-17.1-64.1
						c0-7.1,0.6-14,1.7-20.8c-0.6-1.2-1.1-2.4-1.7-3.7c-9.1-20.9-34.7-48.2-40.9-66.7c-2.2-6.6-0.4-15.4,0.7-20.2
						c2.4-10.1,44.8-38.3,53.2-45.3c-3.6-20-12.6-41.1-17.8-61.3c-2.6-10-7.9-20.2-4.5-30.3c5.9-6.4,14.7-9.1,22.6-12.7
						C151.6,37.7,191.7,29,234.8,27.2 M234.8,25.1L234.8,25.1L234.8,25.1c-40.5,1.7-81.4,9.7-115.4,22.5l-0.1,0l-0.1,0
						c-1.6,0.7-3.2,1.4-4.9,2.1c-6.6,2.8-13.5,5.7-18.5,11.1l-0.3,0.3l-0.1,0.4c-2.8,8.4-0.2,16.6,2.4,24.6c0.7,2.3,1.5,4.6,2.1,6.8
						c2.1,8.2,4.9,16.7,7.6,24.9c3.8,11.6,7.8,23.6,9.9,35c-2.1,1.7-5.6,4.2-9.8,7.3c-21.7,15.8-41.3,30.6-43.1,38.4
						c-0.8,3.4-3.3,13.6-0.7,21.4c3.4,10,11.9,22,20.9,34.8c7.8,11,15.8,22.4,20.1,32.1c0.5,1.1,0.9,2.1,1.4,3.2
						c-1.1,6.7-1.6,13.6-1.6,20.4c0,22.8,6,45.4,17.4,65.1l1.3,2.3l2-1.7c37.3-32.1,70-52,117.8-52c51.5,0,84.6,20.3,118.5,50.9
						l2.1,1.9l1.3-2.4c10.9-19.5,16.7-41.6,16.7-64c0-7.8-0.7-15.5-2-23c4.5-8.1,10.1-16,16-24.4c10.6-15,21.5-30.6,26.9-48l0-0.1
						l0-0.1c3.8-23.1-29.2-44.4-48.8-57.1c-1.9-1.2-3.6-2.3-5.2-3.4c0.3-10,4.8-24.3,9.5-39.4c2.3-7.2,4.6-14.7,6.5-21.9
						c0.8-3.1,1.8-6.1,2.8-9c3.1-9.3,6-18.1,1.4-24.2c-3.2-4.3-9.3-6.5-14.7-8.4c-1.5-0.6-3-1.1-4.3-1.6
						C333.1,34.5,281.3,25.1,234.8,25.1z"/>
					<path class="st3" d="M243.3,321.9c1.9,0,3.7,0,5.5,0.1c-1.8,0.3-3.6,0.5-5.4,0.5c-1.9,0-3.7-0.2-5.5-0.5
						C239.7,321.9,241.5,321.9,243.3,321.9z"/>
					<path class="st3" d="M353.9,216.1c0,5.2-0.4,10.3-1.2,15.2c-24.9-32.2-64.6-53.1-109.3-53.1c-44.6,0-84.2,20.7-109.1,52.8
						c-0.8-4.9-1.2-9.9-1.2-14.9c0-55.9,49.4-101.2,110.4-101.2C304.5,114.9,353.9,160.2,353.9,216.1z"/>
					<path class="st4" d="M244.7,216.8l-0.2-1c0-0.2-1-5.1-0.9-19c0.1-17.3,18.3-19.7,18.5-19.8l1-0.1l0.1,1c0,0.4,0.8,8.8-2,19.2
						c-3.2,11.5-8.3,17.9-15.5,19.5L244.7,216.8z M261.3,179.2c-3.7,0.7-15.6,4.2-15.7,17.7c-0.1,10.2,0.3,13.1,0.6,15.1
						c5.9-1.8,9.6-5.7,13-15.7C261.8,188.4,261.4,181.7,261.3,179.2z"/>
					<path class="st5" d="M244.9,195c-0.1,13.6,0.9,18.2,0.9,18.2c7.7-1.7,11.8-9.3,14.3-18.2c2.8-10,1.9-18.3,1.9-18.3
						S245,178.8,244.9,195z"/>
					<path class="st4" d="M245.5,178.7l-0.2-0.8c0-0.2-0.8-4.3-0.7-15.9c0.1-14.5,14.7-16.5,14.8-16.6l0.8-0.1l0.1,0.8
						c0,0.3,0.7,7.3-1.6,16c-2.6,9.6-6.6,15-12.4,16.4L245.5,178.7z M246.3,161.9L246.3,161.9c-0.1,8.6,0.2,11.7,0.4,13.5
						c4.7-1.5,8.2-5.1,10.5-13.7c1.8-6.7,1.7-12.5,1.6-14.6C255.8,147.7,246.3,150.6,246.3,161.9z"/>
					<path class="st5" d="M245.4,160.6c-0.1,11.4,0.7,15.3,0.7,15.3c6.2-1.5,9.5-7.8,11.4-15.3c2.2-8.4,1.6-15.3,1.6-15.3
						S245.5,147,245.4,160.6z"/>
					<path class="st4" d="M240.9,216.5l-1-0.2c-6.6-1.6-11.3-7.8-14.2-19c-2.7-10.1-1.9-18.3-1.9-18.6l0.1-0.9l1,0.1
						c0.2,0,16.9,2.3,17.1,19.2c0.1,13.5-0.8,18.3-0.8,18.5L240.9,216.5z M225.6,179.9c-0.1,2.5,0.1,9.2,2.3,16.9
						c2.7,9.3,6.3,13.4,11.7,15.2c0.2-2,0.5-4.9,0.4-14.9C239.9,184,229,180.6,225.6,179.9z"/>
					<path class="st5" d="M240.7,195.2c0.1,13.2-0.8,17.8-0.8,17.8c-7.1-1.7-10.9-9.1-13.2-17.8c-2.6-9.8-1.8-17.8-1.8-17.8
						S240.6,179.5,240.7,195.2z"/>
					<path class="st4" d="M240.9,180.2L240,180c-6-1.4-10.2-7-12.9-17.1c-2.4-9.1-1.7-16.5-1.7-16.8l0.1-0.9l0.9,0.1
						c0.2,0,15.3,2.1,15.4,17.3c0.1,12.2-0.7,16.5-0.8,16.6L240.9,180.2z M227.1,147.2c-0.1,2.2-0.1,8.3,1.7,15.3
						c2.3,8.9,6,12.2,10.9,13.8c0.2-1.8,0.5-4.7,0.4-13.6C240,150.9,230.2,147.9,227.1,147.2z"/>
					<path class="st5" d="M240.3,161.4c0.1,11.9-0.7,16-0.7,16c-6.4-1.5-9.8-8.2-11.9-16c-2.3-8.8-1.6-16-1.6-16
						S240.2,147.2,240.3,161.4z"/>
					<polygon class="st2" points="250.4,321.3 243.9,321.3 241,253.2 247.2,253.2 					"/>
					<path class="st2" d="M172.6,244.5c-0.1,14.1,5.9,23.5,5.9,23.5c5.9-5.8,8-11.7,8.7-21.5c0.7-10.8-1.2-21.5-1.2-21.5
						S172.8,227.7,172.6,244.5z"/>
					<path class="st2" d="M181.6,292.4c4.1,14.6,7.3,38.5,7.3,38.5l5.8-1.2c0.3-8.2-3.8-24.5-5.9-33.9c-2.6-11.4-8.7-26.2-8.7-26.2
						l-4.9,0.6C175,270.1,178,279.8,181.6,292.4z"/>
					<path class="st5" d="M172.9,242.4c-0.1,12.9,5.4,21.6,5.4,21.6c5.4-5.3,7.3-10.8,7.9-19.7c0.7-9.9-1.1-19.7-1.1-19.7
						S173,227,172.9,242.4z"/>
					<path class="st2" d="M164.5,211.4c-0.1,15.5,4.2,24,4.2,24c5.8-5.3,8-16.5,8.5-24.4c0.9-11.5-2.3-19.7-2.3-19.7
						S164.7,192.8,164.5,211.4z"/>
					<path class="st5" d="M165.5,209c-0.1,13.2,3.6,20.4,3.6,20.4c4.9-4.5,6.8-14,7.2-20.7c0.8-9.8-2-16.7-2-16.7
						S165.6,193.3,165.5,209z"/>
					<path class="st2" d="M167.5,251.4c8,12.6,6.2,18,6.2,18c-4.3,0-11.5,1.6-16.9-6.4c-5.7-8.6-8-18.6-8-18.6
						S158.4,237.2,167.5,251.4z"/>
					<path class="st5" d="M165.7,249.9c7.2,11.3,5.6,16.2,5.6,16.2c-3.9,0-10.4,1.4-15.2-5.8c-5.1-7.8-7.2-16.8-7.2-16.8
						S157.4,237.1,165.7,249.9z"/>
					<path class="st2" d="M151.3,191.2c3.7,14.4,1.2,11.8,1.2,11.8c-7.1-1.7-6.7-0.4-13.9-7.9c-6-8.4-7.3-15.6-7.3-15.6
						S144.2,177.1,151.3,191.2z"/>
					<path class="st5" d="M150.2,189.8c3.3,12.6,1.1,10.4,1.1,10.4c-6.2-1.5-5.9-0.4-12.2-7c-5.3-7.3-6.4-13.8-6.4-13.8
						S144,177.4,150.2,189.8z"/>
					<path class="st2" d="M159.9,222.9c5.9,13.9,4.6,15.7,4.6,15.7c-9.1-2.1-10.6-1.3-16.6-10.6c-5.6-8.7-9-17-9-17
						S152.4,205,159.9,222.9z"/>
					<path class="st5" d="M157.7,220.8c5.3,12.4,4.1,14,4.1,14c-8.1-1.9-9.5-1.2-14.9-9.5c-5-7.8-8-15.2-8-15.2
						S151,204.8,157.7,220.8z"/>
					<path class="st2" d="M315.2,243.6c0.1,14.1-5.9,23.5-5.9,23.5c-5.9-5.8-8-11.7-8.7-21.5c-0.7-10.8,1.2-21.5,1.2-21.5
						S315,226.8,315.2,243.6z"/>
					<path class="st2" d="M306.2,291.5c-4.1,14.5-7.3,38.5-7.3,38.5l-5.8-1.2c-0.3-8.2,3.8-24.5,5.9-33.9
						c2.6-11.4,8.8-26.2,8.8-26.2l5,0.6C312.8,269.2,309.8,278.9,306.2,291.5z"/>
					<path class="st5" d="M305.5,291c-4,14.1-7,37.2-7,37.2l-5.6-1.2c-0.3-7.9,3.7-23.7,5.7-32.8c2.5-11,8.5-25.3,8.5-25.3l4.8,0.5
						C311.8,269.5,309,278.8,305.5,291z"/>
					<path class="st5" d="M314.9,241.5c0.1,12.9-5.4,21.6-5.4,21.6c-5.4-5.3-7.4-10.8-8-19.7c-0.7-9.9,1.1-19.7,1.1-19.7
						S314.8,226.1,314.9,241.5z"/>
					<path class="st2" d="M323.3,210.5c0.1,15.5-4.2,24-4.2,24c-5.8-5.3-8.1-16.5-8.5-24.4c-0.9-11.5,2.3-19.7,2.3-19.7
						S323.1,191.9,323.3,210.5z"/>
					<path class="st5" d="M322.3,208.1c0.1,13.2-3.6,20.4-3.6,20.4c-4.9-4.5-6.8-14-7.2-20.7c-0.8-9.8,2-16.7,2-16.7
						S322.2,192.4,322.3,208.1z"/>
					<path class="st2" d="M320.3,250.5c-8.1,12.6-6.2,18-6.2,18c4.3,0,11.6,1.6,16.9-6.4c5.7-8.6,8-18.6,8-18.6
						S329.4,236.2,320.3,250.5z"/>
					<path class="st5" d="M322.1,249c-7.8,11-5.6,16.2-5.6,16.2c3.9,0,10.4,1.4,15.2-5.8c5.1-7.8,6.7-16.5,6.7-16.5
						S329.3,239,322.1,249z"/>
					<path class="st2" d="M336.5,190.3c-3.7,14.4-1.2,11.8-1.2,11.8c7.1-1.7,6.7-0.4,13.9-7.9c6-8.3,7.3-15.6,7.3-15.6
						S343.7,176.2,336.5,190.3z"/>
					<path class="st5" d="M337.6,188.9c-3.3,12.7-1.1,10.4-1.1,10.4c6.2-1.5,5.9-0.4,12.3-7c5.3-7.3,6.5-13.8,6.5-13.8
						S343.9,176.5,337.6,188.9z"/>
					<path class="st2" d="M327.9,222c-5.9,13.9-4.6,15.7-4.6,15.7c9.1-2.1,10.7-1.3,16.7-10.6c5.6-8.7,9-17,9-17
						S335.5,204.1,327.9,222z"/>
					<path class="st5" d="M330.1,219.9c-5.3,12.4-4.1,14-4.1,14c8.1-1.9,9.5-1.2,14.9-9.5c5-7.8,8-15.2,8-15.2
						S336.9,203.9,330.1,219.9z"/>
					<path class="st6" d="M278.3,282c-1.8,16.5-1,43-1,43l-5.9-0.4c-1.6-8.8-0.2-27.3,0.4-37.8c0.7-12.8,4.5-29.9,4.5-29.9l5-0.2
						C281.2,256.7,279.8,267.8,278.3,282z"/>
					<path class="st7" d="M277.1,280.8c-1.5,15.5-0.9,40.4-0.9,40.4l-5.3-0.6c-0.8-9.1,0.2-25.6,0.7-35.5c0.6-12.1,3.8-28,3.8-28
						l4.2,0C279.6,257.1,278.4,267.5,277.1,280.8z"/>
					<path class="st6" d="M278.5,231.6c2.4,14.2-1.7,24.7-1.7,24.7c-6.5-5-9.5-10.7-11.7-20.5c-2.5-10.8-2.4-22-2.4-22
						S275.6,214.6,278.5,231.6z"/>
					<path class="st7" d="M277.9,229.5c2.2,13.1-1.6,22.6-1.6,22.6c-6-4.6-8.7-9.8-10.8-18.8c-2.3-9.9-2.2-20.1-2.2-20.1
						S275.3,213.9,277.9,229.5z"/>
					<path class="st6" d="M281.9,196.7c1.9,15.6-1.9,24.7-1.9,24.7c-6.9-4.7-10.7-15.7-12.1-23.6c-2.3-11.5,0.3-20.1,0.3-20.1
						S279.6,178,281.9,196.7z"/>
					<path class="st7" d="M280.5,194.4c1.6,13.2-1.6,20.9-1.6,20.9c-5.8-3.9-9-13.3-10.3-20c-2-9.8,0.2-17.1,0.2-17.1
						S278.6,178.6,280.5,194.4z"/>
					<path class="st6" d="M287,165.3c2.5,13.5-1.2,20.2-1.2,20.2c-6.3-3.2-8.6-8.5-11.1-18.6c-2.5-10.2,0.2-15.9,0.2-15.9
						S284.2,150.3,287,165.3z"/>
					<path class="st7" d="M286.3,163.8c1.8,10.5-1.5,17.3-1.5,17.3c-4.9-2.5-7.3-8-9.3-15.8c-1.9-7.9,0.2-14.2,0.2-14.2
						S284.1,151.2,286.3,163.8z"/>
					<path class="st6" d="M284.1,235.6c-6.1,15.1-3.2,20.7-3.2,20.7c4.5-0.7,12.2-0.1,16.3-9.7c4.3-10.4,5-21.7,5-21.7
						S291,218.5,284.1,235.6z"/>
					<path class="st7" d="M285.8,233.7c-5.5,13.6-2.9,18.6-2.9,18.6c4-0.6,11,0,14.7-8.8c3.9-9.3,4.5-19.5,4.5-19.5
						S292,218.3,285.8,233.7z"/>
					<path class="st6" d="M293.8,166.2c-1.8,3-2.6,6.5-2.8,10c-0.7,11.7,1.1,9.1,1.1,9.1c6.4-3.6,6.8-1.5,12.9-10.8
						c4.7-10,4.8-18.2,4.8-18.2S299.7,156,293.8,166.2z"/>
					<path class="st7" d="M294.6,164.7c-1.7,2.8-2.6,6.1-2.8,9.4c-0.6,10.2,1,8.1,1,8.1c4.5-2.4,5.8-1.6,10.7-8.8
						c0.4-0.6,0.8-1.3,1.1-2c3.7-8.3,3.7-15.1,3.7-15.1S299.8,156.2,294.6,164.7z"/>
					<path class="st6" d="M287.9,204.7c-3.6,15.7-2,17.4-2,17.4c8.9-3.6,10.6-3,15.1-13.9c4.2-10.1,6.2-19.5,6.2-19.5
						S292.6,184.5,287.9,204.7z"/>
					<path class="st7" d="M289.8,202.1c-3.2,14-1.8,15.5-1.8,15.5c7.9-3.2,9.5-2.7,13.5-12.4c3.7-9,5.5-17.4,5.5-17.4
						S294,184,289.8,202.1z"/>
					<path class="st6" d="M210.5,283c1.8,16.3,1,42.5,1,42.5l6-0.4c1.6-8.8,0.2-27-0.4-37.4c-0.7-12.7-4.5-29.5-4.5-29.5l-5.1-0.2
						C207.5,258,208.9,268.9,210.5,283z"/>
					<path class="st7" d="M211.7,281.8c1.5,15.3,1,40,1,40l5-0.6c1.4-8.3,0.1-25.4-0.4-35.2c-0.6-11.9-3.8-27.6-3.8-27.6l-4.3,0
						C209.2,258.4,210.4,268.6,211.7,281.8z"/>
					<path class="st6" d="M152.9,309.1c6.1,12.4,12.6,33.4,12.6,33.4l5.2-1.9c-0.9-7.4-7.3-21.4-10.7-29.5
						c-4.1-9.9-12.1-22.2-12.1-22.2l-4.5,1.2C143.4,290.1,147.7,298.4,152.9,309.1z"/>
					<path class="st7" d="M153.7,307.9c5.6,11.7,11.8,31.4,11.8,31.4l4.4-1.8c-1.1-6.9-6.9-20.1-10-27.7c-3.8-9.3-11-20.9-11-20.9
						L145,290C145,290,148.9,297.7,153.7,307.9z"/>
					<path class="st6" d="M209.7,232.3c-2.9,13.8,1.1,24,1.1,24c6.9-4.8,10.1-10.3,12.7-19.8c2.8-10.5,3.1-21.3,3.1-21.3
						S213.2,215.8,209.7,232.3z"/>
					<path class="st7" d="M210.4,230.3c-2.7,12.7,1,22,1,22c6.3-4.4,9.3-9.5,11.7-18.2c2.6-9.6,2.8-19.6,2.8-19.6
						S213.6,215.1,210.4,230.3z"/>
					<path class="st6" d="M204.8,197.5c-1.9,15.1,1.8,23.9,1.8,23.9c6.9-4.5,10.7-15.1,12.1-22.8c2.4-11.1-0.2-19.5-0.2-19.5
						S207.1,179.5,204.8,197.5z"/>
					<path class="st7" d="M206.2,195.4c-1.6,12.8,1.5,20.2,1.5,20.2c5.8-3.8,9.1-12.8,10.3-19.3c2-9.4-0.2-16.5-0.2-16.5
						S208.1,180.1,206.2,195.4z"/>
					<path class="st6" d="M200.6,166.5c-1.6,14,1.8,18.9,1.8,18.9c6.3-3.3,8.1-7.1,10.2-17.5c1.9-10.7,0.3-17.7,0.3-17.7
						S202.5,150,200.6,166.5z"/>
					<path class="st7" d="M201.2,164.3c-1.5,10.8,1.5,16.5,1.5,16.5c4.9-2.6,7-6.7,8.6-14.8c2.3-8.1-0.2-15.3-0.2-15.3
						S203.1,151.2,201.2,164.3z"/>
					<path class="st6" d="M203.6,236c5.8,14.1,3,19.4,3,19.4c-4.3-0.6-11.7,0-15.6-9.1c-4.1-9.7-4.7-20.3-4.7-20.3
						S197,220,203.6,236z"/>
					<path class="st7" d="M202,234.2c5.2,12.7,2.7,17.4,2.7,17.4c-3.9-0.6-10.6,0-14-8.2c-3.7-8.7-4.3-18.3-4.3-18.3
						S196.1,219.8,202,234.2z"/>
					<path class="st6" d="M197.8,172.8c1.4,16.9-0.8,13.7-0.8,13.7c-7.3-3.1-7.1-1.6-13.6-11.3c-4.9-10.5-5-19-5-19
						S192.7,155.7,197.8,172.8z"/>
					<path class="st7" d="M196.9,171c1.2,14.9-0.7,12-0.7,12c-6.4-2.7-6.2-1.4-11.9-10c-4.3-9.2-4.4-16.7-4.4-16.7
						S192.5,155.9,196.9,171z"/>
					<path class="st6" d="M200.7,205.9c3.6,15.7,2,17.4,2,17.4c-9-3.6-10.7-3-15.3-13.9c-4.2-10.1-6.3-19.5-6.3-19.5
						S196,185.7,200.7,205.9z"/>
					<path class="st7" d="M198.8,203.3c3.3,14,1.8,15.5,1.8,15.5c-8-3.2-9.6-2.7-13.7-12.4c-3.8-9-5.6-17.4-5.6-17.4
						S194.6,185.3,198.8,203.3z"/>
					<path class="st6" d="M334.3,308.9c-5.9,12.1-12.2,32.5-12.2,32.5l-5.1-1.8c0.9-7.2,7-20.9,10.3-28.8c4-9.6,11.8-21.6,11.8-21.6
						l4.4,1.1C343.5,290.3,339.4,298.4,334.3,308.9z"/>
					<path class="st7" d="M333.6,307.7c-5.4,11.4-11.5,30.6-11.5,30.6l-4.2-1.7c1-6.8,6.7-19.6,9.7-27c3.7-9,10.7-20.4,10.7-20.4
						l3.7,1.1C342,290.2,338.2,297.8,333.6,307.7z"/>
					<path class="st6" d="M349.2,264.8c-2.1,13.9-9.6,22.4-9.6,22.4c-4.9-6.6-6.1-12.8-5.2-22.5c1-10.8,4.6-21.1,4.6-21.1
						S351.8,248.2,349.2,264.8z"/>
					<path class="st7" d="M349.1,263c-1.9,12.7-8.7,20.3-8.7,20.3c-4.5-6-5.5-11.6-4.7-20.5c0.9-9.8,4.2-19.1,4.2-19.1
						S351.5,247.9,349.1,263z"/>
					<path class="st6" d="M362.5,233.7c-2.3,15.4-8.7,23-8.7,23c-5.8-6.2-6.7-17.7-6-25.6c0.8-11.6,6.4-18.2,6.4-18.2
						S364.1,217.3,362.5,233.7z"/>
					<path class="st7" d="M361.8,231.2c-2,13-7.4,19.5-7.4,19.5c-4.9-5.3-5.7-15-5.1-21.7c0.6-9.8,4.9-16.2,4.9-16.2
						S363.1,216.8,361.8,231.2z"/>
					<path class="st6" d="M353.9,272.7c-10.5,11.7-9.4,17.5-9.4,17.5c4.5,0.7,11.8,3.5,18.6-4c7.4-8,11.5-17.9,11.5-17.9
						S365.8,259.5,353.9,272.7z"/>
					<path class="st7" d="M356.1,271.5c-9.4,10.5-8.5,15.7-8.5,15.7c4.1,0.6,10.6,3.1,16.8-3.6c6.6-7.2,10.3-16.1,10.3-16.1
						S366.8,259.6,356.1,271.5z"/>
					<path class="st6" d="M363.2,247c-8.1,12.2-7.1,14.1-7.1,14.1c9.6-0.6,11.1,0.4,18.6-7.5c7-7.4,11.7-14.7,11.7-14.7
						S373.6,231.3,363.2,247z"/>
					<path class="st7" d="M365.7,245.4c-7.3,10.9-6.3,12.6-6.3,12.6c8.5-0.5,9.9,0.4,16.6-6.7c6.3-6.6,10.5-13.2,10.5-13.2
						S375.1,231.3,365.7,245.4z"/>
					<path class="st6" d="M138.1,264.5c2.2,13.9,9.7,22.4,9.7,22.4c4.9-6.6,6.1-12.8,5.2-22.5c-1-10.8-4.7-21-4.7-21
						S135.5,247.9,138.1,264.5z"/>
					<path class="st7" d="M138.2,262.8c2,12.6,8.8,20.3,8.8,20.3c4.5-6,5.6-11.6,4.7-20.5c-0.9-9.8-4.3-19.1-4.3-19.1
						S135.9,247.7,138.2,262.8z"/>
					<path class="st6" d="M125.1,233.9c2.4,15.4,8.8,23,8.8,23c5.9-6.2,6.8-17.7,6.1-25.6c-0.8-11.5-5.9-19.1-5.9-19.1
						S122.3,215.6,125.1,233.9z"/>
					<path class="st7" d="M125.9,231.4c2,13,7.5,19.5,7.5,19.5c5-5.3,5.8-15,5.1-21.7c-0.6-9.8-5-16.2-5-16.2
						S123.5,215.9,125.9,231.4z"/>
					<path class="st6" d="M133.8,272c10.6,11.7,9.5,17.5,9.5,17.5c-4.6,0.7-11.9,3.5-18.9-4c-7.4-8-11.6-17.9-11.6-17.9
						S121.8,258.8,133.8,272z"/>
					<path class="st7" d="M131.6,270.8c9.5,10.5,8.6,15.7,8.6,15.7c-4.1,0.6-10.7,3.1-17-3.6c-6.7-7.2-10.4-16.1-10.4-16.1
						S120.8,258.9,131.6,270.8z"/>
					<path class="st6" d="M111.9,217.5c6.2,15,3.2,12.6,3.2,12.6c-7.7-0.6-7.1,0.7-16-6.2c-7.7-8-10.3-15.7-10.3-15.7
						S102.1,203.5,111.9,217.5z"/>
					<path class="st7" d="M110.5,216.2c5.5,13.2,2.8,11.1,2.8,11.1c-6.8-0.6-6.3,0.6-14.1-5.5c-6.8-7.1-9-13.8-9-13.8
						S101.9,203.8,110.5,216.2z"/>
					<path class="st6" d="M123.5,246.8c8.2,12.2,7.1,14.1,7.1,14.1c-9.7-0.6-11.2,0.4-18.8-7.5c-7.1-7.4-11.9-14.7-11.9-14.7
						S113,231,123.5,246.8z"/>
					<path class="st7" d="M120.9,245.1c7.3,10.9,6.4,12.7,6.4,12.7c-8.7-0.5-10,0.4-16.8-6.7c-6.3-6.6-10.6-13.2-10.6-13.2
						S111.5,231,120.9,245.1z"/>
					<path class="st4" d="M246.3,251.6l-0.2-0.9c0-0.2-1-4.9-0.9-18.4c0.1-16.8,17.6-19.1,17.8-19.2l1-0.1l0.1,1
						c0,0.3,0.8,8.5-2,18.6c-3.1,11.2-7.9,17.3-14.9,18.9L246.3,251.6z M247.2,232.2c-0.1,9.9,0.4,13.1,0.7,15.1
						c5.6-1.8,9.7-5.5,12.4-15.4c2.1-7.7,2.1-14.5,2-16.9C258.7,215.8,247.3,219.1,247.2,232.2z"/>
					<path class="st5" d="M246.2,230.9c-0.1,13.2,0.8,17.7,0.8,17.7c7.4-1.7,11.4-9.1,13.7-17.7c2.7-9.7,1.9-17.7,1.9-17.7
						S246.3,215.2,246.2,230.9z"/>
					<path class="st4" d="M242.1,251.2l-0.9-0.2c-6.5-1.5-11.1-7.4-14-18c-2.6-9.6-1.9-17.4-1.8-17.7l0.1-0.9l0.9,0.1
						c0.2,0,16.7,2.2,16.8,18.3c0.1,12.9-0.8,17.4-0.8,17.6L242.1,251.2z M227,216.3c-0.1,2.4-0.2,8.8,1.9,16.1
						c2.6,9.4,6.1,13.5,11.4,15.2c0.2-1.9,1.1-5.6,1-15C241.2,220.2,230.4,217,227,216.3z"/>
					<path class="st5" d="M241.9,231.4c0.1,12.6-0.8,16.9-0.8,16.9c-7-1.6-10.7-8.6-13-16.9c-2.5-9.3-1.8-16.9-1.8-16.9
						S241.8,216.4,241.9,231.4z"/>
					<path class="st5" d="M181.7,291c4,14.1,7,37.2,7,37.2l5.6-1.2c0.3-7.9-3.7-23.7-5.7-32.8c-2.5-11-8.5-25.3-8.5-25.3l-4.8,0.5
						C175.3,269.5,178.2,278.8,181.7,291z"/>
					<polygon class="st5" points="250,317.9 244,317.9 241.5,253.2 247,253.2 					"/>
					<path class="st2" d="M334.9,187.2c-3.9,16.8-4.8,13.1-4.8,13.1c-5.3-4.5-5.6-3-8.2-13.8c-1.1-11.2,1.4-19.6,1.4-19.6
						S335.7,169.4,334.9,187.2z"/>
					<path class="st5" d="M334.7,185.3c-3.5,14.8-4.2,11.6-4.2,11.6c-4.7-4-4.9-2.7-7.2-12.2c-1-9.9,1.2-17.2,1.2-17.2
						S335.4,169.6,334.7,185.3z"/>
					<path class="st2" d="M152.7,187.3c4.4,16.8,5.2,13.1,5.2,13.1c5.1-4.6,5.4-3.1,7.6-13.9c0.7-11.3-2.1-19.6-2.1-19.6
						S151.3,169.5,152.7,187.3z"/>
					<path class="st5" d="M152.9,185.4c3.9,14.8,4.6,11.6,4.6,11.6c4.5-4,4.7-2.7,6.6-12.2c0.6-9.9-1.8-17.2-1.8-17.2
						S151.6,169.7,152.9,185.4z"/>
					<path class="st6" d="M113.8,217.5c6.5,13.6,6.8,9.7,6.8,9.7c4.4-7.1,4.9-5.9,5.6-17.4c-0.8-11.1-4.5-17.5-4.5-17.5
						S110.2,201.3,113.8,217.5z"/>
					<path class="st7" d="M113.7,215.5c5.7,12,6,8.5,6,8.5c3.9-6.3,4.3-5.2,5-15.3c-0.7-9.8-4-15.4-4-15.4S110.5,201.3,113.7,215.5z
						"/>
					<path class="st1" d="M382.3,414.3c0,28.8-59.1,89.9-139.2,89.9c-80.1,0-132.7-61.3-138.1-90.1c-5.5-29,57-90.2,137.1-91.5
						C323.5,321.3,382.3,383.4,382.3,414.3z"/>
					<path class="st7" d="M382.3,414.3l-1.1,0l0,0c0,6.9-3.6,15.9-10.3,25.6c-10.1,14.5-27.1,30.3-49.1,42.5
						c-22,12.2-48.9,20.7-78.7,20.7c-39.7,0-72.7-15.2-96.4-34c-11.8-9.4-21.4-19.7-28.2-29.4c-6.9-9.7-11.1-18.8-12.4-25.8
						c-0.2-1.1-0.3-2.3-0.3-3.5c0-7.2,3.7-16.2,10.5-25.7c10.2-14.2,27.4-29.2,49.2-40.8c21.8-11.6,48.1-19.8,76.7-20.2
						c0.8,0,1.7,0,2.5,0c39.8,0,73.9,15.2,98.2,34.2c12.1,9.5,21.7,19.9,28.3,29.8c6.6,9.9,10.1,19.3,10.1,26.6L382.3,414.3l1.1,0
						c0-8-3.7-17.6-10.4-27.8c-10.1-15.2-27-31.4-49-43.9c-22-12.4-49-21.1-79.3-21.1c-0.9,0-1.7,0-2.6,0
						c-38.7,0.6-73.2,15.1-98.1,33.2c-12.5,9.1-22.5,19-29.5,28.7c-7,9.7-10.9,19-10.9,26.9c0,1.3,0.1,2.6,0.4,3.9
						c1.4,7.4,5.8,16.7,12.8,26.6c10.5,14.8,27,30.9,48.4,43.3c21.4,12.4,47.8,21.1,78,21.1c40.3,0,75.3-15.4,100.3-34.3
						c12.5-9.5,22.4-19.9,29.3-29.8c6.9-9.9,10.7-19.2,10.7-26.8l0,0L382.3,414.3z"/>
					<path class="st2" d="M158.3,92.7c0.1,0.2,0.2,0.4,0.2,0.6l0.1,0.4l-0.1,0.3l-0.2,0.2l-11.5,5.9l-0.3,0.1l-0.3-0.1l-0.3-0.3
						c-0.1-0.1-0.2-0.3-0.3-0.5c-0.1-0.2-0.2-0.4-0.2-0.5l-0.1-0.4l0.1-0.3l0.2-0.2l4.6-2.3l-8.8-16.1l-2.9,4.6
						c-0.2,0.2-0.3,0.4-0.4,0.5l-0.4,0.1l-0.4-0.3c-0.1-0.1-0.2-0.3-0.4-0.6l-0.2-0.5l-0.1-0.4l0-0.3l0.1-0.3l3.3-5.7l0.1-0.2
						l0.2-0.2l0.3-0.2c0.1-0.1,0.3-0.2,0.5-0.3c0.3-0.1,0.5-0.2,0.7-0.3l0.5-0.1l0.3,0l0.2,0.2l10.2,18.7l4-2l0.3-0.1l0.3,0.1
						l0.3,0.3C158.1,92.3,158.2,92.5,158.3,92.7z"/>
					<path class="st2" d="M174,80.7c0.4,1,0.6,2,0.5,3c0,1-0.3,1.9-0.8,2.7c-0.5,0.8-1.1,1.6-2,2.3c-0.9,0.7-2,1.3-3.3,1.7
						c-0.8,0.3-1.5,0.5-2.2,0.6c-0.7,0.1-1.4,0.2-2,0.2c-0.6,0-1.1,0-1.5,0c-0.4-0.1-0.7-0.1-0.8-0.2l-0.3-0.2l-0.2-0.2l-0.2-0.4
						c-0.1-0.2-0.2-0.4-0.3-0.6c-0.2-0.4-0.2-0.7-0.2-0.9c0-0.2,0.1-0.3,0.3-0.4c0.1,0,0.4,0,0.8,0c0.4,0.1,0.9,0.1,1.5,0.1
						c0.6,0,1.3,0,2-0.1c0.8-0.1,1.5-0.2,2.4-0.6c0.8-0.3,1.5-0.7,2-1.1c0.5-0.4,0.9-0.9,1.2-1.4c0.3-0.5,0.4-1.1,0.4-1.6
						c0-0.6-0.1-1.1-0.3-1.7c-0.2-0.6-0.6-1.2-1.1-1.6c-0.5-0.4-1-0.7-1.7-0.9c-0.7-0.2-1.4-0.2-2.2-0.2c-0.8,0.1-1.7,0.3-2.7,0.6
						l-2.3,0.8l-0.3,0l-0.3-0.1l-0.3-0.3c-0.1-0.1-0.2-0.3-0.3-0.6c-0.1-0.2-0.1-0.4-0.2-0.6l0-0.4l0.1-0.3l0.3-0.2l2-0.7
						c0.8-0.3,1.5-0.6,2-1.1c0.5-0.4,1-0.9,1.3-1.4c0.3-0.5,0.5-1.1,0.5-1.7c0-0.6-0.1-1.2-0.3-1.9c-0.2-0.5-0.4-0.9-0.8-1.2
						c-0.3-0.4-0.7-0.6-1.1-0.8c-0.4-0.2-0.9-0.3-1.5-0.3c-0.6,0-1.1,0.1-1.8,0.3c-0.7,0.3-1.3,0.6-1.8,1c-0.5,0.4-0.9,0.8-1.3,1.2
						s-0.7,0.8-0.9,1.1s-0.4,0.5-0.5,0.5l-0.2,0l-0.2-0.1l-0.2-0.3c-0.1-0.1-0.2-0.4-0.3-0.6l-0.2-0.5l-0.1-0.4l0-0.3l0.1-0.4
						c0.1-0.2,0.2-0.4,0.5-0.7c0.3-0.3,0.6-0.7,1-1.1c0.4-0.4,0.9-0.8,1.6-1.2s1.3-0.7,2.1-1c1.1-0.4,2.1-0.6,3-0.6
						c0.9,0,1.7,0.1,2.5,0.4c0.7,0.3,1.4,0.7,1.9,1.3c0.5,0.6,1,1.3,1.3,2.1c0.3,0.7,0.4,1.4,0.5,2.1c0,0.7,0,1.3-0.2,1.9
						c-0.2,0.6-0.5,1.2-0.9,1.7c-0.4,0.5-0.9,1-1.6,1.4l0,0c0.8-0.2,1.6-0.3,2.4-0.2s1.5,0.2,2.2,0.5c0.7,0.3,1.2,0.7,1.8,1.2
						C173.4,79.4,173.7,80,174,80.7z"/>
					<path class="st2" d="M193.1,74.8c0.3,1.2,0.4,2.4,0.2,3.5c-0.2,1.1-0.6,2.1-1.2,2.9c-0.6,0.9-1.4,1.6-2.4,2.2
						c-1,0.6-2.2,1.1-3.5,1.4c-0.7,0.2-1.5,0.3-2.2,0.4c-0.7,0.1-1.3,0.1-1.9,0.1c-0.6,0-1-0.1-1.4-0.1c-0.4-0.1-0.6-0.1-0.7-0.2
						l-0.3-0.2l-0.2-0.2l-0.2-0.4c-0.1-0.2-0.1-0.3-0.2-0.6c-0.1-0.2-0.1-0.4-0.1-0.6l0-0.4l0.1-0.3l0.2-0.1c0.1,0,0.3,0,0.6,0.1
						c0.3,0.1,0.7,0.2,1.2,0.2c0.5,0.1,1.1,0.1,1.8,0.1c0.7,0,1.5-0.1,2.4-0.3c0.8-0.2,1.6-0.5,2.2-0.9c0.6-0.4,1.2-0.8,1.5-1.3
						c0.4-0.5,0.6-1.1,0.8-1.8c0.1-0.7,0.1-1.5-0.2-2.4c-0.2-0.7-0.5-1.4-0.9-1.9c-0.4-0.5-0.9-0.9-1.5-1.1
						c-0.6-0.3-1.3-0.4-2.1-0.4c-0.8,0-1.8,0.1-2.8,0.4c-0.8,0.2-1.4,0.4-1.9,0.6c-0.5,0.2-1,0.4-1.5,0.5c-0.3,0.1-0.6,0.1-0.8,0
						c-0.2-0.1-0.3-0.4-0.5-0.8l-2.5-9.5c-0.1-0.4-0.1-0.7,0.1-1c0.1-0.2,0.4-0.4,0.7-0.5l10.6-2.7l0.3,0l0.3,0.2l0.2,0.4
						c0.1,0.2,0.1,0.4,0.2,0.6c0.1,0.4,0.1,0.8,0.1,1c-0.1,0.3-0.2,0.4-0.4,0.5l-8.6,2.2l1.8,6.5c0.4-0.2,0.8-0.3,1.2-0.4
						c0.4-0.1,0.9-0.3,1.5-0.4c1.3-0.3,2.5-0.5,3.6-0.4c1.1,0.1,2,0.3,2.8,0.7c0.8,0.4,1.5,1,2.1,1.7
						C192.4,72.9,192.8,73.8,193.1,74.8z"/>
					<path class="st2" d="M211.5,68.1l-0.3-0.3l-0.1-0.4c0-0.2,0-0.5,0-0.9c0-0.3,0.1-0.7,0.2-1c0.1-0.3,0.2-0.6,0.3-0.8
						c0.1-0.2,0.2-0.3,0.4-0.4l0.4,0.1l0.4,0.4c0.4,0.4,0.8,0.9,1.2,1.4c0.4,0.5,0.8,1.1,1.1,1.8s0.6,1.3,0.9,2.1
						c0.3,0.7,0.4,1.5,0.6,2.4c0.1,0.8,0.1,1.6,0.1,2.4c-0.1,0.9-0.2,1.7-0.5,2.6c-0.2,0.9-0.6,1.7-1,2.5c-0.4,0.8-0.9,1.5-1.4,2.2
						c-0.5,0.6-1.2,1.2-1.8,1.6c-0.7,0.4-1.4,0.7-2.2,0.8c-0.8,0.1-1.7,0.1-2.7,0c-1-0.1-2-0.4-3.1-0.8l-0.4-0.2l-0.3-0.2l-0.2-0.3
						c0-0.1-0.1-0.3-0.1-0.5c-0.1-0.5,0-0.8,0.3-0.8c0.1,0,0.3,0,0.5,0.1c0.2,0.1,0.5,0.2,0.9,0.3c0.3,0.1,0.7,0.2,1.1,0.2
						c0.4,0.1,0.9,0.1,1.3,0c0.8-0.1,1.5-0.4,2.2-0.8c0.7-0.4,1.4-0.9,2-1.4c0.6-0.6,1.1-1.2,1.6-1.8c0.5-0.7,0.9-1.3,1.2-1.9
						c0.3-0.6,0.6-1.2,0.7-1.8c0.2-0.5,0.2-1,0.2-1.3c0-0.3-0.2-0.7-0.4-1.2c-0.2-0.5-0.5-1-0.8-1.5c-0.3-0.5-0.7-1-1-1.5
						C212.2,68.9,211.8,68.5,211.5,68.1z"/>
					<path class="st2" d="M227.3,75.1c-0.9,0.1-1.7,0-2.4-0.2c-0.7-0.2-1.3-0.5-1.8-1c-0.5-0.5-0.9-1.1-1.2-1.9
						c-0.3-0.8-0.6-1.7-0.7-2.8c-0.2-1.1-0.4-2.3-0.5-3.5c-0.2-1.2-0.3-2.4-0.5-3.6c-0.2-1.2-0.4-2.3-0.6-3.5
						c-0.2-1.1-0.4-2.2-0.6-3.2c0-0.4,0-0.8,0.1-1.1c0.1-0.4,0.3-0.7,0.5-1.2c0.2-0.4,0.4-0.7,0.5-0.9c0.2-0.2,0.3-0.3,0.4-0.3
						l0.3,0.2c0.2,0.6,0.3,1.2,0.4,1.9c0.1,0.7,0.2,1.4,0.3,2.1l1.6,11.8c0.2,1.4,0.6,2.4,1.3,3.1c0.7,0.7,1.6,0.9,2.8,0.8
						L227.3,75.1z"/>
					<path class="st2" d="M229.6,75.7l0-0.4l0.1-0.4c-0.4,0.1-0.8,0.1-1.2,0.1c-0.4,0-0.9,0.1-1.4,0.1l-0.6-0.1l-0.6-0.2l-0.4-0.4
						c-0.1-0.2-0.2-0.3-0.2-0.5l0-0.9l0.2-0.4l0.5-0.3c0.2-0.1,0.4-0.1,0.6-0.2c0.2,0,0.5-0.1,0.7-0.1c0.3,0,0.5,0,0.8,0
						c0.3,0,0.6,0,0.8,0c0.3,0,0.5,0,0.8-0.1c0.3,0,0.5-0.1,0.7-0.1c0.1-0.6,0.3-1.2,0.5-1.8c0.2-0.6,0.5-1.3,0.8-2
						c0.3-0.7,0.6-1.3,1-2c0.4-0.7,0.7-1.3,1.1-1.9c0.4-0.6,0.8-1.2,1.2-1.7s0.8-1,1.1-1.3l0.5-0.3c0.2,0,0.3,0.1,0.5,0.3
						c0.2,0.2,0.4,0.5,0.6,0.9c0.2,0.4,0.4,0.8,0.6,1.2c0.2,0.4,0.4,0.9,0.5,1.3c0.1,0.5,0.2,1,0.3,1.5c0.1,0.5,0.1,1,0,1.4
						c0,0.4-0.1,0.8-0.3,1.2c-0.1,0.4-0.3,0.8-0.5,1.2c-0.2,0.4-0.4,0.8-0.6,1.2c-0.2,0.4-0.5,0.7-0.7,1c0.5,0,1-0.1,1.5-0.1
						c0.5,0,1.1-0.1,1.6-0.1c0.5,0,1.1-0.1,1.6-0.1c0.5,0,1.1,0,1.6-0.1l-0.2,3.2c-0.5,0-1.2,0-1.9,0.1c-0.7,0-1.4,0.1-2,0.1
						c0.3,0.2,0.5,0.4,0.7,0.6c0.2,0.2,0.4,0.5,0.6,0.8c0.2,0.3,0.3,0.5,0.4,0.8c0.1,0.3,0.1,0.6,0.2,0.9c0,0.7-0.1,1.3-0.3,1.9
						c-0.2,0.6-0.5,1.2-0.8,1.7c-0.3,0.5-0.8,0.9-1.2,1.2c-0.5,0.3-1,0.4-1.5,0.5c-1.1,0-2-0.2-2.8-0.6c-0.8-0.4-1.5-1-2.1-1.7
						c-0.6-0.7-1-1.5-1.4-2.4c-0.3-0.9-0.6-1.8-0.7-2.7l-0.3,0L229.6,75.7z M239.3,78.7c-0.1-0.6-0.4-1.1-0.9-1.5
						c-0.5-0.4-1-0.7-1.7-1c-0.7-0.3-1.4-0.5-2.3-0.6c-0.8-0.1-1.7-0.2-2.5-0.2c0.2,0.6,0.5,1.2,0.9,1.8c0.4,0.6,0.8,1.1,1.3,1.5
						c0.5,0.4,1,0.8,1.7,1c0.6,0.2,1.3,0.4,1.9,0.3c0.5,0,0.9-0.2,1.2-0.4C239.1,79.4,239.3,79.1,239.3,78.7z M235.8,64.4l-0.2,0.1
						c-0.3,0.3-0.7,0.7-1,1.2c-0.4,0.5-0.7,1.1-1.1,1.8c-0.3,0.6-0.7,1.3-0.9,2c-0.3,0.7-0.5,1.3-0.6,1.9c1.7-0.3,3-0.7,3.9-1.2
						c0.9-0.5,1.5-1.1,1.7-1.8c0-0.5-0.1-0.9-0.3-1.4c-0.2-0.5-0.3-0.9-0.5-1.3c-0.2-0.4-0.4-0.7-0.6-0.9S235.9,64.4,235.8,64.4z"/>
					<path class="st2" d="M263.8,67.5c0-0.1,0.1-0.3,0.2-0.6c0.1-0.2,0.3-0.5,0.6-0.9c0.2-0.3,0.4-0.5,0.6-0.7l0.4-0.2l0.3,0.3
						c0.1,0.2,0.2,0.5,0.2,0.8c0.1,0.3,0.2,0.6,0.2,1c0.1,0.3,0.1,0.7,0.1,1.1c0,0.4,0,0.7,0,1.1c0,0.6-0.2,1.2-0.3,1.9
						c-0.2,0.7-0.4,1.3-0.8,1.8c-0.3,0.6-0.7,1-1.1,1.4s-0.9,0.5-1.4,0.5c-0.4,0-0.8-0.1-1.3-0.3c-0.5-0.2-0.9-0.4-1.4-0.7
						c-0.4-0.3-0.8-0.6-1.2-0.9c-0.4-0.3-0.6-0.6-0.8-0.9c-0.4,0.5-0.8,0.8-1.3,1.2c-0.5,0.3-1.1,0.6-1.7,0.7
						c-0.6,0.2-1.2,0.3-1.8,0.4c-0.6,0.1-1.2,0.1-1.8,0c-0.4,0-0.8-0.1-1.1-0.2c-0.3-0.1-0.5-0.2-0.7-0.4l-0.3-0.5
						c-0.1-0.2-0.1-0.4-0.1-0.6l-0.1,0c-0.3,0.3-0.6,0.5-1.1,0.8c-0.5,0.2-1,0.4-1.6,0.5c-0.6,0.1-1.2,0.2-1.9,0.3c-0.6,0-1.3,0-2,0
						l-0.5-0.1l-0.5-0.3l-0.4-0.4c-0.1-0.2-0.1-0.3-0.1-0.5l0.1-1l0.2-0.4c0.1-0.1,0.3-0.2,0.5-0.3c0.2-0.1,0.4-0.1,0.7-0.1
						c0.2,0,0.5,0,0.7,0c1.6,0.1,2.9-0.1,4-0.4c1.1-0.4,2-0.9,2.6-1.7c0.3-0.3,0.6-0.7,0.8-1.1c0.2-0.4,0.5-0.8,0.7-1.3l0.2-0.2
						c0.1,0,0.3,0,0.6,0c0.3,0,0.5,0.1,0.6,0.1l0.2,0.3c0,0.2-0.1,0.5-0.2,0.9s-0.3,0.7-0.5,1.1c-0.2,0.4-0.4,0.7-0.5,1
						c-0.1,0.3-0.2,0.5-0.2,0.6c0,0.5,0.4,0.8,1.3,0.9c0.9,0.1,1.7,0,2.4-0.3c0.8-0.2,1.4-0.6,1.9-1.1c0.2-0.2,0.4-0.4,0.5-0.7
						c0.2-0.3,0.3-0.6,0.5-0.9s0.3-0.6,0.4-1c0.1-0.3,0.2-0.6,0.3-0.9l0.2-0.2c0.1,0,0.3-0.1,0.7,0c0.3,0,0.5,0.1,0.6,0.1l0.1,0.2
						c0,0.2,0,0.4-0.1,0.6c-0.1,0.2-0.1,0.5-0.2,0.7s-0.2,0.5-0.3,0.8c-0.1,0.3-0.2,0.5-0.2,0.7c0.1,0.3,0.3,0.6,0.6,1
						c0.3,0.3,0.6,0.6,1,0.8c0.4,0.2,0.7,0.4,1.1,0.6c0.4,0.2,0.7,0.2,1,0.3c0.3,0,0.6-0.1,0.8-0.3c0.2-0.2,0.3-0.6,0.3-1.2
						c0-0.3,0-0.7-0.1-1c-0.1-0.3-0.1-0.6-0.2-0.8c-0.1-0.2-0.2-0.5-0.2-0.6L263.8,67.5z M253.9,59.7c0.2-0.3,0.4-0.5,0.6-0.6
						c0.2-0.2,0.4-0.2,0.7-0.2l0.5,0.2c0.2,0.1,0.4,0.3,0.7,0.5c0.3,0.2,0.5,0.5,0.6,0.7c0.1,0.2,0.2,0.4,0.2,0.7l-0.1,0.5
						c-0.1,0.2-0.2,0.4-0.4,0.6c-0.2,0.3-0.5,0.5-0.7,0.7c-0.2,0.2-0.4,0.2-0.7,0.2l-0.5-0.1c-0.2-0.1-0.4-0.3-0.7-0.5
						c-0.3-0.2-0.5-0.5-0.6-0.7c-0.1-0.2-0.2-0.5-0.2-0.7l0.1-0.5C253.5,60.2,253.7,60,253.9,59.7z M255.8,55.6
						c0.2-0.3,0.4-0.5,0.6-0.6c0.2-0.2,0.4-0.2,0.7-0.2l0.5,0.1c0.2,0.1,0.4,0.2,0.7,0.5c0.6,0.5,0.9,0.9,0.8,1.4l-0.1,0.5
						c-0.1,0.2-0.2,0.4-0.5,0.6c-0.2,0.3-0.4,0.5-0.6,0.7c-0.2,0.2-0.4,0.2-0.7,0.2l-0.5-0.1c-0.2-0.1-0.4-0.2-0.7-0.5
						c-0.3-0.2-0.5-0.5-0.6-0.7c-0.1-0.2-0.2-0.5-0.2-0.7l0.1-0.5C255.4,56,255.5,55.8,255.8,55.6z M258.1,59.7
						c0.2-0.2,0.4-0.4,0.6-0.6s0.4-0.2,0.7-0.2l0.5,0.1c0.2,0.1,0.4,0.2,0.7,0.5c0.3,0.2,0.5,0.5,0.6,0.7c0.1,0.2,0.2,0.4,0.2,0.7
						c0,0.3-0.2,0.7-0.6,1.1c-0.2,0.3-0.4,0.5-0.7,0.7c-0.2,0.2-0.4,0.2-0.6,0.2l-0.5-0.1c-0.2-0.1-0.4-0.2-0.7-0.5
						c-0.3-0.2-0.5-0.5-0.6-0.7c-0.1-0.2-0.2-0.5-0.2-0.7l0.1-0.5C257.7,60.2,257.9,60,258.1,59.7z"/>
					<path class="st2" d="M286.6,54l0.3-0.1l0.2,0.2c0,0.2,0,0.5,0,0.7c0,0.2,0.1,0.4,0.2,0.6s0.2,0.5,0.4,0.7
						c0.2,0.3,0.4,0.6,0.7,1l0.3,0.4l0,0.4c0,0.2-0.1,0.3-0.2,0.6c-0.1,0.2-0.2,0.4-0.4,0.6c-0.2,0.2-0.3,0.4-0.5,0.5l-0.5,0.3
						c-0.1,0.7-0.1,1.4-0.1,2.2c0,0.7-0.1,1.5-0.1,2.2c-0.1,0.7-0.1,1.4-0.2,2.1c-0.1,0.7-0.1,1.3-0.2,1.8c-0.1,0.6-0.3,1.3-0.5,2.1
						s-0.6,1.6-1,2.4c-0.5,0.8-1,1.6-1.7,2.4c-0.7,0.8-1.6,1.5-2.7,2.2c-1,0.6-2.1,1.1-3.3,1.3c-1.1,0.3-2.4,0.4-3.8,0.4
						c-0.4,0-0.9,0-1.4,0c-0.5,0-1,0-1.5,0c-0.5,0-1,0-1.5-0.1c-0.5,0-0.8-0.1-1.1-0.1l-0.2-0.3c0-0.2,0-0.4,0-0.6l0.1-0.4l0.3-0.1
						c1-0.1,2.1-0.2,3.1-0.4c1-0.2,2-0.4,3-0.6c1-0.3,1.9-0.5,2.8-0.9c0.9-0.3,1.8-0.7,2.6-1.2c0-0.5-0.1-1-0.1-1.5
						c-0.1-0.5-0.1-1.1-0.3-1.7c-0.1-0.6-0.3-1.2-0.6-2c-0.2-0.7-0.6-1.5-1-2.5c-0.4-0.8-0.9-1.6-1.3-2.5c-0.5-0.8-1.1-1.7-1.8-2.5
						l-0.4,0.6l-0.4,0.3l-0.4-0.2c-0.7-0.6-1.2-1-1.7-1.5c-0.5-0.4-0.8-0.8-1.1-1.2c-0.3-0.4-0.4-0.8-0.5-1.1
						c-0.1-0.4-0.1-0.7,0-1.1c0.1-0.4,0.2-0.9,0.4-1.3c0.2-0.4,0.5-0.8,0.7-1.1l0.4-0.3l0.4-0.1c0.2,0,0.4,0.2,0.8,0.5
						c0.3,0.3,0.7,0.6,1.1,1.1s0.8,1,1.3,1.6c0.5,0.6,0.9,1.2,1.3,1.9c0.4,0.6,0.9,1.3,1.2,2c0.4,0.7,0.7,1.3,1,1.9
						c0.5,1.2,1,2.2,1.3,3.2c0.3,1,0.6,1.9,0.7,2.7c0.2,0.8,0.3,1.6,0.3,2.3c0,0.7,0,1.3,0,1.9c0.6-0.4,1-0.8,1.4-1.1
						c0.4-0.4,0.7-0.7,0.9-1.1c0.3-0.4,0.4-0.7,0.6-1.1c0.1-0.4,0.2-0.8,0.3-1.2c0-0.2,0.1-0.6,0.1-1c0-0.5,0.1-1,0.1-1.5
						c0-0.6,0-1.2,0.1-1.9c0-0.7,0-1.3,0.1-2c0-0.6,0.1-1.2,0.1-1.8c0-0.6,0.1-1.1,0.1-1.5l0.1-0.4l0.1-0.4
						c-0.2-0.2-0.3-0.5-0.3-0.8c-0.1-0.3-0.1-0.6,0-0.9c0.1-0.5,0.3-0.9,0.7-1.4C285.6,55.1,286.1,54.6,286.6,54z M277.5,84.8
						l0.1,0.2l-0.1,0.3c-0.1,0.1-0.2,0.3-0.3,0.6c-0.1,0.2-0.3,0.4-0.4,0.5l-0.3,0.2c-1.2,0-2.1,0.1-2.9,0.3
						c-0.7,0.1-1.3,0.3-1.7,0.4c-0.4,0.1-0.7,0.3-0.9,0.4l-0.3,0.1c-0.1,0-0.1-0.1-0.1-0.3c0-0.2,0-0.4,0.1-0.7
						c0-0.1,0.2-0.3,0.4-0.5c0.3-0.2,0.6-0.4,1.1-0.6c-0.4-0.2-0.7-0.6-1-0.9c-0.2-0.4-0.3-0.8-0.3-1.1c0.1-0.5,0.3-0.9,0.6-1.3
						c0.3-0.4,0.6-0.7,1.1-1c0.4-0.3,0.9-0.5,1.3-0.6c0.5-0.1,0.9-0.2,1.4-0.1c0.5,0.1,0.9,0.2,1.1,0.5c0.3,0.2,0.4,0.5,0.3,0.8
						c-0.1,0.3-0.2,0.7-0.6,1.2l-0.2,0.1l-0.2-0.1l-0.2-0.3l-0.4-0.3c-0.2-0.1-0.4-0.2-0.7-0.2l-0.6,0l-0.5,0.2l-0.4,0.3l-0.2,0.4
						c0,0.2,0,0.4,0.2,0.6c0.1,0.2,0.3,0.4,0.6,0.5c0.2,0.2,0.5,0.3,0.7,0.4c0.3,0.1,0.5,0.2,0.7,0.2c0.2,0,0.5,0.1,0.8,0.1
						c0.3,0,0.6,0,0.8,0c0.3,0,0.5,0,0.7,0L277.5,84.8z"/>
					<path class="st2" d="M291.4,80l-0.2,0.2c-0.1,0-0.2,0-0.4,0c-0.2,0-0.3-0.1-0.4-0.2l-0.1-0.2c0-0.3,0.1-0.6,0.2-1
						c0.1-0.4,0.2-0.8,0.3-1.2c0.2-0.9,0.4-1.9,0.5-2.9c0.2-1,0.3-2,0.5-3.1c0.1-1,0.3-2.1,0.5-3.1c0.2-1,0.3-2,0.4-2.9
						c0.1-0.9,0.3-1.8,0.4-2.6c0.1-0.8,0.3-1.5,0.4-2.1c0.1-0.3,0.2-0.6,0.5-0.9c0.2-0.3,0.5-0.6,0.9-0.9c0.3-0.2,0.5-0.4,0.7-0.6
						c0.2-0.2,0.4-0.2,0.5-0.2l0.2,0.2c-0.2,0.8-0.3,1.7-0.5,2.6c-0.2,1-0.3,2-0.5,3c-0.2,1-0.3,2-0.5,3c-0.2,1-0.3,2-0.5,2.9
						c-0.2,0.9-0.3,1.8-0.5,2.6c-0.1,0.8-0.3,1.5-0.4,2c-0.3,1.3-0.7,2.5-1.1,3.4C292,78.9,291.7,79.6,291.4,80z"/>
					<path class="st2" d="M320.8,89.7c-0.8-0.3-1.5-0.7-2-1.1c-0.5-0.5-0.9-1.1-1.2-1.9c-0.2,0.2-0.4,0.5-0.7,0.7
						c-0.2,0.2-0.5,0.4-0.8,0.6c-0.3,0.2-0.5,0.3-0.8,0.3c-0.3,0.1-0.5,0.1-0.7,0c-0.5-0.2-1-0.5-1.5-0.9c-0.5-0.4-1-0.9-1.5-1.4
						c-0.5-0.5-0.8-1.1-1.1-1.6c-0.3-0.5-0.4-1-0.4-1.5c0-0.4,0-0.8,0.1-1.2c0.1-0.4,0.2-0.8,0.3-1.2c-0.8,0.1-1.5,0.3-2.3,0.5
						c-0.8,0.2-1.4,0.5-1.9,0.8c-0.2,0.9-0.4,1.9-0.6,2.9c-0.2,1-0.4,2.1-0.5,3.2c-0.2,1.1-0.4,2.2-0.7,3.3
						c-0.2,1.1-0.6,2.1-0.9,3.1c-0.2,0.5-0.4,1-0.7,1.5c-0.3,0.5-0.6,0.9-0.9,1.2L302,97c-0.1,0-0.2,0-0.4-0.1
						c-0.4-0.1-0.5-0.3-0.4-0.5c0.2-0.6,0.5-1.2,0.7-1.9c0.2-0.6,0.4-1.3,0.5-2c0.1-0.5,0.2-1.1,0.3-1.7c0.1-0.6,0.2-1.3,0.3-1.9
						c0.1-0.7,0.2-1.3,0.3-2c0.1-0.7,0.2-1.3,0.3-1.9c0.1-0.6,0.2-1.1,0.3-1.6s0.2-0.9,0.3-1.2c0.3-0.7,0.7-1.3,1.2-1.8
						c0.5-0.6,1.1-1,1.7-1.5c0.7-0.4,1.4-0.8,2.1-1.1c0.8-0.3,1.5-0.5,2.4-0.6c0.5-0.2,1-0.4,1.5-0.5c0.5-0.1,1-0.3,1.5-0.3
						c0.5-0.1,0.9-0.1,1.3-0.1c0.4,0,0.7,0,0.9,0.1c0.4,0.1,0.7,0.4,1,0.6c0.3,0.3,0.5,0.7,0.7,1.2c0.2,0.5,0.4,1.2,0.6,2
						c0.2,0.8,0.4,1.8,0.6,2.9c0.1,0.4,0.2,0.8,0.3,1.2c0.1,0.4,0.3,0.7,0.5,1c0.2,0.3,0.5,0.6,0.8,0.8c0.3,0.2,0.7,0.4,1.2,0.6
						L320.8,89.7z M315.6,84.9l0.5-0.1c0.2-0.1,0.3-0.3,0.4-0.6c0.1-0.4,0.1-0.8,0.1-1.3s0-1-0.1-1.5c-0.1-0.5-0.2-1-0.4-1.4
						c-0.2-0.4-0.4-0.8-0.7-1c-0.2-0.1-0.5-0.1-0.8,0c-0.3,0.1-0.6,0.2-0.9,0.3c-0.3,0.2-0.6,0.3-0.9,0.5c-0.3,0.2-0.5,0.4-0.6,0.6
						c0,0.3,0.1,0.7,0.3,1.1c0.2,0.4,0.5,0.9,0.9,1.3c0.4,0.5,0.7,0.9,1.2,1.2C315,84.5,315.3,84.8,315.6,84.9z"/>
					<path class="st2" d="M320.5,89.7l-0.5-0.3l-0.4-0.4l-0.2-0.5l0.1-0.5l0.4-0.9l0.4-0.3c0.2-0.1,0.4-0.1,0.6-0.1
						c0.2,0,0.4,0,0.7,0.1c0.2,0.1,0.4,0.2,0.7,0.2c0.9,0.4,1.7,0.8,2.6,1.1c0.9,0.3,1.7,0.6,2.6,0.9c0.8,0.3,1.6,0.4,2.4,0.6
						s1.5,0.2,2.1,0.2l0.2-0.3l0.2-0.3c0.1-0.2,0.2-0.5,0.3-0.8c0.1-0.3,0.1-0.5,0.1-0.8l-0.2-0.1c-0.3,0.3-0.8,0.4-1.3,0.5
						c-0.5,0.1-1.1,0-1.7-0.4c-0.5-0.2-0.9-0.5-1.4-0.9c-0.4-0.4-0.8-0.8-1.1-1.2c-0.3-0.5-0.4-1-0.5-1.6c0-0.6,0.1-1.2,0.5-1.9
						c0.4-0.8,0.9-1.4,1.5-2s1.3-1.1,2-1.5c0.7-0.4,1.4-0.6,2.2-0.7c0.7-0.1,1.4,0,1.9,0.2c0.7,0.3,1.1,0.8,1.5,1.5
						c0.3,0.7,0.5,1.5,0.6,2.3c0.1,0.9,0,1.8-0.2,2.8c-0.2,1-0.5,1.9-1,2.8c-0.3,0.6-0.7,1.3-1.3,2.1c-0.5,0.8-1.2,1.5-1.9,2.2
						c-0.2,0.2-0.5,0.4-0.7,0.5c-0.3,0.2-0.5,0.2-0.7,0.2c-1.7,0-3.3-0.3-5.1-0.8C324.1,91.2,322.3,90.6,320.5,89.7z M333.4,85.3
						c0.1-0.4,0.2-0.8,0.3-1.3c0-0.5,0-0.9,0-1.3c-0.1-0.4-0.2-0.8-0.4-1.2c-0.2-0.3-0.5-0.6-0.8-0.8c-0.3-0.1-0.6-0.2-0.9-0.2
						c-0.3,0-0.6,0.1-0.9,0.2c-0.3,0.1-0.6,0.3-0.8,0.5c-0.2,0.2-0.4,0.4-0.6,0.6c-0.1,0.3-0.1,0.6,0,0.9s0.2,0.6,0.4,0.9
						c0.2,0.3,0.5,0.6,0.8,0.8s0.7,0.5,1.1,0.7c0.3,0.1,0.6,0.2,0.9,0.2C332.8,85.5,333.1,85.4,333.4,85.3z M332.8,70.7
						c0.3-0.2,0.6-0.3,0.8-0.3c0.3-0.1,0.5-0.1,0.7,0l0.4,0.3c0.1,0.2,0.3,0.4,0.4,0.7c0.3,0.7,0.4,1.2,0.2,1.6l-0.3,0.4
						c-0.2,0.1-0.4,0.3-0.7,0.5c-0.3,0.2-0.6,0.3-0.9,0.4c-0.3,0.1-0.5,0.1-0.7,0l-0.4-0.3c-0.1-0.1-0.3-0.4-0.4-0.7
						c-0.2-0.3-0.3-0.6-0.3-0.9c0-0.3,0-0.5,0.1-0.7l0.3-0.4C332.3,71,332.5,70.9,332.8,70.7z M336.7,72.2c0.3-0.2,0.6-0.3,0.8-0.4
						c0.3-0.1,0.5-0.1,0.7,0l0.4,0.3c0.1,0.1,0.3,0.4,0.5,0.7c0.3,0.7,0.4,1.2,0.2,1.6l-0.3,0.4c-0.2,0.1-0.4,0.3-0.7,0.5
						c-0.3,0.2-0.6,0.3-0.9,0.4c-0.3,0.1-0.5,0-0.7,0l-0.4-0.3c-0.1-0.1-0.3-0.4-0.5-0.7c-0.1-0.3-0.2-0.6-0.3-0.9
						c0-0.3,0-0.5,0.1-0.7l0.3-0.4C336.1,72.6,336.4,72.4,336.7,72.2z"/>
					<path class="st2" d="M341.6,90.8l0-0.4l0.1-0.4c0.1-0.2,0.3-0.4,0.5-0.7c0.2-0.2,0.5-0.5,0.7-0.7c0.3-0.2,0.5-0.4,0.7-0.5
						c0.2-0.1,0.4-0.1,0.5-0.1l0.2,0.3c0,0.2,0.1,0.3,0.1,0.6c0.1,0.6,0.1,1.2,0.1,1.8c0,0.7-0.1,1.3-0.2,2
						c-0.1,0.7-0.3,1.4-0.6,2.2c-0.3,0.7-0.6,1.5-1.1,2.2c-0.4,0.7-0.9,1.3-1.5,2c-0.6,0.6-1.3,1.2-2,1.8c-0.7,0.5-1.5,1-2.4,1.4
						c-0.8,0.4-1.7,0.7-2.5,0.9c-0.8,0.2-1.7,0.3-2.5,0.2c-0.8-0.1-1.6-0.3-2.3-0.7c-0.7-0.4-1.4-0.9-2.2-1.6
						c-0.7-0.7-1.3-1.5-1.9-2.5l-0.2-0.4l-0.1-0.3l0.1-0.3l0.2-0.4c0.3-0.4,0.5-0.6,0.7-0.5c0.1,0.1,0.2,0.2,0.4,0.4
						c0.1,0.2,0.3,0.5,0.5,0.7c0.2,0.3,0.4,0.6,0.7,0.9c0.3,0.3,0.6,0.6,1,0.8c0.7,0.4,1.4,0.6,2.3,0.7c0.8,0.1,1.6,0.1,2.5,0
						c0.8-0.1,1.6-0.2,2.4-0.5c0.8-0.2,1.5-0.5,2.2-0.8c0.7-0.3,1.2-0.6,1.7-1c0.5-0.3,0.8-0.6,1-0.9c0.2-0.3,0.3-0.6,0.4-1.1
						c0.1-0.5,0.2-1,0.3-1.6c0.1-0.6,0.1-1.2,0.1-1.8C341.7,91.9,341.7,91.4,341.6,90.8z"/>
					<path class="st6" d="M375.6,216.5c-7.3,14.5-4.1,12.4-4.1,12.4c7.8-0.1,7,1.2,16.4-5.1c8.2-7.5,11.4-15,11.4-15
						S386.4,203.1,375.6,216.5z"/>
					<path class="st7" d="M377.1,215.2c-6.4,12.8-3.6,10.9-3.6,10.9c6.8-0.1,6.2,1,14.4-4.5c7.3-6.6,10-13.2,10-13.2
						S386.6,203.5,377.1,215.2z"/>
					<path class="st6" d="M373.6,216.3c-7.5,13.1-7.5,9.2-7.5,9.2c-3.8-7.4-4.4-6.2-4.3-17.7c1.6-11,5.8-17.2,5.8-17.2
						S378.5,200.4,373.6,216.3z"/>
					<path class="st7" d="M373.9,214.4c-6.6,11.5-6.6,8.1-6.6,8.1c-3.4-6.5-3.9-5.4-3.8-15.6c1.4-9.7,5.1-15.1,5.1-15.1
						S378.2,200.4,373.9,214.4z"/>
					<g>
						<polygon class="st2" points="171.2,125 170.2,125.3 169.9,125.4 169.5,125.4 169.2,125.3 169,125 168.8,124.4 168.8,124.1 
							169,123.9 169.3,123.6 169.7,123.5 170.7,123.1 						"/>
						<path class="st2" d="M170.7,123c0.2-0.1,0.4-0.2,0.6-0.3l0.5-0.4c0.1-0.2,0.3-0.3,0.4-0.5c0.1-0.2,0.2-0.4,0.2-0.7
							c0-0.5,0.1-0.9,0.1-1.4c0.1-0.5,0.2-1,0.3-1.4c0.1-0.5,0.3-0.8,0.6-1.2c0.2-0.3,0.6-0.6,1-0.7c0.3-0.1,0.6-0.1,0.9-0.1
							c0.3,0,0.5,0.1,0.8,0.3c0.3,0.1,0.5,0.3,0.7,0.6c0.2,0.2,0.5,0.5,0.7,0.8c0.2,0.2,0.3,0.4,0.4,0.6c0.1,0.2,0.2,0.4,0.3,0.6
							c0.1,0.2,0.1,0.4,0.2,0.7c0,0.3,0,0.6,0,0.9l-0.1,0.5l-0.1,0.5l-0.2,0.4l-0.3,0.2c-0.3,0.1-0.6,0.1-0.9,0.2
							c-0.3,0-0.7,0-1.1,0c-0.4,0-0.8-0.1-1.2-0.2s-0.8-0.2-1.1-0.3c-0.1,0.8-0.3,1.4-0.7,1.9c-0.4,0.5-0.9,0.8-1.4,1l-0.3,0.1
							l-0.4,0l-0.3-0.1l-0.2-0.3l-0.2-0.6l0-0.3l0.2-0.3l0.3-0.2L170.7,123z M173.4,120.1c0.3,0.1,0.5,0.2,0.9,0.3
							c0.3,0.1,0.6,0.1,0.9,0.2c0.3,0,0.6,0.1,0.9,0.1c0.3,0,0.5,0,0.7-0.1l0.1-0.3l-0.1-0.3l-0.1-0.3c-0.1-0.2-0.2-0.4-0.4-0.6
							c-0.2-0.2-0.4-0.4-0.6-0.6c-0.2-0.2-0.4-0.3-0.7-0.3c-0.2-0.1-0.5-0.1-0.8,0c-0.3,0.1-0.5,0.3-0.6,0.6
							C173.5,119.1,173.4,119.5,173.4,120.1z"/>
						<polygon class="st2" points="195.5,119 195.5,119.3 195.5,119.6 195.4,119.7 195.2,119.8 187.7,121.6 187.6,121.6 
							187.4,121.5 187.3,121.3 187.1,121 187.1,120.6 187.1,120.4 187.2,120.2 187.3,120.1 190.3,119.4 187.6,108.6 185.2,110.9 
							184.9,111.2 184.7,111.2 184.6,110.9 184.4,110.5 184.4,110.2 184.3,110 184.4,109.8 184.5,109.6 187.3,106.7 187.4,106.7 
							187.6,106.6 187.8,106.5 188.1,106.4 188.6,106.3 188.9,106.3 189,106.4 189.1,106.5 192.3,118.9 194.9,118.3 195,118.3 
							195.2,118.4 195.3,118.6 						"/>
						<path class="st2" d="M205.7,109.8c0.1,0.6,0.2,1.3,0.2,1.9c0,0.6,0,1.3,0,1.9c-0.1,0.6-0.2,1.2-0.4,1.8
							c-0.2,0.6-0.5,1.1-0.9,1.6c-0.4,0.5-0.9,0.9-1.5,1.2c-0.6,0.3-1.3,0.6-2.2,0.7c-0.3,0.1-0.6,0.1-1,0.1c-0.3,0-0.6,0-0.9,0
							c-0.3,0-0.5,0-0.7-0.1l-0.4-0.1l-0.2-0.2c-0.1-0.1-0.1-0.3-0.1-0.5l-0.1-0.4l0-0.2l0.1-0.1l0.1-0.1l0.4,0
							c0.2,0,0.4,0.1,0.6,0.1s0.5,0,0.8,0c0.3,0,0.7,0,1.1-0.1c0.7-0.1,1.3-0.4,1.8-0.8c0.5-0.4,0.8-0.8,1.1-1.3
							c0.2-0.5,0.4-1.1,0.4-1.8c0.1-0.6,0-1.3-0.1-2c-0.4,0.3-0.8,0.6-1.3,0.9c-0.5,0.3-1.1,0.5-1.9,0.6c-0.8,0.1-1.5,0.2-2.1,0
							c-0.6-0.1-1.1-0.3-1.5-0.6c-0.4-0.3-0.7-0.7-1-1.2c-0.2-0.5-0.4-1-0.5-1.7c-0.1-0.6-0.1-1.3-0.1-1.9c0.1-0.6,0.3-1.2,0.6-1.7
							c0.3-0.5,0.8-0.9,1.3-1.3c0.6-0.4,1.3-0.6,2.1-0.8c0.6-0.1,1.2-0.1,1.7-0.1c0.5,0.1,0.9,0.2,1.3,0.4c0.4,0.2,0.8,0.5,1.1,0.9
							s0.6,0.8,0.8,1.3c0.2,0.5,0.5,1,0.6,1.6C205.5,108.5,205.6,109.1,205.7,109.8z M203.7,109.9c-0.2-0.9-0.4-1.7-0.6-2.4
							c-0.3-0.6-0.5-1.1-0.9-1.5c-0.3-0.4-0.7-0.6-1.1-0.7c-0.4-0.1-0.8-0.1-1.3,0c-0.5,0.1-0.9,0.3-1.2,0.5
							c-0.3,0.2-0.6,0.5-0.7,0.9c-0.2,0.3-0.3,0.7-0.3,1.1c0,0.4,0,0.8,0.1,1.2c0.1,0.4,0.2,0.8,0.4,1.2c0.2,0.3,0.4,0.6,0.6,0.8
							c0.3,0.2,0.6,0.4,0.9,0.4c0.4,0.1,0.8,0.1,1.3,0c0.6-0.1,1.1-0.3,1.6-0.5C203,110.6,203.4,110.3,203.7,109.9z"/>
						<path class="st2" d="M218,111.4c0.1,0.8,0.1,1.5-0.1,2.1c-0.2,0.6-0.5,1.2-0.9,1.7c-0.4,0.5-1,0.9-1.6,1.2
							c-0.6,0.3-1.4,0.5-2.2,0.6c-0.5,0.1-0.9,0.1-1.3,0.1c-0.4,0-0.8,0-1.1-0.1c-0.3-0.1-0.6-0.1-0.8-0.2c-0.2-0.1-0.4-0.1-0.4-0.2
							l-0.1-0.1l-0.1-0.2l-0.1-0.2l-0.1-0.3l0-0.3l0-0.3l0.1-0.2l0.1-0.1l0.4,0.1c0.2,0.1,0.4,0.1,0.7,0.2c0.3,0.1,0.6,0.1,1,0.2
							c0.4,0,0.9,0,1.4,0c0.5-0.1,1-0.2,1.4-0.4c0.4-0.2,0.8-0.4,1-0.7c0.3-0.3,0.5-0.6,0.6-1c0.1-0.4,0.2-0.9,0.1-1.4
							c-0.1-0.5-0.2-0.9-0.4-1.2c-0.2-0.3-0.5-0.6-0.8-0.8c-0.3-0.2-0.8-0.3-1.2-0.4c-0.5-0.1-1.1,0-1.7,0c-0.5,0.1-0.9,0.1-1.2,0.2
							c-0.3,0.1-0.6,0.1-0.9,0.2c-0.2,0-0.4,0-0.5-0.1c-0.1-0.1-0.2-0.3-0.2-0.5l-0.8-5.9c0-0.2,0-0.4,0.1-0.6
							c0.1-0.1,0.3-0.2,0.5-0.2l6.5-0.8l0.2,0l0.2,0.1l0.1,0.2l0.1,0.4c0,0.3,0,0.5,0,0.6l-0.3,0.3l-5.3,0.7l0.5,4.1
							c0.3-0.1,0.5-0.1,0.8-0.2c0.3,0,0.6-0.1,0.9-0.1c0.8-0.1,1.5-0.1,2.2,0c0.6,0.1,1.2,0.3,1.6,0.6c0.5,0.3,0.8,0.7,1.1,1.2
							C217.8,110.2,217.9,110.8,218,111.4z"/>
						<path class="st2" d="M243.1,109.2c0,0.3,0,0.5-0.1,0.6l-0.3,0.2l-4.8,0l-0.3-0.2c-0.1-0.1-0.1-0.3-0.1-0.6
							c0-0.3,0-0.5,0.1-0.6l0.3-0.2l4.8,0l0.2,0l0.1,0.1l0.1,0.2L243.1,109.2z"/>
						<path class="st2" d="M261.2,114.1c-0.3,0-0.6-0.1-0.9-0.1c-0.3-0.1-0.7-0.2-1-0.3c-0.4-0.1-0.7-0.3-1.1-0.4
							c-0.4-0.2-0.7-0.3-1-0.5c-0.4,0.2-0.8,0.4-1.2,0.6c-0.4,0.2-0.8,0.3-1.2,0.5s-0.8,0.2-1.3,0.3c-0.4,0.1-0.8,0.1-1.3,0
							c-0.4,0-0.8-0.1-1.2-0.2c-0.4-0.1-0.8-0.2-1.1-0.3c-0.1,0-0.2-0.2-0.2-0.5l0.1-0.2l0.1-0.1c1.1-0.1,2.1-0.3,3-0.5
							c0.9-0.2,1.8-0.4,2.5-0.7c-0.3-0.2-0.5-0.5-0.6-0.8c-0.2-0.3-0.2-0.7-0.2-1.1c0-0.3,0.1-0.7,0.2-1c0.1-0.3,0.3-0.6,0.5-0.9
							c0.2-0.3,0.5-0.6,0.8-0.8c0.3-0.3,0.6-0.5,0.9-0.6l0,0l-0.4-0.1l-0.3-0.1l-0.1-0.2l0.1-0.2l0.1-0.4l0.2-0.5l0.2-0.5l0.2-0.3
							l0.3-0.1l0.3,0.1l0.3,0.2l0.4,0.2l0.3,0.2c0.6,0.5,1.2,1,1.8,1.5c0.6,0.5,1.1,1.1,1.5,1.7c0.4,0.6,0.8,1.2,1,1.8
							c0.2,0.6,0.3,1.2,0.3,1.9c0,0.2-0.1,0.5-0.2,0.7c-0.1,0.2-0.2,0.5-0.4,0.7c-0.1,0.2-0.3,0.4-0.5,0.6l-0.5,0.4
							C261.7,114,261.5,114.1,261.2,114.1z M257.4,110.9c0.4-0.2,0.7-0.4,1.1-0.6c0.3-0.2,0.6-0.5,0.8-0.9c0-0.3,0-0.5-0.1-0.8
							c-0.1-0.3-0.1-0.5-0.2-0.7c-0.1-0.2-0.2-0.4-0.4-0.5l-0.5-0.2c-0.2,0-0.4,0-0.6,0.1c-0.2,0.1-0.4,0.2-0.7,0.3
							c-0.2,0.1-0.4,0.3-0.6,0.5c-0.2,0.2-0.3,0.5-0.5,0.8c0,0.4,0.1,0.7,0.4,1.1C256.5,110.4,256.9,110.7,257.4,110.9z
							 M262.5,111.9c0-0.2,0-0.4-0.1-0.6c-0.1-0.3-0.2-0.5-0.4-0.8c-0.2-0.3-0.4-0.6-0.7-1c-0.3-0.3-0.6-0.7-1-1l0,0l0,0.4l0,0.4
							c0,0.2-0.1,0.4-0.1,0.6c-0.1,0.2-0.2,0.4-0.3,0.6c-0.1,0.2-0.3,0.4-0.4,0.6c-0.2,0.2-0.3,0.4-0.5,0.5c0.3,0.1,0.6,0.2,0.9,0.3
							c0.3,0.1,0.7,0.2,1,0.2c0.3,0,0.5,0.1,0.8,0.1C262,112.1,262.2,112,262.5,111.9z"/>
						<polygon class="st2" points="279.6,117.5 279.5,117.9 279.4,118.1 279.2,118.2 279.1,118.2 271.4,117 271.2,116.9 
							271.1,116.8 271.1,116.5 271.1,116.2 271.2,115.8 271.3,115.6 271.5,115.5 271.6,115.5 274.7,115.9 276.5,105 273.4,106.2 
							273,106.3 272.8,106.2 272.7,105.9 272.8,105.5 272.9,105.2 272.9,105 273.1,104.8 273.2,104.7 277,103.1 277.1,103.1 
							277.3,103.1 277.5,103.1 277.9,103.1 278.3,103.2 278.6,103.3 278.7,103.4 278.7,103.6 276.6,116.2 279.3,116.7 279.5,116.7 
							279.6,116.9 279.6,117.2 						"/>
						<path class="st2" d="M291.7,116.6c-0.1,0.7-0.4,1.2-0.7,1.7s-0.8,0.9-1.3,1.1c-0.5,0.3-1.1,0.5-1.8,0.5
							c-0.7,0.1-1.4,0-2.2-0.2c-0.5-0.1-0.9-0.2-1.3-0.4c-0.4-0.2-0.8-0.3-1.1-0.5c-0.3-0.2-0.6-0.3-0.7-0.5l-0.4-0.3l-0.1-0.2
							l0-0.2l0-0.3l0.1-0.4c0.1-0.3,0.1-0.4,0.2-0.5l0.3-0.1l0.4,0.3c0.2,0.2,0.4,0.3,0.7,0.6c0.3,0.2,0.6,0.4,1,0.6
							c0.4,0.2,0.9,0.4,1.4,0.5c0.5,0.1,1,0.1,1.4,0.1c0.4,0,0.8-0.1,1.1-0.3c0.3-0.2,0.6-0.4,0.8-0.7c0.2-0.3,0.3-0.6,0.4-1
							c0.1-0.4,0.1-0.8,0-1.1c-0.1-0.4-0.3-0.7-0.5-1c-0.3-0.3-0.6-0.6-1.1-0.8c-0.4-0.2-1-0.4-1.5-0.5l-1.4-0.3l-0.2-0.1l-0.1-0.2
							l-0.1-0.3l0-0.4l0.1-0.3l0.1-0.2l0.2-0.1l0.2,0l1.3,0.3c0.5,0.1,0.9,0.1,1.4,0.1c0.4,0,0.8-0.1,1.1-0.3
							c0.3-0.2,0.6-0.4,0.8-0.7c0.2-0.3,0.4-0.6,0.5-1c0.1-0.3,0.1-0.6,0-0.9c0-0.3-0.1-0.6-0.3-0.8c-0.2-0.2-0.4-0.5-0.6-0.6
							c-0.3-0.2-0.6-0.3-1-0.4c-0.4-0.1-0.8-0.1-1.2-0.1c-0.4,0.1-0.7,0.1-1.1,0.2c-0.3,0.1-0.6,0.2-0.8,0.3
							c-0.2,0.1-0.4,0.1-0.4,0.1l-0.1-0.1l-0.1-0.1l0-0.2l0.1-0.4l0.1-0.3l0.1-0.2l0.1-0.2l0.2-0.1c0.1-0.1,0.3-0.1,0.5-0.2
							s0.5-0.2,0.9-0.2c0.3-0.1,0.7-0.1,1.2-0.1c0.4,0,0.9,0.1,1.4,0.2c0.7,0.1,1.2,0.4,1.7,0.6c0.5,0.3,0.8,0.6,1.1,1
							c0.3,0.4,0.4,0.8,0.5,1.3c0.1,0.5,0,1-0.1,1.5c-0.1,0.4-0.3,0.9-0.5,1.2c-0.2,0.4-0.5,0.7-0.8,0.9c-0.3,0.2-0.6,0.4-1,0.6
							c-0.4,0.1-0.8,0.2-1.3,0.2l0,0c0.5,0.2,0.9,0.4,1.3,0.7c0.4,0.3,0.7,0.6,0.9,1c0.2,0.4,0.4,0.8,0.5,1.2
							C291.8,115.7,291.8,116.1,291.7,116.6z"/>
						<path class="st2" d="M306.2,110.6l-0.1,0.3l-0.1,0.3l-0.2,0.3l-0.2,0.3l-8.6,10.2l-0.2,0.2l-0.2,0.1l-0.3,0l-0.5-0.1
							c-0.3-0.1-0.4-0.1-0.6-0.2l-0.3-0.2l0-0.2l0.1-0.2l8.9-10.4l-6.8-1.9l-0.3-0.3c0-0.2,0-0.4,0.1-0.6l0.1-0.3l0.2-0.2l0.2-0.1
							l0.2,0l8.3,2.4l0.3,0.1l0.1,0.2l0,0.3L306.2,110.6z"/>
						<path class="st2" d="M308.3,115.3c0.4-0.5,0.8-1,1.3-1.3c0.5-0.4,1.1-0.6,1.7-0.7c0.6-0.1,1.2-0.1,1.9,0
							c0.7,0.1,1.4,0.5,2.1,1c0.5,0.4,0.9,0.7,1.2,1.1c0.3,0.4,0.5,0.8,0.6,1.2c0.1,0.4,0.2,0.9,0.1,1.3c0,0.5-0.2,0.9-0.4,1.4
							c-0.2,0.5-0.4,1-0.8,1.6c-0.3,0.5-0.7,1.1-1.1,1.7c-0.4,0.5-0.8,1-1.2,1.5c-0.4,0.5-0.9,0.9-1.4,1.3c-0.5,0.4-1,0.7-1.6,0.9
							c-0.6,0.2-1.1,0.4-1.7,0.4c-0.6,0.1-1.2,0-1.9-0.2c-0.6-0.2-1.3-0.5-2-1c-0.2-0.2-0.5-0.3-0.7-0.5c-0.2-0.2-0.4-0.4-0.6-0.6
							c-0.2-0.2-0.3-0.4-0.4-0.5l-0.2-0.3l0-0.2l0-0.2l0.1-0.2l0.1-0.2l0.2-0.3l0.2-0.2l0.2-0.1l0.2,0.1l0.2,0.3l0.3,0.4
							c0.1,0.2,0.3,0.4,0.5,0.6c0.2,0.2,0.5,0.4,0.8,0.7c0.6,0.4,1.2,0.6,1.7,0.7c0.6,0.1,1.2,0,1.7-0.2c0.5-0.2,1.1-0.5,1.6-0.9
							c0.5-0.4,1-0.9,1.4-1.5c-0.2,0-0.5-0.1-0.7-0.1c-0.3-0.1-0.5-0.1-0.8-0.2c-0.3-0.1-0.6-0.2-0.9-0.4c-0.3-0.1-0.6-0.3-0.9-0.5
							c-0.7-0.5-1.1-0.9-1.5-1.4c-0.3-0.5-0.5-1-0.6-1.5c-0.1-0.5,0-1,0.2-1.5C307.6,116.3,307.9,115.8,308.3,115.3z M310,116.3
							c-0.3,0.4-0.5,0.7-0.6,1c-0.1,0.3-0.2,0.7-0.2,1c0,0.3,0.1,0.6,0.3,0.9c0.2,0.3,0.5,0.6,0.9,0.9c0.2,0.2,0.5,0.3,0.7,0.4
							c0.3,0.1,0.5,0.2,0.8,0.3c0.3,0.1,0.5,0.1,0.8,0.2c0.3,0,0.5,0.1,0.8,0.1c0.6-0.8,1-1.5,1.3-2.1c0.3-0.6,0.4-1.1,0.5-1.6
							c0-0.5,0-0.9-0.2-1.2c-0.2-0.3-0.5-0.7-0.9-0.9c-0.4-0.3-0.8-0.5-1.2-0.5s-0.8,0-1.2,0.1c-0.4,0.1-0.7,0.3-1,0.5
							S310.2,116,310,116.3z"/>
						<path class="st2" d="M219.6,104.8c0-0.6,0.1-1.3,0.3-1.9c0.2-0.6,0.5-1.1,0.9-1.6c0.4-0.5,0.9-0.8,1.6-1.1
							c0.6-0.3,1.4-0.4,2.2-0.4c0.6,0,1.2,0.1,1.6,0.2c0.5,0.1,0.9,0.4,1.2,0.6c0.3,0.3,0.6,0.6,0.9,1c0.2,0.4,0.4,0.9,0.6,1.4
							c0.1,0.5,0.2,1.1,0.3,1.7c0.1,0.6,0.1,1.3,0.1,2c0,0.6,0,1.3-0.1,1.9c-0.1,0.6-0.2,1.3-0.4,1.9c-0.2,0.6-0.4,1.2-0.7,1.7
							c-0.3,0.5-0.7,1-1.1,1.4c-0.5,0.4-1,0.7-1.6,0.9c-0.6,0.2-1.4,0.3-2.2,0.4c-0.3,0-0.6,0-0.9,0c-0.3,0-0.6-0.1-0.8-0.1
							c-0.2-0.1-0.5-0.1-0.6-0.2l-0.3-0.2l-0.1-0.1l-0.1-0.2l0-0.2l0-0.3l0-0.4l0-0.2l0.1-0.1l0.2,0l0.3,0.1l0.5,0.2
							c0.2,0.1,0.5,0.1,0.7,0.2c0.3,0,0.6,0.1,1,0.1c0.7,0,1.3-0.2,1.8-0.4c0.5-0.3,0.9-0.7,1.3-1.2c0.3-0.5,0.6-1,0.7-1.7
							c0.2-0.6,0.3-1.3,0.3-2c-0.2,0.1-0.4,0.2-0.7,0.3c-0.2,0.1-0.5,0.2-0.8,0.3c-0.3,0.1-0.6,0.2-0.9,0.2
							c-0.3,0.1-0.7,0.1-1.1,0.1c-0.8,0-1.5-0.1-2-0.3c-0.5-0.2-1-0.5-1.3-0.9c-0.3-0.4-0.6-0.8-0.7-1.3
							C219.6,106,219.6,105.4,219.6,104.8z M221.6,104.6c0,0.4,0,0.8,0.1,1.2c0.1,0.4,0.2,0.7,0.4,0.9c0.2,0.2,0.5,0.4,0.8,0.6
							c0.3,0.1,0.8,0.2,1.3,0.2c0.3,0,0.6,0,0.8-0.1c0.3-0.1,0.6-0.1,0.8-0.2c0.3-0.1,0.5-0.2,0.8-0.3c0.2-0.1,0.5-0.2,0.7-0.4
							c0-1-0.1-1.8-0.2-2.4c-0.1-0.7-0.3-1.2-0.5-1.6c-0.2-0.4-0.5-0.7-0.9-0.8c-0.4-0.2-0.8-0.2-1.3-0.2c-0.5,0-0.9,0.1-1.3,0.3
							c-0.4,0.2-0.7,0.4-0.9,0.7c-0.2,0.3-0.4,0.7-0.5,1S221.6,104.2,221.6,104.6z"/>
					</g>
				</g>
			</g>
		</g>
	</g>
	<g>
		<path class="st8" d="M332.9,487.9c-0.4-0.6-0.2-1.3,0.3-1.7c0.5-0.4,1.3-0.2,1.7,0.3c0.4,0.5,0.2,1.2-0.3,1.6
			C334.1,488.5,333.3,488.4,332.9,487.9z"/>
		<g>
			<g>
				<path class="st8" d="M262,347.8c0.6,0,1.1-0.2,1.5-0.6c0.4-0.4,0.6-0.9,0.6-1.5c0-0.6-0.2-1.1-0.6-1.5c-0.4-0.4-0.9-0.6-1.5-0.6
					c-0.6,0-1.1,0.2-1.5,0.6c-0.4,0.4-0.6,0.9-0.6,1.5c0,0.6,0.2,1,0.6,1.5C260.9,347.6,261.4,347.8,262,347.8z"/>
				<path class="st8" d="M262,352.8c0.6,0,1.1-0.2,1.5-0.6c0.4-0.4,0.6-0.9,0.6-1.5c0-0.6-0.2-1.1-0.6-1.5c-0.4-0.4-0.9-0.6-1.5-0.6
					c-0.6,0-1.1,0.2-1.5,0.6c-0.4,0.4-0.6,0.9-0.6,1.5c0,0.6,0.2,1.1,0.6,1.5C260.9,352.6,261.4,352.8,262,352.8z"/>
				<path class="st8" d="M263.8,355.7c-0.4,0.4-0.7,0.8-1,1.4c-0.3,0.5-0.7,1-1.2,1.4c-0.5,0.4-1,0.6-1.3,0.6v0.8
					c0.6,0.4,1,1,1.2,1.6c0.3,0.6,0.4,1.3,0.4,2v8.4c0,0.9-0.1,1.6-0.3,2c-0.2,0.5-0.6,0.7-1.1,0.7c-0.5,0-0.9-0.2-1.1-0.7
					c-0.2-0.5-0.3-1.1-0.3-2v-2.7c-2,0-4.1-0.9-6.1-2.8c-1.9-1.8-2.9-3.5-2.9-5.1c0-1.3,0.4-2.7,1.3-4.2c0.8-1.3,1.5-2.5,2.3-3.8
					c0.8-1.5,1.2-2.9,1.2-4.3c0-3.3-2-4.9-5.9-4.9h-7.1v0.4c0.2,0.1,0.8,0.5,1.7,1.2c0.6,0.5,1.2,0.7,1.6,0.7
					c-0.2,0.2-0.3,0.5-0.3,0.7c0,0.3,0.2,0.6,0.5,0.9c0.1,0.1,0.2,0.2,0.5,0.3h0.3c0.2-0.4,0.4-0.7,0.5-0.9c0.5-0.6,1.1-0.9,1.8-0.9
					h0.2c1.1,0,1.9,0.3,2.4,0.8c0.6,0.5,0.8,1.2,0.8,2.1c0,0.9-0.4,2-1.3,3.3c-1.4,2.2-2.2,3.4-2.3,3.6c-0.8,1.6-1.2,3.2-1.2,4.9
					c0,1.5,0.4,2.9,1.2,4.3c0.7,1.2,1.9,2.4,3.5,3.6h-15l-0.3-0.1v-18.6c0-0.3,0-0.7,0.1-1c0.2-0.7,0.5-1.1,1.1-1.1
					c0.5,0,0.9,0.2,1.3,0.5c0.2,0.2,0.5,0.5,0.9,0.9l0.3-0.2c-0.2-0.8-0.5-1.5-0.8-2.1c-0.6-0.8-1.3-1.3-2.3-1.3
					c-1.1,0-2,0.4-2.5,1.1c-0.6,0.8-0.9,1.7-0.9,2.9v22.4h8.2h1.2h13.2c0,1.7,0.3,2.1,0.9,2.9c0.7,1,1.8,1.5,3.4,1.5
					c1.6,0,2.8-0.5,3.4-1.5c0.6-0.9,0.9-2.2,0.9-3.9v-16.6h-0.6C264.1,355.5,264,355.6,263.8,355.7z"/>
				<path class="st8" d="M268.6,346.1c0.5-0.3,1.1-0.5,1.7-0.5v-1c0-0.9,0.2-1.8,0.7-2.4c0.2-0.4,0.6-0.8,1-1.1v-0.8
					c-0.3,0-0.7-0.2-1.3-0.6c-0.6-0.4-1-0.9-1.3-1.4c-0.3-0.7-0.7-1.2-1.1-1.6l-0.3-0.2h-0.6v10.8
					C267.7,346.7,268.1,346.4,268.6,346.1z"/>
				<path class="st8" d="M276.5,371.9c-0.4-0.4-0.9-0.7-1.5-0.9c-0.6-0.3-1.1-0.6-1.5-1.2c-0.4-0.5-0.6-0.9-0.6-1.2H272
					c-0.2,0.3-0.4,0.6-0.6,0.8c-0.3,0.4-0.6,0.6-1,0.7v-19.6c0-0.3,0-0.7,0.1-1c0.2-0.7,0.5-1.1,1.1-1.1c0.5,0,0.9,0.2,1.3,0.5
					c0.2,0.2,0.5,0.5,0.9,0.9l0.3-0.2c-0.2-0.8-0.5-1.5-0.8-2.1c-0.6-0.8-1.3-1.3-2.3-1.3c-1.1,0-2,0.4-2.6,1.1
					c-0.6,0.8-0.9,1.7-0.9,2.9v22.4h9.4v-0.6L276.5,371.9z"/>
				<path class="st8" d="M234.9,346.1c0.5-0.3,1.1-0.5,1.7-0.5v-1c0-0.9,0.2-1.8,0.7-2.4c0.2-0.4,0.6-0.8,1-1.1v-0.8
					c-0.3,0-0.7-0.2-1.3-0.6c-0.6-0.4-1-0.9-1.3-1.4c-0.3-0.7-0.7-1.2-1.1-1.6l-0.3-0.2h-0.6v10.8
					C233.9,346.7,234.3,346.4,234.9,346.1z"/>
				<path class="st9" d="M231.2,367.1c0,3.6,0.2,4.3-0.1,7.3c-0.2,2.3-1.6,3.4-3.7,3.6c-2.2,0.2-3.7-0.8-4.3-3.1
					c-0.3-1.2-0.6-2.6-0.5-3.9c-3.8,0-7.8,0.1-12,0.1c0.7,1,1.2,1.8,1.6,2.4c-1.4,2.1-2.7,4.1-4.3,6.6c0-4.6,0-8.4,0-12.3
					c5.9,0,11.7,0,17.7,0c0,1.8-0.1,3.4,0.1,5c0.1,0.7,0.6,1.9,1.4,1.9c0.7,0,1.3-1.1,1.3-1.6c0.1-2.7-0.1-5.4-0.1-8.3
					c-7,0-13.6,0-20.4,0c0-3.9,0-7.5,0-11.7c1.6,2.2,3,3.9,4.4,5.8c-0.4,0.7-1,1.5-1.7,2.7c6.6,0,11.5,0,17.9,0
					c0.3,0,2.1-0.3,2.5,0.6C231.4,363.3,231.2,365.4,231.2,367.1z"/>
			</g>
			<g>
				<path class="st8" d="M227.9,432.1v-0.8l0.2-0.4c0.4-0.5,1-1.1,1.7-1.5c0.6-0.3,1.1-0.9,1.5-1.7c0.4-0.7,0.6-1.3,0.6-1.7h0.9
					c0.3,0.5,0.7,0.9,1.3,1.3c0.8,0.6,1.6,0.9,2.5,0.9h23.6v3.8c0,1.3,0.1,2.2,0.3,2.9c0.2,0.6,0.6,1,1.2,1c0.5,0,0.9-0.3,1.1-1
					c0.2-0.6,0.3-1.6,0.3-2.8v-7.6c0-1-0.1-1.9-0.4-2.8c-0.3-0.9-0.7-1.6-1.3-2.2v-1.1c0.3,0,0.8-0.3,1.3-0.9c0.6-0.6,1-1.2,1.3-2
					c0.3-0.7,0.6-1.4,1-1.9c0.1-0.2,0.3-0.4,0.5-0.6h0.6v19c0,2.4-0.3,4.3-0.9,5.5c-0.7,1.4-1.9,2.1-3.5,2.1c-1.6,0-2.8-0.7-3.5-2.1
					c-0.6-1.2-0.9-3.1-0.9-5.5H227.9z M247.8,417.8c0,0.8-0.2,1.5-0.7,2c-0.4,0.6-1,0.8-1.6,0.8c-0.6,0-1.1-0.3-1.6-0.8
					c-0.4-0.6-0.7-1.2-0.7-2c0-0.8,0.2-1.5,0.7-2c0.4-0.6,1-0.8,1.6-0.8c0.6,0,1.1,0.3,1.6,0.8C247.6,416.3,247.8,417,247.8,417.8z
					 M253.7,417.8c0,0.8-0.2,1.5-0.6,2c-0.4,0.6-1,0.8-1.6,0.8c-0.6,0-1.1-0.3-1.6-0.8c-0.4-0.6-0.7-1.2-0.7-2c0-0.8,0.2-1.5,0.7-2
					c0.4-0.6,1-0.8,1.6-0.8c0.6,0,1.1,0.3,1.6,0.8C253.5,416.3,253.7,417,253.7,417.8z"/>
				<path class="st8" d="M345.3,397.3c-0.4,0.3-0.8,0.7-1,1.1c-0.5,0.7-0.7,1.6-0.7,2.6v1.1c-0.6,0-1.2,0.2-1.8,0.5
					c-0.5,0.3-0.9,0.7-1.2,1.2v-11.4h0.6l0.3,0.2c0.4,0.4,0.8,1,1.2,1.7c0.3,0.5,0.7,1,1.3,1.5c0.5,0.4,1,0.6,1.3,0.6V397.3z
					 M350.3,429.7h-9.7v-22.6c0-1.3,0.3-2.3,0.9-3.1c0.6-0.8,1.5-1.2,2.6-1.2c1,0,1.8,0.4,2.3,1.3c0.4,0.6,0.7,1.3,0.9,2.2l-0.3,0.2
					c-0.4-0.5-0.7-0.8-0.9-1c-0.4-0.4-0.9-0.5-1.4-0.5c-0.5,0-0.9,0.4-1.1,1.1c-0.1,0.3-0.1,0.7-0.1,1v19.6c0.4-0.1,0.7-0.3,1-0.7
					c0.2-0.3,0.4-0.6,0.6-0.9h0.9c0,0.3,0.2,0.7,0.7,1.3c0.4,0.5,1,1,1.5,1.2c0.6,0.3,1.1,0.6,1.5,1l0.4,0.4V429.7z"/>
				<path class="st8" d="M212.1,389.1c-0.5,0.5-0.9,0.9-1.1,1.5c-0.5,1-0.7,2.1-0.7,3.4v1.4c-0.7,0-1.3,0.2-1.9,0.6
					c-0.6,0.4-1,0.9-1.3,1.6v-14.9h0.7l0.3,0.3c0.5,0.5,0.9,1.3,1.3,2.2c0.3,0.7,0.8,1.4,1.4,2c0.6,0.6,1.1,0.8,1.4,0.8V389.1z
					 M217.5,431.5h-10.5V402c0-1.7,0.3-3,1-4.1c0.6-1.1,1.6-1.6,2.8-1.6c1.1,0,1.9,0.6,2.5,1.7c0.4,0.8,0.7,1.7,0.9,2.8l-0.3,0.3
					c-0.4-0.6-0.7-1.1-1-1.3c-0.5-0.5-1-0.7-1.5-0.7c-0.6,0-1,0.5-1.2,1.5c-0.1,0.4-0.1,0.9-0.1,1.4v25.6c0.4-0.1,0.8-0.4,1.1-0.9
					c0.2-0.4,0.4-0.8,0.7-1.1h0.9c0,0.4,0.2,1,0.7,1.7c0.5,0.7,1,1.2,1.7,1.6c0.6,0.3,1.2,0.8,1.6,1.3c0.1,0.2,0.3,0.4,0.5,0.6
					V431.5z"/>
				<path class="st8" d="M274.7,387.9c-0.5,0.5-0.9,0.9-1.1,1.5c-0.5,0.9-0.7,2.1-0.7,3.3v1.4c-0.7,0-1.4,0.2-2,0.6
					c-0.6,0.4-1,0.9-1.3,1.6v-14.7h0.7l0.3,0.3c0.5,0.5,0.9,1.2,1.3,2.2c0.3,0.7,0.8,1.4,1.4,1.9c0.6,0.5,1.1,0.8,1.4,0.8V387.9z
					 M280.2,429.9h-10.6v-29.3c0-1.6,0.3-3,1-4c0.7-1,1.6-1.6,2.9-1.6c1.1,0,1.9,0.6,2.6,1.7c0.4,0.7,0.7,1.7,0.9,2.8l-0.3,0.3
					c-0.4-0.6-0.8-1-1-1.3c-0.5-0.5-1-0.7-1.5-0.7c-0.6,0-1,0.5-1.2,1.5c-0.1,0.4-0.1,0.9-0.1,1.3v26.2c0.4-0.1,4.6,0.1,5.2,0.4
					c0.7,0.3,1.2,0.8,1.7,1.3c0.1,0.2,0.3,0.3,0.5,0.6V429.9z"/>
				<path class="st8" d="M334,407.6c0-0.5-0.1-1-0.2-1.4c-0.2-0.5-0.5-0.8-1-0.8c-0.5,0-1,0.2-1.4,0.5c-0.2,0.1-0.5,0.5-0.9,1
					l-0.3-0.2c0.2-0.9,0.5-1.6,0.8-2.2c0.6-0.9,1.4-1.3,2.4-1.3c1.1,0,2,0.4,2.6,1.3c0.6,0.8,0.9,1.8,0.9,3.1v22.2h-20.8v-2.9h8.4
					c-0.6-0.2-1.3-0.8-2.2-1.6c-1.1-1.1-2-2.2-2.7-3.5c-0.9-1.6-1.4-3.2-1.4-4.7c0-1.7,0.4-3.4,1.1-5c0.7-1.3,1.3-2.7,2-4
					c0.7-1.6,1.1-3.3,1.1-5v-0.3c0-0.7-0.3-1.3-1-1.8c-0.2-0.1-0.6-0.3-1-0.5v-0.3c0.2-0.2,0.3-0.4,0.4-0.4c0.3-0.3,0.7-0.5,1-0.5
					c0.2,0,0.5,0.1,0.7,0.3c0-0.4,0.5-1.2,1.4-2.2c0.5-0.6,0.9-1.1,1.1-1.4h0.4v6.6c0,2.3-0.4,4.4-1.1,6.3c-0.7,1.4-1.3,2.8-2,4.2
					c-0.7,1.5-1.1,3-1.1,4.3c0,1.2,0.6,2.6,1.8,4.2c1.2,1.6,2.8,2.9,4.6,3.9c2.1,1.2,4.2,1.8,6.2,1.8V407.6z M327.4,434.9
					c0,0.6-0.2,1.1-0.7,1.5c-0.4,0.4-1,0.6-1.6,0.6c-0.6,0-1.1-0.2-1.6-0.6c-0.4-0.4-0.7-0.9-0.7-1.5c0-0.6,0.2-1.1,0.7-1.5
					c0.4-0.4,1-0.6,1.6-0.6c0.6,0,1.2,0.2,1.6,0.6C327.1,433.7,327.4,434.2,327.4,434.9z M337,404.2c-0.2-0.5-0.6-0.9-1.2-1.2
					c-0.5-0.3-1.1-0.5-1.8-0.5V401c0-0.7-0.1-1.5-0.4-2.1c-0.3-0.7-0.7-1.2-1.3-1.6v-0.9c0.3,0,0.8-0.2,1.3-0.7
					c0.6-0.4,1-0.9,1.3-1.5c0.3-0.6,0.6-1.1,1-1.5l0.5-0.4h0.6V404.2z"/>
				<path class="st8" d="M200.3,402.6c0-0.7-0.1-1.3-0.2-1.8c-0.2-0.7-0.6-1-1.1-1c-0.5,0-1,0.2-1.5,0.7c-0.2,0.2-0.5,0.6-1,1.3
					l-0.3-0.3c0.2-1.1,0.5-2.1,0.9-2.8c0.6-1.1,1.5-1.7,2.6-1.7c1.2,0,2.2,0.6,2.9,1.6c0.6,1,1,2.3,1,4v28.6h-22.5v-3.7h9.1
					c-0.6-0.3-1.4-1-2.4-2.1c-1.2-1.4-2.2-2.9-3-4.5c-1-2.1-1.5-4.1-1.5-6.1c0-2.2,0.4-4.4,1.2-6.5c0.7-1.7,1.4-3.5,2.2-5.2
					c0.8-2.1,1.2-4.2,1.2-6.5v-0.4c0-1-0.4-1.7-1.1-2.4c-0.2-0.2-0.6-0.4-1.1-0.7v-0.4c0.2-0.3,0.3-0.5,0.4-0.6
					c0.4-0.4,0.7-0.6,1.1-0.6c0.2,0,0.5,0.1,0.8,0.4c0-0.6,0.5-1.5,1.5-2.9c0.6-0.8,1-1.4,1.2-1.9h0.4v8.5c0,2.9-0.4,5.6-1.2,8.1
					c-0.7,1.8-1.4,3.6-2.2,5.4c-0.8,2-1.2,3.8-1.2,5.5c0,1.5,0.7,3.3,2,5.4c1.3,2,3,3.7,5,5.1c2.2,1.5,4.5,2.3,6.7,2.3V402.6z
					 M196.3,413.7c0,0.8-0.2,1.4-0.7,2c-0.5,0.5-1,0.8-1.7,0.8c-0.7,0-1.2-0.3-1.7-0.8c-0.5-0.6-0.7-1.2-0.7-2c0-0.8,0.2-1.4,0.7-2
					c0.5-0.6,1-0.8,1.7-0.8c0.7,0,1.2,0.3,1.7,0.8C196,412.3,196.3,412.9,196.3,413.7z M203.6,398.2c-0.3-0.6-0.7-1.2-1.3-1.6
					c-0.6-0.4-1.2-0.6-1.9-0.6v-1.9c0-1-0.2-1.9-0.5-2.7c-0.3-0.8-0.8-1.5-1.4-2.1v-1.1c0.4,0,0.8-0.3,1.4-0.8
					c0.6-0.6,1.1-1.2,1.4-1.9c0.3-0.7,0.7-1.4,1.1-1.9c0.1-0.2,0.3-0.3,0.5-0.6h0.7V398.2z"/>
				<path class="st8" d="M299.9,428.6l-0.4-1.9h2.3h2.9c0-1.5,0.2-2.8,0.7-4c0.5-1.2,1.2-2.2,2.3-3.2c0.8-0.7,1.8-1.3,3-1.9
					c1.7-0.8,2.7-1.3,2.8-1.3c0.9-0.5,1.5-1.2,1.8-2h1.2v15.5h-14.7L299.9,428.6z M313.6,426.7v-7c-1,0.4-1.8,0.7-2.3,1
					c-0.6,0.3-1.1,0.7-1.6,1.1c-1.3,1.3-1.9,3-1.9,4.9H313.6z"/>
				<path class="st8" d="M140.5,426.7c0-1.5,0.2-2.8,0.7-4c0.5-1.2,1.3-2.2,2.4-3.2c0.8-0.7,1.9-1.3,3.3-1.9c1.9-0.8,2.7-1,3-1.3
					c0.8-0.8,0.4-1.2,0.5-2.3l2.7,0.3l0.1,15l-12.8,0.2L140.5,426.7z M150,426.7v-7c-1.1,0.4-1.9,0.7-2.5,1
					c-0.6,0.3-1.2,0.7-1.7,1.1c-1.4,1.3-2.1,3-2.1,4.9H150z"/>
				<path class="st8" d="M283.2,429.9H272v-3.3c0,0,7.6,0,8.3,0v-11.8c0-0.9-0.2-1.7-0.7-2.5c-0.3-0.5-0.7-1-1-1.3v-0.9
					c0.3,0,0.8-0.2,1.3-0.6c0.6-0.4,1-0.9,1.3-1.5c0.3-0.6,0.6-1.1,1-1.5l0.5-0.4h0.6V429.9z M281,435.9c0.6,0,1.1,0.2,1.6,0.7
					c0.4,0.4,0.7,0.9,0.7,1.5c0,0.6-0.2,1.1-0.7,1.5c-0.4,0.4-1,0.6-1.6,0.6c-0.6,0-1.2-0.2-1.6-0.6c-0.4-0.4-0.7-0.9-0.7-1.5
					c0-0.6,0.2-1.1,0.7-1.5C279.9,436.1,280.4,435.9,281,435.9z M281,441.7c0.6,0,1.1,0.2,1.6,0.6c0.4,0.4,0.7,0.9,0.7,1.5
					c0,0.6-0.2,1.1-0.7,1.5c-0.4,0.4-1,0.6-1.6,0.6c-0.6,0-1.2-0.2-1.6-0.6c-0.4-0.4-0.7-0.9-0.7-1.5c0-0.6,0.2-1.1,0.7-1.5
					C279.9,441.9,280.4,441.7,281,441.7z"/>
				<path class="st8" d="M181.3,431.2h-12.2v-3.3c0,0,8.2,0,9,0v-11.9c0-0.9-0.2-1.7-0.7-2.5c-0.3-0.6-0.7-1-1.1-1.3v-0.9
					c0.3,0,0.8-0.2,1.4-0.7c0.6-0.4,1.1-0.9,1.4-1.5c0.3-0.6,0.7-1.1,1.1-1.5l0.5-0.4h0.7V431.2z M180.5,432.8
					c0.7,0,1.3,0.2,1.7,0.6c0.5,0.4,0.7,1,0.7,1.6c0,0.6-0.2,1.1-0.7,1.6c-0.5,0.4-1,0.6-1.7,0.6c-0.7,0-1.2-0.2-1.7-0.6
					c-0.5-0.4-0.7-1-0.7-1.6c0-0.6,0.2-1.1,0.7-1.6C179.2,433.1,179.8,432.8,180.5,432.8z M180.5,438.7c0.7,0,1.3,0.2,1.7,0.6
					c0.5,0.4,0.7,1,0.7,1.6c0,0.6-0.2,1.1-0.7,1.6c-0.5,0.4-1,0.7-1.7,0.7c-0.7,0-1.2-0.2-1.7-0.7c-0.5-0.4-0.7-0.9-0.7-1.6
					c0-0.6,0.2-1.1,0.7-1.6C179.2,438.9,179.8,438.7,180.5,438.7z"/>
				<path class="st8" d="M161.1,429.3h-12.2v-2.3c0,0,8.2-0.4,9-0.4v-9.6c0-0.7-0.2-1.4-0.7-2c-0.3-0.5-0.7-0.8-1.1-1v-0.7
					c0.3,0,0.8-0.2,1.4-0.5c0.6-0.4,1.1-0.8,1.4-1.2c0.3-0.5,0.7-0.9,1.1-1.2l0.5-0.4h0.7V429.3z M146.1,404.4
					c0.7,0,1.2,0.2,1.7,0.6c0.5,0.4,0.7,0.9,0.7,1.4c0,0.5-0.2,1-0.7,1.4c-0.5,0.4-1,0.6-1.7,0.6c-0.7,0-1.2-0.2-1.7-0.6
					c-0.5-0.4-0.7-0.8-0.7-1.4c0-0.5,0.2-1,0.7-1.4C144.8,404.6,145.4,404.4,146.1,404.4z M146.1,409.6c0.7,0,1.2,0.2,1.7,0.6
					c0.5,0.4,0.7,0.8,0.7,1.4c0,0.5-0.2,1-0.7,1.4c-0.5,0.4-1,0.6-1.7,0.6c-0.7,0-1.2-0.2-1.7-0.6c-0.5-0.4-0.7-0.8-0.7-1.4
					c0-0.5,0.2-1,0.7-1.4C144.8,409.7,145.4,409.6,146.1,409.6z M158.9,432.8c0.7,0,1.3,0.2,1.7,0.6c0.5,0.4,0.7,1,0.7,1.6
					c0,0.6-0.2,1.1-0.7,1.6c-0.5,0.4-1,0.6-1.7,0.6c-0.7,0-1.2-0.2-1.7-0.6c-0.5-0.4-0.7-1-0.7-1.6c0-0.6,0.2-1.1,0.7-1.6
					C157.6,433,158.2,432.8,158.9,432.8z M158.9,438.6c0.7,0,1.3,0.2,1.7,0.6c0.5,0.4,0.7,1,0.7,1.6c0,0.6-0.2,1.1-0.7,1.6
					c-0.5,0.4-1,0.7-1.7,0.7c-0.7,0-1.2-0.2-1.7-0.7c-0.5-0.4-0.7-0.9-0.7-1.6c0-0.6,0.2-1.1,0.7-1.6
					C157.6,438.9,158.2,438.6,158.9,438.6z"/>
				<path class="st8" d="M153.7,428.8h-12.2v-1.9c0,0,8.2,0,9,0v-21.3c0-1-0.2-2-0.7-2.9c-0.3-0.6-0.7-1.1-1.1-1.5v-1
					c0.3,0,0.8-0.3,1.4-0.8c0.6-0.5,1.1-1.1,1.4-1.8c0.3-0.7,0.7-1.3,1.1-1.7c0.1-0.1,0.3-0.3,0.5-0.5h0.7V428.8z"/>
				<path class="st8" d="M304,429.9h-2.4c-1.2,0-2.5-0.4-3.7-1.1c-1-0.6-2.2-1.6-3.6-3c-1.4,1.3-2.6,2.3-3.6,2.9
					c-1.3,0.8-2.5,1.2-3.8,1.2h-3.9v-3.2h3.9c0.8,0,1.7-0.3,2.5-0.8c0.7-0.4,1.5-1.2,2.6-2.2c-0.6-0.4-1.8-1-3.4-1.7
					c-0.6-0.2-1.3-0.5-2.3-0.9c0-1.9,0.5-3.6,1.5-4.9c0.5-0.7,1.6-1.8,3.3-3.1c1.6-1.2,2.6-2.3,3.2-3.2c0.6,0.9,1.6,2,3.1,3.2
					c1.6,1.3,2.7,2.3,3.3,3.1c1,1.4,1.5,3.1,1.5,5c-1,0.4-1.7,0.6-2.3,0.9c-1.6,0.7-2.8,1.2-3.4,1.7c1,1,1.8,1.7,2.5,2.2
					c0.9,0.6,1.7,0.9,2.5,0.9h2.4V429.9z M298.8,418.8c-0.2-0.7-0.8-1.4-1.7-2.2c-1.2-1-2.2-1.8-2.8-2.3c-1.4,1.1-2.3,1.9-2.9,2.3
					c-0.9,0.8-1.5,1.5-1.8,2.2c0.6,0.2,1.3,0.6,2.2,1.1c1.1,0.6,1.9,1.1,2.4,1.4c0.5-0.4,1.3-0.8,2.4-1.4
					C297.2,419.5,298,419.2,298.8,418.8z"/>
				<path class="st9" d="M170.9,413.7h-0.7l-0.5,0.3c-0.4,0.3-0.8,0.6-1.1,1c-0.3,0.4-0.8,0.8-1.4,1.1c-0.6,0.3-1.1,0.5-1.4,0.5v0.6
					c0.4,0.2,0.8,0.5,1.1,0.9c0.5,0.5,0.7,1.1,0.7,1.8v8.3l0,0c0,0.2,0,0.4,0,0.5c0.1,5.9,0.1,11.8-6.8,15.1c6,0.8,9.2-2.3,10-12.2
					c0-0.3,0-0.7,0-1V413.7z"/>
			</g>
			<g>
				<path class="st8" d="M180.1,449.9c-0.4,0.4-0.7,0.8-1,1.2c-0.4,0.8-0.6,1.7-0.6,2.8v1.1c-0.6,0-1.1,0.2-1.6,0.5
					c-0.5,0.3-0.9,0.8-1.1,1.3v-12.4h0.6l0.2,0.2c0.4,0.4,0.8,1,1.1,1.8c0.2,0.6,0.6,1.1,1.2,1.6c0.5,0.5,0.9,0.7,1.2,0.7V449.9z
					 M184.7,476.3h-8.9v-15.7c0-1.4,0.3-2.5,0.8-3.4c0.5-0.9,1.4-1.3,2.4-1.3c0.9,0,1.6,0.5,2.2,1.4c0.4,0.6,0.6,1.4,0.8,2.3
					l-0.2,0.2c-0.4-0.5-0.6-0.9-0.8-1.1c-0.4-0.4-0.8-0.6-1.3-0.6c-0.5,0-0.8,0.4-1,1.2c-0.1,0.4-0.1,0.7-0.1,1.1v13.2
					c0.4-0.1,3.8,0.1,4.4,0.3c0.5,0.3,1,0.6,1.4,1.1c0.1,0.1,0.3,0.3,0.4,0.5V476.3z"/>
				<path class="st8" d="M253.5,476.3h-1.9c0,1.2-0.5,2.2-1.4,3.1c-0.9,0.9-2,1.3-3.2,1.3c-2.1,0-3.7-0.5-4.6-1.5
					c-0.6-0.7-1-1.7-1.2-3c-0.2-1.2-0.4-1.9-0.6-2c-0.3,0-0.6,0.4-1,1.3c-0.1-0.3-0.1-0.5-0.1-0.7c0-0.4,0.2-0.8,0.6-1.2
					c-0.3-0.1-0.4-0.3-0.4-0.6c0-0.5,0.2-1,0.5-1.5c0,0.3,0.2,0.8,0.7,1.5c0.6,0.8,0.9,1.3,0.9,1.5c0.5,1.8,0.9,2.9,1.1,3.3
					c0.6,1.1,1.6,1.6,2.9,1.6c0.8,0,1.4-0.3,1.9-0.9c0.4-0.5,0.6-1.2,0.6-2.1h-4.8v-3c0-1.5,0.5-2.7,1.6-3.6c1-0.9,2.2-1.4,3.8-1.6
					c0.8-0.1,1.4-0.2,1.9-0.5c0.4-0.2,0.8-0.5,1.2-1.1v6.8h1.5V476.3z M247.6,464.6c0,0.8-0.4,1.1-1.2,1.1c-0.8,0-1.1-0.4-1.1-1.1
					c0-0.7,0.4-1.1,1.1-1.1C247.3,463.4,247.6,463.8,247.6,464.6z M249,473.3v-2.2c-1.7,0-2.6,0.7-2.6,2.2H249z M250.7,464.6
					c0,0.8-0.4,1.1-1.2,1.1c-0.8,0-1.1-0.4-1.1-1.1c0-0.7,0.4-1.1,1.1-1.1C250.3,463.4,250.7,463.8,250.7,464.6z"/>
				<path class="st8" d="M269.9,476.3h-20.2v-3h6.1v-4.5c0-1-0.5-1.5-1.5-1.5c2.3-0.6,3.8-1.6,4.6-3v9h2.3v-6c0-1-0.5-1.5-1.5-1.5
					c2.4-0.7,3.9-1.7,4.6-3v10.5h2.3v-7.5c0-1-0.5-1.5-1.5-1.5c1.2-0.3,2-0.7,2.6-1c0.6-0.4,1.3-1,2-2v12h0.3V476.3z M259.1,460.9
					c0,0.8-0.4,1.1-1.2,1.1c-0.8,0-1.1-0.4-1.1-1.1c0-0.7,0.4-1.1,1.1-1.1C258.7,459.8,259.1,460.2,259.1,460.9z M260.6,458
					c0,0.7-0.4,1.1-1.1,1.1c-0.8,0-1.2-0.4-1.2-1.1c0-0.8,0.4-1.1,1.2-1.1C260.2,456.8,260.6,457.2,260.6,458z M262.2,460.9
					c0,0.8-0.4,1.1-1.2,1.1c-0.8,0-1.1-0.4-1.1-1.1c0-0.7,0.4-1.1,1.1-1.1C261.8,459.8,262.2,460.2,262.2,460.9z"/>
				<path class="st8" d="M281,476.3h-12.5v-3h3.7c0-2.1,0.6-3.6,1.9-4.5c0.8-0.6,2-1,3.7-1.3c1.5-0.2,2.4-0.4,2.6-0.7
					c0.1-0.1,0.3-0.4,0.6-0.9V476.3z M277.9,473.3v-2.8c-1.7,0-2.6,0.9-2.6,2.8H277.9z"/>
				<path class="st8" d="M310.1,476.3h-24.7v-3h20.1v-6.1c0-0.7-0.4-1.1-1.2-1.1c-0.7,0-1.1,0.4-1.1,1.1v3.8h-17.8V456
					c0-0.1,0-0.2,0-0.3c0.3,1.2,0.9,2.3,1.6,3.2c0.9,1.1,1.9,1.7,3,1.7c-1,0-1.5,0.5-1.5,1.5v6h11.7c0-1.4,0.3-2.6,1-3.5
					c0.7-1,1.8-1.5,3.2-1.5c1.2,0,2.2,0.4,3,1.2c0.8,0.8,1.2,1.8,1.2,3v6.1h1.5V476.3z"/>
				<path class="st8" d="M315,480.8c-0.9-0.7-1.6-1.3-2-1.9c-0.3-0.5-0.7-1.4-1-2.6h-3.1v-3h3.1v-4.5c0-0.9-0.4-1.4-1.2-1.5
					c1.3-0.4,2.2-1,2.8-1.6c0.5-0.6,1-1.6,1.4-2.9V480.8z M311.8,480.5c0,0.7-0.4,1.1-1.2,1.1c-0.8,0-1.1-0.4-1.1-1.1
					c0-0.8,0.4-1.1,1.1-1.1C311.4,479.3,311.8,479.7,311.8,480.5z"/>
				<g>
					<path class="st8" d="M177.7,473.6h3v2.8h-3V473.6z"/>
					<path class="st8" d="M191.7,477.7c0,1.1-0.4,2.1-1.2,2.9c-0.8,0.8-1.8,1.2-2.9,1.2c-1.1,0-2.1-0.4-2.9-1.2
						c-0.8-0.8-1.2-1.8-1.2-2.9v-1.4h-3.1v-2.8h3.1c0-1,0.2-1.9,0.5-2.7c0.4-0.8,0.9-1.6,1.5-2.2c0.6-0.6,1.3-1.1,1.9-1.4
						c0.6-0.3,1.2-0.5,1.6-0.5v-1.1c0-0.4-0.1-0.6-0.4-0.7c-0.3-0.1-0.6-0.1-0.9,0.1c0-0.7,0.2-1.1,0.7-1.3c0.5-0.2,0.9-0.1,1.3,0.4
						c-0.5-0.8-0.3-1.7,0.6-2.4c1-0.8,1.5-1.4,1.5-1.9c0,0,0,0,0,0c0,0,0,0,0,0v7c0.5,0.1,1,0.3,1.6,0.5c0.6,0.3,1.3,0.7,1.9,1.3
						c0.6,0.6,1.1,1.4,1.5,2.2c0.4,0.8,0.5,1.7,0.5,2.7v2.8h-5.5V477.7z M186.2,473.6h2.8v-3.9c-0.7,0.3-1.2,0.6-1.6,1
						c-0.4,0.4-0.7,0.8-0.9,1.3C186.3,472.4,186.2,473,186.2,473.6z M186.6,478.7c0.3,0.3,0.6,0.4,1,0.4c0.4,0,0.7-0.1,1-0.4
						c0.3-0.3,0.4-0.6,0.4-1v-1.4h-2.8v1.4C186.2,478.1,186.3,478.4,186.6,478.7z M194.5,473.6c0-0.6-0.1-1.1-0.3-1.6
						c-0.2-0.5-0.5-0.9-0.9-1.3c-0.4-0.4-0.9-0.7-1.5-1v3.9H194.5z"/>
					<path class="st8" d="M196.9,473.6h8.7v2.7H200v-4.2c0-1.1,0.4-2.1,1.2-2.9c0.8-0.8,1.8-1.2,2.9-1.2c1.4,0,2.4-0.1,2.9-0.3
						c0.6-0.2,1-0.6,1.2-1.1v9.7h-11.4V473.6z M205.5,470.7h-1.4c-0.4,0-0.7,0.1-1,0.4s-0.4,0.6-0.4,1v1.4h2.8V470.7z M202.8,464.3
						c0-0.4,0.1-0.7,0.4-1c0.3-0.3,0.6-0.4,1-0.4c0.4,0,0.7,0.1,1,0.4c0.3,0.3,0.4,0.6,0.4,1c0,0.4-0.1,0.7-0.4,1
						c-0.3,0.3-0.6,0.4-1,0.4c-0.4,0-0.7-0.1-1-0.4C203,465.1,202.8,464.7,202.8,464.3z"/>
					<path class="st8" d="M212.4,471.2c0-0.4-0.1-0.6-0.4-0.7s-0.6-0.1-0.9,0c0-0.7,0.2-1.1,0.7-1.3c0.5-0.2,0.9-0.1,1.3,0.4
						c-0.5-0.9-0.3-1.7,0.6-2.4c1-0.8,1.5-1.4,1.5-1.9c0,0,0,0,0,0s0,0,0,0v11h-7.2v-2.8h4.5V471.2z M208.6,479.5
						c0-0.4,0.1-0.7,0.4-1c0.3-0.3,0.6-0.4,1-0.4c0.4,0,0.7,0.1,1,0.4c0.3,0.3,0.4,0.6,0.4,1c0,0.4-0.1,0.7-0.4,1
						c-0.3,0.3-0.6,0.4-1,0.4c-0.4,0-0.7-0.1-1-0.4C208.8,480.2,208.6,479.9,208.6,479.5z M212.1,479.5c0-0.4,0.1-0.7,0.4-1
						c0.3-0.3,0.6-0.4,1-0.4c0.4,0,0.7,0.1,1,0.4c0.3,0.3,0.4,0.6,0.4,1c0,0.4-0.1,0.7-0.4,1c-0.3,0.3-0.6,0.4-1,0.4
						c-0.4,0-0.7-0.1-1-0.4C212.3,480.2,212.1,479.9,212.1,479.5z"/>
					<path class="st8" d="M219.9,474c0-0.4-0.1-0.6-0.4-0.7s-0.6-0.1-0.9,0c0-0.7,0.2-1.1,0.7-1.3c0.5-0.2,0.9-0.1,1.3,0.4
						c-0.5-0.9-0.3-1.7,0.6-2.4c1-0.8,1.5-1.4,1.5-1.9c0,0,0,0,0,0s0,0,0,0v8.2c-0.1,2.8-1.3,4.2-3.8,4.2c-1.3,0-2.3-0.4-3.1-1.3
						c-0.1-0.1-0.1-0.1,0-0.1c2.7,0,4.1-0.9,4.1-2.8V474z"/>
					<path class="st8" d="M225.3,476.3v-4.2c0-1.1,0.4-2.1,1.2-2.9c0.8-0.8,1.8-1.2,2.9-1.2c1.4,0,2.4-0.1,2.9-0.3
						c0.6-0.2,1-0.6,1.2-1.1v11.1c0,2.8-1.4,4.1-4.1,4.1c-1.3,0-2.4-0.4-3.5-1.3c-0.1-0.1-0.1-0.2,0-0.2c3.2,0,4.7-0.9,4.7-2.7v-1.4
						H225.3z M230.8,470.8h-1.4c-0.4,0-0.7,0.1-1,0.4c-0.3,0.3-0.4,0.6-0.4,1v1.4h2.8V470.8z"/>
				</g>
			</g>
		</g>
	</g>
</g>
</svg>
