<?xml version="1.0" encoding="utf-8"?>
<!-- Generator: Adobe Illustrator 26.0.2, SVG Export Plug-In . SVG Version: 6.00 Build 0)  -->
<svg version="1.1" id="Layer_1" xmlns="http://www.w3.org/2000/svg" xmlns:xlink="http://www.w3.org/1999/xlink" x="0px" y="0px"
	 viewBox="0 0 749.9 377.6" style="enable-background:new 0 0 749.9 377.6;" xml:space="preserve">
<style type="text/css">
	.st0{fill:#3D2058;}
	.st1{fill:#00ACAD;}
</style>
<g>
	<g>
		<path id="XMLID_00000176044714760662467850000013860070188222716041_" class="st0" d="M41.9,317.6c0.8-1.9,2-3.6,3.4-5
			c1.4-1.4,3.1-2.5,5-3.3c1.9-0.8,3.9-1.2,6.1-1.2h16.3v15.7c0,0.3,0,0.6,0,0.8c0,0.3,0,0.5,0,0.8c0,0.9,0,1.7-0.1,2.4
			c-0.1,0.7,0,1.2,0.1,1.7c0.1,0.4,0.4,0.7,0.9,0.9c0.5,0.2,1.2,0.3,2.2,0.3h4.1v8.5H75c-1.8,0-3.4-0.4-4.6-1.1
			c-1.2-0.7-2.2-1.5-2.9-2.4c-1.4,1.3-3,2.3-4.8,3c-1.8,0.7-3.7,1.1-5.7,1.1c-2.2,0-4.2-0.4-6.2-1.3c-2-0.9-3.7-2-5.2-3.5
			c-1.5-1.4-2.7-3.1-3.6-5.1c-0.9-1.9-1.3-4-1.3-6.2S41.1,319.5,41.9,317.6z M48.9,293.4c1-1.1,2.3-1.6,3.8-1.6
			c1.5,0,2.8,0.5,3.8,1.6c1,1.1,1.6,2.3,1.6,3.8c0,1.4-0.5,2.7-1.6,3.7c-1,1-2.3,1.6-3.8,1.6c-1.5,0-2.8-0.5-3.8-1.6
			c-1-1-1.6-2.3-1.6-3.7C47.3,295.8,47.8,294.5,48.9,293.4z M51.6,329.1c1.3,1.3,2.9,2,4.8,2c0.9,0,1.8-0.2,2.6-0.5
			c0.8-0.3,1.5-0.8,2.1-1.4c0.6-0.6,1.1-1.3,1.4-2.1c0.4-0.8,0.5-1.7,0.5-2.6v-7.8h-6.7c-1,0-1.8,0.2-2.6,0.7
			c-0.8,0.5-1.5,1.1-2.1,1.8c-0.6,0.7-1.1,1.6-1.4,2.5c-0.3,0.9-0.5,1.8-0.5,2.8C49.6,326.2,50.3,327.8,51.6,329.1z M60.8,293.4
			c1-1.1,2.3-1.6,3.8-1.6c1.5,0,2.8,0.5,3.8,1.6c1,1.1,1.6,2.3,1.6,3.8c0,1.4-0.5,2.7-1.6,3.7c-1,1-2.3,1.6-3.8,1.6
			c-1.5,0-2.8-0.5-3.8-1.6c-1-1-1.6-2.3-1.6-3.7C59.3,295.8,59.8,294.5,60.8,293.4z"/>
		<path id="XMLID_00000139260265696197382730000013245312797257071025_" class="st0" d="M77.6,345.2c1-1.1,2.3-1.6,3.8-1.6
			s2.8,0.5,3.8,1.6c1,1.1,1.6,2.3,1.6,3.8c0,1.4-0.5,2.7-1.6,3.7c-1,1-2.3,1.6-3.8,1.6s-2.8-0.5-3.8-1.6c-1-1-1.6-2.3-1.6-3.7
			C76,347.6,76.5,346.3,77.6,345.2z M81.6,330.6c2.2,0,3.8-0.4,4.8-1.1c1-0.7,1.5-2.1,1.5-4v-13.7h9.3v13.8c0,2.4-0.4,4.5-1.1,6.2
			c-0.7,1.7-1.7,3.1-2.9,4.2c-1.2,1.1-2.6,1.9-4.1,2.4c-1.5,0.5-3.1,0.8-4.8,0.8h-5.8v-8.5H81.6z M89.5,345.2c1-1.1,2.3-1.6,3.8-1.6
			c1.5,0,2.8,0.5,3.8,1.6c1,1.1,1.6,2.3,1.6,3.8c0,1.4-0.5,2.7-1.6,3.7c-1,1-2.3,1.6-3.8,1.6c-1.5,0-2.8-0.5-3.8-1.6
			c-1-1-1.6-2.3-1.6-3.7C88,347.6,88.5,346.3,89.5,345.2z"/>
		<path id="XMLID_00000158015062866232914870000000457179143629053568_" class="st0" d="M124.3,339.1v3.6c0,1.7-0.3,3.3-0.8,4.7
			c-0.5,1.4-1.2,2.7-2.2,3.7c-1,1-2.1,1.8-3.5,2.4c-1.4,0.6-2.9,0.9-4.7,0.9h-2.5c-1.4,0-2.6-0.1-3.6-0.3c-1-0.2-1.6-0.4-1.8-0.5v-8
			c0.3,0.1,0.7,0.2,1.2,0.3c0.5,0.1,1.1,0.1,1.7,0.1h2.5c1.4,0,2.5-0.4,3.1-1.1c0.6-0.7,0.9-1.8,0.9-3.1v-29.9h9.6v18.8h7.1v8.5
			H124.3z"/>
		<path id="XMLID_00000067229964423574204100000010817201347684601482_" class="st0" d="M132.6,330.6c2.2,0,3.8-0.4,4.8-1.2
			c1-0.8,1.5-2.1,1.5-4.1v-13.6h9.6v13.3c0,1.9,0.4,3.3,1.2,4.2c0.8,0.9,2.2,1.3,4.3,1.3h4.1v8.5h-1.4c-2.4,0-4.3-0.4-5.8-1.2
			c-1.5-0.8-3-2.3-4.4-4.5c-0.9,1.9-2.3,3.4-4.1,4.3c-1.8,0.9-4,1.4-6.4,1.4h-5.8v-8.5H132.6z M134.2,345.2c1-1.1,2.3-1.6,3.8-1.6
			s2.8,0.5,3.8,1.6c1,1.1,1.6,2.3,1.6,3.8c0,1.4-0.5,2.7-1.6,3.7c-1,1-2.3,1.6-3.8,1.6s-2.8-0.5-3.8-1.6c-1-1-1.6-2.3-1.6-3.7
			C132.6,347.6,133.1,346.3,134.2,345.2z M146.1,345.2c1-1.1,2.3-1.6,3.8-1.6s2.8,0.5,3.8,1.6c1,1.1,1.6,2.3,1.6,3.8
			c0,1.4-0.5,2.7-1.6,3.7c-1,1-2.3,1.6-3.8,1.6s-2.8-0.5-3.8-1.6c-1-1-1.6-2.3-1.6-3.7C144.6,347.6,145.1,346.3,146.1,345.2z"/>
		<path id="XMLID_00000176753686408461531220000011495620883844208004_" class="st0" d="M181.8,330.6v-7.8c0-0.9-0.2-1.8-0.5-2.6
			c-0.4-0.8-0.8-1.5-1.4-2.2c-0.6-0.6-1.3-1.1-2.1-1.4s-1.7-0.5-2.6-0.5h-13.3l-0.1-8h14c2.2,0,4.2,0.4,6.1,1.2
			c1.9,0.8,3.6,1.9,5,3.3s2.6,3,3.4,4.9c0.8,1.9,1.2,3.9,1.2,6.1v7.2h6.2v8.5h-40.9v-8.5H181.8z M170.2,293.4c1-1.1,2.3-1.6,3.8-1.6
			s2.8,0.5,3.8,1.6c1,1.1,1.6,2.3,1.6,3.8c0,1.4-0.5,2.7-1.6,3.7c-1,1-2.3,1.6-3.8,1.6s-2.8-0.5-3.8-1.6c-1-1-1.6-2.3-1.6-3.7
			C168.7,295.8,169.2,294.5,170.2,293.4z"/>
		<path id="XMLID_00000059270025565551092410000004416832514751285659_" class="st0" d="M198,330.6c2.2,0,3.8-0.4,4.8-1.1
			c1-0.7,1.5-2.1,1.5-4v-43.7h9.3v43.8c0,2.4-0.4,4.5-1.1,6.2c-0.7,1.7-1.7,3.1-2.9,4.2c-1.2,1.1-2.6,1.9-4.1,2.4
			c-1.5,0.5-3.1,0.8-4.8,0.8h-4.4v-8.5H198z"/>
		<path id="XMLID_00000068679050159813009760000013724310819965222071_" class="st0" d="M225.3,281.8h9.3v57.3h-9.3V281.8z"/>
		<path id="XMLID_00000111892738424919982030000017108441115634158005_" class="st0" d="M310,329.5c1-0.7,1.5-2.1,1.5-4v-13.7h9.3
			v13.8c0,2.4-0.4,4.5-1.1,6.2c-0.7,1.7-1.7,3.1-2.9,4.2c-1.2,1.1-2.6,1.9-4.1,2.4c-1.5,0.5-3.1,0.8-4.8,0.8h-32.2
			c-1.6,0-3.2-0.3-4.8-0.8c-1.5-0.5-2.9-1.3-4.1-2.4c-1.2-1.1-2.2-2.5-2.9-4.2c-0.7-1.7-1.1-3.7-1.1-6.2v-13.8h9.3v13.7
			c0,1.9,0.5,3.3,1.5,4c1,0.7,2.6,1.1,4.8,1.1h26.7C307.4,330.6,309,330.2,310,329.5z M282.6,293.4c1-1.1,2.3-1.6,3.8-1.6
			c1.5,0,2.8,0.5,3.8,1.6c1,1.1,1.6,2.3,1.6,3.8c0,1.4-0.5,2.7-1.6,3.7c-1,1-2.3,1.6-3.8,1.6c-1.5,0-2.8-0.5-3.8-1.6
			c-1-1-1.6-2.3-1.6-3.7C281.1,295.8,281.6,294.5,282.6,293.4z M294.6,293.4c1-1.1,2.3-1.6,3.8-1.6c1.5,0,2.8,0.5,3.8,1.6
			c1,1.1,1.6,2.3,1.6,3.8c0,1.4-0.5,2.7-1.6,3.7c-1,1-2.3,1.6-3.8,1.6c-1.5,0-2.8-0.5-3.8-1.6c-1-1-1.6-2.3-1.6-3.7
			C293,295.8,293.6,294.5,294.6,293.4z"/>
		<path id="XMLID_00000130613454198907864920000003845304283997180337_" class="st0" d="M345.4,339.1c-1.6,0-3.2-0.3-4.8-0.8
			c-1.5-0.5-2.9-1.3-4.1-2.4c-1.2-1.1-2.2-2.5-2.9-4.2c-0.7-1.7-1.1-3.7-1.1-6.2v-43.8h9.3v43.7c0,1.9,0.5,3.3,1.5,4
			c1,0.7,2.6,1.1,4.8,1.1h1.7v8.5H345.4z"/>
		<path id="XMLID_00000027602599182576404010000011057436199800773562_" class="st0" d="M348.7,339.1v-8.5H364v8.5H348.7z"/>
		<path id="XMLID_00000133488337150748888280000002802652291881926046_" class="st0" d="M350.2,339.1v-8.5h15.3v8.5H350.2z"/>
		<path id="XMLID_00000097459568383002283300000017165107434368953224_" class="st0" d="M366.9,330.6c2.2,0,3.8-0.4,4.8-1.2
			c1-0.8,1.5-2.1,1.5-4.1v-13.6h9.6v13.3c0,1.9,0.4,3.3,1.2,4.2c0.8,0.9,2.2,1.3,4.3,1.3h4.1v8.5H391c-2.4,0-4.3-0.4-5.8-1.2
			c-1.5-0.8-3-2.3-4.4-4.5c-0.9,1.9-2.3,3.4-4.1,4.3c-1.8,0.9-4,1.4-6.4,1.4h-5.8v-8.5H366.9z M368.4,345.2c1-1.1,2.3-1.6,3.8-1.6
			c1.5,0,2.8,0.5,3.8,1.6c1,1.1,1.6,2.3,1.6,3.8c0,1.4-0.5,2.7-1.6,3.7c-1,1-2.3,1.6-3.8,1.6c-1.5,0-2.8-0.5-3.8-1.6
			c-1-1-1.6-2.3-1.6-3.7C366.9,347.6,367.4,346.3,368.4,345.2z M380.4,345.2c1-1.1,2.3-1.6,3.8-1.6c1.5,0,2.8,0.5,3.8,1.6
			c1,1.1,1.6,2.3,1.6,3.8c0,1.4-0.5,2.7-1.6,3.7c-1,1-2.3,1.6-3.8,1.6c-1.5,0-2.8-0.5-3.8-1.6c-1-1-1.6-2.3-1.6-3.7
			C378.8,347.6,379.4,346.3,380.4,345.2z"/>
		<path id="XMLID_00000137116418457074525410000000669796408965060786_" class="st0" d="M391.1,339.1v-8.5h7.8
			c-1-1.4-1.9-2.7-2.5-3.8c-0.7-1.1-1.2-2.2-1.6-3.1c-0.4-0.9-0.6-1.8-0.8-2.5c-0.1-0.7-0.2-1.5-0.2-2.1c0-2.2,0.5-4.1,1.4-5.6
			c0.9-1.5,2.2-2.7,3.8-3.6c1.6-0.9,3.4-1.6,5.5-2c2.1-0.4,4.2-0.6,6.5-0.6c2.2,0,4.4,0.2,6.5,0.6c2.1,0.4,4,1,5.6,2
			c1.6,0.9,2.9,2.1,3.9,3.6c1,1.5,1.4,3.4,1.4,5.6c0,1.3-0.3,2.8-1,4.6c-0.7,1.8-2.1,4.1-4.1,6.9h8.8v8.5H391.1z M406.5,316.3
			c-1,0.3-1.7,0.6-2.2,1c-0.5,0.4-0.9,0.8-1.1,1.3c-0.2,0.5-0.3,1-0.3,1.5c0,0.4,0.1,0.9,0.3,1.4c0.2,0.5,0.6,1.1,1.2,1.9
			c0.6,0.8,1.4,1.7,2.5,2.9c1.1,1.2,2.5,2.6,4.2,4.3c1.7-1.7,3.1-3.1,4.2-4.3c1.1-1.2,1.9-2.1,2.5-2.9c0.6-0.8,1-1.4,1.2-1.9
			c0.2-0.5,0.3-1,0.3-1.4c0-0.5-0.1-1-0.4-1.5s-0.7-1-1.3-1.3c-0.7-0.4-1.6-0.7-2.7-1c-1.2-0.3-2.7-0.4-4.6-0.4
			C408.7,315.9,407.5,316,406.5,316.3z"/>
		<path id="XMLID_00000100355869868801028120000009996953930044990388_" class="st0" d="M466,330.2c0.9,0.2,1.8,0.4,2.9,0.4h4.1v8.5
			h-1.4c-2.1,0-3.8-0.3-5.2-0.9c-1.4-0.6-2.7-1.7-3.9-3.3c-1.4,1.3-3,2.3-4.9,3.1c-1.8,0.7-3.8,1.1-5.9,1.1h-21.1v-8.5h4.8v-7.2
			c0-2.2,0.4-4.2,1.2-6.2c0.8-1.9,2-3.6,3.4-5.1c1.4-1.4,3.1-2.6,5-3.5c1.9-0.9,3.9-1.3,6.1-1.3c2.2,0,4.2,0.4,6.2,1.3
			c2,0.9,3.7,2,5.2,3.5c1.5,1.4,2.7,3.1,3.6,5.1c0.9,1.9,1.3,4,1.3,6.2C467.6,325.8,467.1,328.1,466,330.2z M456.7,318
			c-1.3-1.3-2.9-2-4.8-2c-0.9,0-1.8,0.2-2.6,0.5c-0.8,0.3-1.5,0.8-2.1,1.4c-0.6,0.6-1.1,1.4-1.4,2.2c-0.4,0.8-0.5,1.7-0.5,2.6v7.8
			h6.7c0.9,0,1.8-0.2,2.6-0.7s1.5-1.1,2.2-1.8c0.6-0.7,1.1-1.6,1.4-2.5c0.3-0.9,0.5-1.9,0.5-2.8C458.6,320.9,458,319.3,456.7,318z"
			/>
		<path id="XMLID_00000004522031480639499390000013816876883944696508_" class="st0" d="M496.7,330.6v-7.8c0-0.9-0.2-1.8-0.5-2.6
			c-0.4-0.8-0.8-1.5-1.4-2.2c-0.6-0.6-1.3-1.1-2.1-1.4c-0.8-0.3-1.7-0.5-2.6-0.5h-13.3l-0.1-8h14c2.2,0,4.2,0.4,6.1,1.2
			c1.9,0.8,3.6,1.9,5,3.3c1.4,1.4,2.6,3,3.4,4.9c0.8,1.9,1.2,3.9,1.2,6.1v7.2h6.2v8.5h-40.9v-8.5H496.7z M486.5,345.2
			c1-1.1,2.3-1.6,3.8-1.6c1.5,0,2.8,0.5,3.8,1.6c1,1.1,1.6,2.3,1.6,3.8c0,1.4-0.5,2.7-1.6,3.7c-1,1-2.3,1.6-3.8,1.6
			c-1.5,0-2.8-0.5-3.8-1.6c-1-1-1.6-2.3-1.6-3.7C484.9,347.5,485.4,346.2,486.5,345.2z"/>
		<path id="XMLID_00000161630012591012591710000014106488519256028336_" class="st0" d="M513,330.6c2.2,0,3.8-0.4,4.8-1.1
			c1-0.7,1.5-2.1,1.5-4v-43.7h9.3v43.8c0,2.4-0.4,4.5-1.1,6.2c-0.7,1.7-1.7,3.1-2.9,4.2c-1.2,1.1-2.6,1.9-4.1,2.4
			c-1.5,0.5-3.1,0.8-4.8,0.8h-4.4v-8.5H513z"/>
		<path id="XMLID_00000139280711992413110040000009342367671136097433_" class="st0" d="M540.2,281.8h9.3v57.3h-9.3V281.8z"/>
		<path id="XMLID_00000182494432888024433730000011428098309848185486_" class="st0" d="M599.1,330.6v-7.8c0-0.9-0.2-1.8-0.5-2.6
			c-0.4-0.8-0.8-1.5-1.4-2.2c-0.6-0.6-1.3-1.1-2.1-1.4s-1.7-0.5-2.6-0.5h-8.1l-0.1-8h8.8c2.2,0,4.2,0.4,6.1,1.2
			c1.9,0.8,3.6,1.9,5,3.3c1.4,1.4,2.6,3,3.4,4.9c0.8,1.9,1.2,3.9,1.2,6.1v15.7h-29.4v-8.5H599.1z"/>
		<path id="XMLID_00000020373383537731874210000000684585063699832754_" class="st0" d="M632.5,339.1c-1.6,0-3.2-0.3-4.8-0.8
			c-1.5-0.5-2.9-1.3-4.1-2.4c-1.2-1.1-2.2-2.5-2.9-4.2c-0.7-1.7-1.1-3.7-1.1-6.2v-43.8h9.3v43.7c0,1.9,0.5,3.3,1.5,4
			c1,0.7,2.6,1.1,4.8,1.1h1.7v8.5H632.5z"/>
		<path id="XMLID_00000013159641489880128660000018020677128955041977_" class="st0" d="M635.8,339.1v-8.5h15.3v8.5H635.8z"/>
		<path id="XMLID_00000180359158764102100400000014758670088752599688_" class="st0" d="M637.3,339.1v-8.5h15.3v8.5H637.3z"/>
		<path id="XMLID_00000181077055177602270250000010031256576667410312_" class="st0" d="M676.5,330.6v-7.8c0-0.9-0.2-1.8-0.5-2.6
			c-0.4-0.8-0.8-1.5-1.4-2.2c-0.6-0.6-1.3-1.1-2.1-1.4c-0.8-0.3-1.7-0.5-2.6-0.5h-13.3l-0.1-8h14c2.2,0,4.2,0.4,6.1,1.2
			c1.9,0.8,3.6,1.9,5,3.3c1.4,1.4,2.6,3,3.4,4.9c0.8,1.9,1.2,3.9,1.2,6.1v7.2h6.2v8.5h-40.9v-8.5H676.5z"/>
		<path id="XMLID_00000008852722872094306500000012136999602088659592_" class="st0" d="M690.9,293.4c1-1.1,2.3-1.6,3.8-1.6
			s2.8,0.5,3.8,1.6c1,1.1,1.6,2.3,1.6,3.8c0,1.4-0.5,2.7-1.6,3.7c-1,1-2.3,1.6-3.8,1.6s-2.8-0.5-3.8-1.6c-1-1-1.6-2.3-1.6-3.7
			C689.3,295.8,689.9,294.5,690.9,293.4z M694.1,330.6c2.2,0,3.8-0.4,4.8-1.1c1-0.7,1.5-2.1,1.5-4v-13.7h9.3v13.8
			c0,2.4-0.4,4.5-1.1,6.2c-0.7,1.7-1.7,3.1-2.9,4.2c-1.2,1.1-2.6,1.9-4.1,2.4c-1.5,0.5-3.1,0.8-4.8,0.8h-5.8v-8.5H694.1z
			 M702.9,293.4c1-1.1,2.3-1.6,3.8-1.6s2.8,0.5,3.8,1.6c1,1.1,1.6,2.3,1.6,3.8c0,1.4-0.5,2.7-1.6,3.7c-1,1-2.3,1.6-3.8,1.6
			s-2.8-0.5-3.8-1.6c-1-1-1.6-2.3-1.6-3.7C701.3,295.8,701.8,294.5,702.9,293.4z"/>
		<path id="XMLID_00000117669935983871460760000012762332816300805795_" class="st0" d="M721.4,281.8h9.3v57.3h-9.3V281.8z"/>
	</g>
	<g id="XMLID_00000128464766482292162050000004404643653323880127_">
		<g id="XMLID_00000036954261596932861780000005335946398553102526_">
			<polygon id="XMLID_00000032626886991731025600000001200266529844326537_" class="st1" points="730.7,152.5 700.3,182.9 
				639.5,122.1 616.6,144.7 586.2,114.5 639.5,61.3 692.7,61.3 692.7,114.5 			"/>
		</g>
	</g>
	<g id="XMLID_00000026141331971275648200000009417440051707411638_">
		<g id="XMLID_00000129911433059941914310000000664211357603384725_">
			<path id="XMLID_00000093896711072089408700000012225854139666790031_" class="st0" d="M434.2,244.3c-1.6,0-2.8-0.9-2.8-2v-180
				c0-1.1,1.3-2,2.8-2c1.6,0,2.8,0.9,2.8,2v180C437,243.5,435.7,244.3,434.2,244.3z"/>
		</g>
	</g>
	<g id="XMLID_00000161621377021050040130000013948431568279942550_">
		<g id="XMLID_00000114037781966080713290000001640566965470660531_">
			<path id="XMLID_00000024713263588280291510000005508606218349928349_" class="st1" d="M94.3,97.2v35.1c0,6.6-2.1,11.8-6.2,15.5
				c-4.1,3.8-9.7,5.6-16.6,5.6h-8c-7.4,0-13.2-2.1-17.3-6.2c-3.7-3.7-5.5-8.7-5.5-15v-14.4l5-4h4.8v17.5c0,5,1.3,8.6,3.9,10.7
				c2.6,2.1,7,3.1,13.2,3.1c6,0,10.3-1,12.8-2.9c2.8-2.1,4.2-5.8,4.2-10.9V97.2H94.3z M66.9,96.2c1.4,0,2.7,0.5,3.7,1.5
				c1,1,1.5,2.3,1.5,3.7c0,1.4-0.5,2.7-1.5,3.7c-1,1-2.3,1.5-3.7,1.5c-1.4,0-2.6-0.5-3.6-1.5c-1-1-1.5-2.3-1.5-3.7
				c0-1.4,0.5-2.7,1.5-3.7C64.3,96.7,65.5,96.2,66.9,96.2z"/>
		</g>
		<g id="XMLID_00000109722720182070612260000018305294210902469253_">
			<path id="XMLID_00000160892035431245758210000016543722757897673876_" class="st1" d="M115.2,76.6V124c0,0.5,0.2,1,0.5,1.3
				c0.3,0.5,0.8,0.7,1.5,0.7h2.1v8.2h-5.2c-2.2,0-4.1-0.8-5.8-2.3c-1.9-1.8-2.9-3.9-2.9-6.5V76.6H115.2z"/>
		</g>
		<g id="XMLID_00000129896714848692599630000011311047720346494388_">
			<path id="XMLID_00000178183764953397936180000003696842177337330858_" class="st1" d="M142.9,97.2v27.6v1.2h4.1v8.2h-2.8l-3-3.3
				h-0.2c-1.8,2.2-4.1,3.3-6.8,3.3h-15.5V126h12.1c0.8,0,1.3-0.2,1.6-0.6c0.5-0.4,0.7-1,0.7-1.6V97.2H142.9z M125.5,140
				c1.4,0,2.7,0.5,3.7,1.5c1,1,1.5,2.3,1.5,3.7c0,1.4-0.5,2.7-1.5,3.7c-1,1-2.3,1.5-3.7,1.5s-2.7-0.5-3.7-1.5c-1-1-1.5-2.3-1.5-3.7
				c0-1.4,0.5-2.7,1.5-3.7C122.8,140.6,124,140,125.5,140z M137.7,140c1.4,0,2.7,0.5,3.7,1.5c1,1,1.5,2.3,1.5,3.7
				c0,1.4-0.5,2.7-1.5,3.7c-1,1-2.3,1.5-3.7,1.5c-1.4,0-2.6-0.5-3.6-1.5c-1-1-1.5-2.3-1.5-3.7c0-1.4,0.5-2.7,1.5-3.7
				C135.1,140.6,136.3,140,137.7,140z"/>
		</g>
		<g id="XMLID_00000138539252515961110360000017164525223861628293_">
			<path id="XMLID_00000071550225011844662000000012683351871089681580_" class="st1" d="M161.3,126v8.2h-14.9V126H161.3z"/>
		</g>
		<g id="XMLID_00000054257992239535884600000014628021716968113067_">
			<path id="XMLID_00000048468404778963243290000010210011506369433770_" class="st1" d="M185,97.2v27.6v1.2h4.1v8.2h-2.8l-3-3.3
				h-0.2c-1.8,2.2-4.1,3.3-6.8,3.3h-15.5V126h12.1c0.8,0,1.3-0.2,1.6-0.6c0.5-0.4,0.7-1,0.7-1.6V97.2H185z M180.1,79.5
				c1.4,0,2.7,0.5,3.7,1.5c1,1,1.5,2.3,1.5,3.7c0,1.4-0.5,2.6-1.5,3.6c-1,1-2.3,1.5-3.7,1.5c-1.4,0-2.6-0.5-3.6-1.5
				c-1-1-1.5-2.2-1.5-3.6c0-1.4,0.5-2.7,1.5-3.7C177.5,80,178.7,79.5,180.1,79.5z"/>
		</g>
		<g id="XMLID_00000005259496096344612630000017101571842729864360_">
			<path id="XMLID_00000152247173744279398490000004006841648876253630_" class="st1" d="M203.4,126v8.2h-14.9V126H203.4z"/>
		</g>
		<g id="XMLID_00000177472075791376892830000011525721944205449090_">
			<path id="XMLID_00000152251526849223301940000003580168630873853847_" class="st1" d="M227.1,97.2v28.1c0,2.1-0.7,4-2.1,5.8
				c-1.8,2-4,3.1-6.6,3.1h-15.5V126h12.4c0.6,0,1.1-0.2,1.5-0.6c0.4-0.4,0.6-0.8,0.6-1.4V97.2H227.1z M220.4,140
				c1.4,0,2.7,0.5,3.7,1.5c1,1,1.5,2.3,1.5,3.7c0,1.4-0.5,2.7-1.5,3.7c-1,1-2.3,1.5-3.7,1.5s-2.7-0.5-3.7-1.5c-1-1-1.5-2.3-1.5-3.7
				c0-1.4,0.5-2.7,1.5-3.7C217.7,140.6,218.9,140,220.4,140z"/>
		</g>
		<g id="XMLID_00000151502174671029002080000001961442449638241722_">
			<path id="XMLID_00000060004680248696324360000008875844655669114300_" class="st1" d="M268.2,97.2V126h4.1v8.2h-4.2
				c-0.4,6.5-3,11.4-7.7,14.9c-3.9,2.8-8.6,4.2-14.3,4.2c-0.7,0-1.7,0-3-0.1l-3.9-4.9v-3.5c1.7,0.3,3.4,0.4,5,0.4
				c9.5,0,14.2-4.6,14.2-13.8V97.2H268.2z M263.3,79.5c1.4,0,2.7,0.5,3.7,1.5c1,1,1.5,2.3,1.5,3.7c0,1.4-0.5,2.6-1.5,3.6
				c-1,1-2.3,1.5-3.7,1.5c-1.4,0-2.7-0.5-3.7-1.5c-1-1-1.5-2.2-1.5-3.7c0-1.4,0.5-2.7,1.5-3.7C260.6,80,261.8,79.5,263.3,79.5z"/>
		</g>
		<g id="XMLID_00000098901520083930263210000002793522820993079185_">
			<path id="XMLID_00000032620421959047138220000011049005293921648530_" class="st1" d="M310,75.5v9.1l-16.8,10.2
				c6.9,2.5,12.5,6.6,16.6,12.4c3.8,5.3,5.6,11,5.6,17.2c0,2.9-0.8,5.3-2.5,7.1c-1.6,1.8-3.7,2.7-6.3,2.7h-35.1V126h31.9
				c1.4,0,2.1-0.7,2.1-2.1c-0.4-5-2.3-9.4-5.5-13.2c-4.4-5.2-10.4-8.2-18.1-9c-0.4,0-0.6-0.2-0.6-0.6v-9.2L310,75.5z"/>
		</g>
		<g id="XMLID_00000008842468342191153310000005326848429618913922_">
			<path id="XMLID_00000018210179685618908240000009548586652970272436_" class="st1" d="M344.3,97.2V126h4.1v8.2h-4.2
				c-0.4,6.4-3,11.4-7.6,14.8c-3.9,2.8-8.6,4.3-14.2,4.3c-1,0-2,0-3.1-0.1l-3.9-4.9v-3.5c1.7,0.3,3.4,0.4,5,0.4
				c9.5,0,14.2-4.6,14.2-13.8V97.2H344.3z"/>
		</g>
		<g id="XMLID_00000000214238884957190850000005584464824235765935_">
			<path id="XMLID_00000009576534499849835030000005899398365788425090_" class="st1" d="M362.3,111.1c0-5.1,1.8-9,5.3-11.6
				c2.8-2.1,6.6-3.2,11.4-3.2c4.7,0,8.7,1.4,12,4.2c4.1,3.5,6.2,8.6,6.2,15c0,6.1-1.6,11.2-4.9,15.2c-3.2,3.9-7.3,5.9-12.3,5.9
				c-4.5,0-8-1.7-10.5-5c-1.7,1.7-3.8,2.6-6.3,2.6h-15.4V126h12.4c0.6,0,1.1-0.2,1.5-0.6c0.4-0.4,0.6-0.8,0.6-1.4V111.1z M372,125.1
				c2,2.1,4.3,3.2,6.8,3.2c2.5,0,4.6-1.1,6.2-3.3c1.6-2.2,2.4-5.1,2.4-8.6c0-3.9-0.9-6.9-2.7-9.1c-1.6-1.9-3.7-2.8-6.3-2.8
				c-1.9,0-3.5,0.6-4.6,1.8c-1.3,1.2-1.9,2.8-1.9,4.8V125.1z"/>
		</g>
		<g id="XMLID_00000164500777421083630020000002810527665130930361_">
			<path id="XMLID_00000012470649875131046590000000739047720219030661_" class="st0" d="M98.6,195.7v24.6c0,2-0.6,3.6-1.8,5
				c-1.5,1.8-3.4,2.7-5.8,2.7H51.7c-3,0-5.7-1-7.9-3c-3-2.5-4.4-5.7-4.4-9.7v-11.1l4.4-3.5H48v14.6c0,1.6,0.6,3,1.7,4
				c1.1,1,2.3,1.5,3.7,1.5h34.9c1.2,0,1.8-0.6,1.8-1.8v-23.4H98.6z M63.7,193.8c1.3,0,2.3,0.4,3.2,1.3c0.9,0.9,1.3,2,1.3,3.2
				c0,1.3-0.4,2.3-1.3,3.2c-0.9,0.9-2,1.3-3.2,1.3c-1.2,0-2.3-0.4-3.2-1.3c-0.9-0.9-1.3-2-1.3-3.2c0-1.3,0.4-2.3,1.3-3.2
				C61.5,194.2,62.5,193.8,63.7,193.8z M74.5,193.8c1.2,0,2.3,0.4,3.2,1.3c0.9,0.9,1.3,2,1.3,3.2c0,1.3-0.4,2.3-1.3,3.2
				c-0.9,0.9-1.9,1.3-3.2,1.3c-1.3,0-2.3-0.4-3.2-1.3c-0.9-0.9-1.3-2-1.3-3.2c0-1.3,0.4-2.3,1.3-3.2
				C72.1,194.2,73.2,193.8,74.5,193.8z"/>
		</g>
		<g id="XMLID_00000162338132289306253290000000470830284439831453_">
			<path id="XMLID_00000003076991698240792970000008103538721875568520_" class="st0" d="M116.9,177.7v48.5l-4.4,3.5h-4.2v-52H116.9
				z"/>
		</g>
		<g id="XMLID_00000147214859428993802030000001603289445129545863_">
			<path id="XMLID_00000146474183866097426910000009542568781082225853_" class="st0" d="M141.4,195.7v30.6c0,5.8-1.8,10.3-5.3,13.5
				c-2.3,2.1-5.2,3.6-8.8,4.4c-1.7,0.3-3.4,0.5-5.3,0.5c-0.6,0-1.4,0-2.5-0.1l-3.4-4.3v-3c1.5,0.2,2.9,0.4,4.4,0.4
				c8.3,0,12.4-4,12.4-12.1v-29.8H141.4z"/>
		</g>
		<g id="XMLID_00000052088166433952464520000018074227946408345016_">
			<path id="XMLID_00000064341143885190846560000013029683726813058219_" class="st0" d="M156.2,195.3c1.6-0.3,3.4-0.4,5.5-0.4
				c5.4,0,9.7,1.7,13.1,5.2c2.9,3.1,4.4,7,4.4,11.7v6.7c0,1.1,0,1.9-0.1,2.4h1.8v7.2H180l-2.3-2.9h-0.2c-0.4,0.4-0.8,0.8-1.2,1.2
				c-1.4,1.1-3,1.7-4.7,1.7h-22.5v-7.2h19.8c1.2,0,1.8-0.6,1.8-1.8v-6.5c0-3.2-1-5.8-2.9-7.8c-1.8-1.8-4.5-2.8-7.9-2.9
				c-1.6,0-2.8,0.1-3.6,0.3V195.3z"/>
		</g>
		<g id="XMLID_00000180345563450998364980000009534300754405939641_">
			<path id="XMLID_00000034809447036074212750000014781966756913725825_" class="st0" d="M194.4,220.8c-2.1-2.8-3.2-6.2-3.2-10.2
				c0-3.6,0.9-6.7,2.7-9.3c2.9-4.3,7.2-6.5,12.8-6.5c4.2,0,7.7,1.3,10.6,3.9c3.3,3,5,7,5,11.9c0,3.8-1.1,7.2-3.2,10.2h4.8v7.2h-10.5
				c-3,0-5.2-0.3-6.6-0.9h-0.4c-1.3,0.6-3.5,0.9-6.6,0.9h-19.5v-7.2H194.4z M201.6,180.2c1.3,0,2.3,0.4,3.2,1.3
				c0.9,0.9,1.3,2,1.3,3.2c0,1.2-0.4,2.3-1.3,3.2c-0.9,0.9-2,1.3-3.2,1.3c-1.2,0-2.3-0.4-3.2-1.3c-0.9-0.9-1.3-1.9-1.3-3.2
				c0-1.3,0.4-2.3,1.3-3.2C199.3,180.7,200.4,180.2,201.6,180.2z M206.8,220.8c2.1-0.2,3.8-1.2,5.1-2.9c1.3-1.7,1.9-3.9,1.9-6.6
				c0-2.8-0.6-5.1-1.9-6.7c-1.3-1.7-3-2.5-5.1-2.5c-2.1,0-3.8,0.8-5.1,2.5c-1.3,1.7-1.9,3.9-1.9,6.7c0,2.7,0.6,4.9,1.9,6.6
				C203,219.6,204.7,220.5,206.8,220.8z M212.3,180.2c1.3,0,2.3,0.4,3.2,1.3c0.9,0.9,1.3,2,1.3,3.2c0,1.2-0.4,2.3-1.3,3.2
				c-0.9,0.9-2,1.3-3.2,1.3c-1.3,0-2.3-0.4-3.2-1.3c-0.9-0.9-1.3-1.9-1.3-3.2c0-1.3,0.4-2.3,1.3-3.2
				C209.9,180.7,211,180.2,212.3,180.2z"/>
		</g>
		<g id="XMLID_00000047018020004173366250000015028587169252564386_">
			<path id="XMLID_00000140714159216349795520000004814446951218648992_" class="st0" d="M244.7,177.7v42.6c0,2-0.6,3.7-1.9,5.1
				c-1.5,1.8-3.3,2.7-5.7,2.7h-13.6v-7.2h10.8c0.5,0,1-0.2,1.3-0.6c0.3-0.3,0.5-0.7,0.5-1.2v-41.4H244.7z"/>
		</g>
		<g id="XMLID_00000132087868586492367640000006473414628545248437_">
			<path id="XMLID_00000036227979232687573300000003966164234773384634_" class="st0" d="M263,177.7v48.5l-4.4,3.5h-4.2v-52H263z"/>
		</g>
		<g id="XMLID_00000083787900996877106620000016107748812652660610_">
			<path id="XMLID_00000075138274111024530580000016544206983241932200_" class="st0" d="M284.8,223.9c-1.2-0.8-2.3-2-3.3-3.6
				c-1.6-2.7-2.5-5.8-2.5-9.2c0-5.2,1.6-9.2,4.8-11.9c2.8-2.4,6.4-3.7,10.9-3.7c1.7,0,3.8,0.3,6.2,0.8v6.8c-2-0.4-3.5-0.6-4.7-0.6
				c-5.8,0-8.6,3-8.6,9.1c0,2.7,0.7,4.8,2.1,6.3c1.4,1.5,3.4,2.3,5.9,2.3c0.3,0,0.6,0,0.8,0c4.2-0.6,7.5-0.9,9.9-0.9
				c0.7,0,1.3,0,2,0.1v2.9l-3.5,4.4c-3.4,0.1-7,0.7-10.9,1.8c-4.4,1.3-8.7,3.3-12.7,6l-4-6.3C279.1,226.8,281.7,225.4,284.8,223.9z"
				/>
		</g>
		<g id="XMLID_00000101065029413735002010000014726695980774434447_">
			<path id="XMLID_00000178923749972887109670000002568129751732768682_" class="st0" d="M323.3,177.7v41.4c0,0.5,0.1,0.8,0.4,1.1
				c0.3,0.4,0.7,0.6,1.3,0.6h1.8v7.2h-4.6c-1.9,0-3.6-0.7-5.1-2c-1.7-1.5-2.5-3.4-2.5-5.7v-42.6H323.3z"/>
		</g>
		<g id="XMLID_00000106144029851867788950000008912122628388437397_">
			<path id="XMLID_00000139979790579586620500000002726823514043356862_" class="st0" d="M347.6,195.7v24.1v1.1h3.6v7.2h-2.5
				l-2.6-2.9h-0.1c-1.6,1.9-3.6,2.9-6,2.9h-13.6v-7.2H337c0.7,0,1.1-0.2,1.4-0.6c0.4-0.4,0.6-0.8,0.6-1.4v-23.2H347.6z M343.3,180.2
				c1.3,0,2.3,0.4,3.2,1.3c0.9,0.9,1.3,2,1.3,3.2c0,1.2-0.4,2.3-1.3,3.2c-0.9,0.9-2,1.3-3.2,1.3c-1.2,0-2.3-0.4-3.2-1.3
				c-0.9-0.9-1.3-1.9-1.3-3.2c0-1.3,0.4-2.3,1.3-3.2C341,180.7,342.1,180.2,343.3,180.2z"/>
		</g>
		<g id="XMLID_00000134245758335290861220000013851705306721419962_">
			<path id="XMLID_00000165211433712011296360000000842434847990813836_" class="st0" d="M371.8,195.7v24.1v1.1h3.6v7.2h-2.5
				l-2.6-2.9h-0.1c-1.6,1.9-3.6,2.9-6,2.9h-13.6v-7.2h10.6c0.7,0,1.1-0.2,1.4-0.6c0.4-0.4,0.6-0.8,0.6-1.4v-23.2H371.8z
				 M367.3,233.1c1.2,0,2.3,0.4,3.2,1.3c0.9,0.9,1.3,2,1.3,3.2c0,1.3-0.4,2.3-1.3,3.2c-0.9,0.9-1.9,1.3-3.2,1.3
				c-1.3,0-2.3-0.4-3.2-1.3c-0.9-0.9-1.3-2-1.3-3.2c0-1.3,0.4-2.3,1.3-3.2C364.9,233.6,366,233.1,367.3,233.1z"/>
		</g>
		<g id="XMLID_00000129207938185064080430000008767863240124206268_">
			<path id="XMLID_00000109726039028770026470000006239325918473913016_" class="st0" d="M396,177.7v42.6c0,2-0.6,3.7-1.9,5.1
				c-1.5,1.8-3.3,2.7-5.7,2.7h-13.6v-7.2h10.8c0.5,0,1-0.2,1.3-0.6c0.3-0.3,0.5-0.7,0.5-1.2v-41.4H396z"/>
		</g>
	</g>
	<g id="XMLID_00000102539110938927272160000018282417741825588369_">
		<g id="XMLID_00000065776016909890426000000006378309579242338962_">
			<polygon id="XMLID_00000078729224188068147300000001782868341854784920_" class="st0" points="601.5,281.7 571.1,251.3 
				631.9,190.5 609.3,167.6 639.6,137.2 692.8,190.5 692.8,243.7 639.6,243.7 			"/>
		</g>
	</g>
	<g id="XMLID_00000160186334219346022660000006378568510141542836_">
		<g id="XMLID_00000133514262927329269630000005321052638462535845_">
			<polygon id="XMLID_00000132774151921260346840000003298752422275985571_" class="st1" points="472.2,152.5 502.6,122.1 
				563.4,182.9 586.3,160.3 616.7,190.5 563.4,243.8 510.2,243.8 510.2,190.5 			"/>
		</g>
	</g>
	<g id="XMLID_00000123409472844696700900000012962313776983641247_">
		<g id="XMLID_00000093864856474649772480000001670912114704809137_">
			<polygon id="XMLID_00000133525687064250962920000015381729143703019674_" class="st0" points="601.5,23.3 631.9,53.7 571,114.5 
				593.7,137.4 563.4,167.7 510.2,114.5 510.2,61.3 563.4,61.3 			"/>
		</g>
	</g>
</g>
</svg>
